<svg width="613" height="448" viewBox="0 0 613 448" fill="none" xmlns="http://www.w3.org/2000/svg"><path d="M156.081.806c2.752 2.123 5.819 3.853 7.234 7.156.472 1.1.629 2.516.472 3.774-.551 4.875 1.336 6.998 6.29 6.92 1.18 0 2.359-.157 3.617-.157.551 0 1.18.157 1.573.393 2.516 1.966 2.831 5.583 1.809 8.65-1.494 4.324-.944 8.649.786 12.895 1.415 3.617 2.673 7.391 4.01 11.008.315.787.865 1.573 1.415 2.28.472.708 1.18 1.259 1.652 1.966 2.28 3.539 4.639 7.077 6.841 10.616.707 1.18 1.258 2.595 1.808 3.853 1.73 3.774 3.067 7.784 5.19 11.323 1.966 3.381 4.718 6.133 6.841 9.436 2.044 3.145 3.696 6.526 5.583 9.75 1.651 3.067 2.988 6.369 5.111 9.043 1.337 1.651 3.774 2.437 5.897 3.224.394.157 1.809-1.023 2.123-1.809.629-1.651.472-3.617 2.753-4.325.707-.235 1.1-1.651 1.336-2.673.472-1.809 1.337-2.202 2.831-1.18 1.966 1.337 3.932 1.73 6.448.944 2.28-.708 4.954-.708 7.391-.55 2.595.235 3.775 2.437 4.718 4.56.708 1.573 1.651 1.73 3.145 1.022 1.573-.786 3.224-1.494 4.797-2.28.393-.157.708-.393 1.022-.708 2.516-2.28 5.033-4.482 7.549-6.762.314-.314.629-.55.865-.865 2.044-3.774 5.111-6.526 8.414-9.121 1.336-1.022 1.494-3.381 2.594-4.797 2.045-2.752 3.067-6.369 6.212-8.335.315-.157.393-.707.629-1.022 1.023-1.18 2.123-2.359 3.224-3.538.158-.158.472-.236.551-.394 1.572-2.752 3.145-5.504 4.56-8.335.708-1.415 1.101-2.909 1.73-4.324 1.101-2.595 2.202-5.19 3.46-7.706a27.404 27.404 0 0 1 3.145-4.718c1.73-2.045 1.809-4.325 1.416-6.684-.393-2.28 0-4.089.943-6.212 1.258-2.595 1.809-5.426 2.674-8.178.55-1.73 1.022-3.538 3.46-2.752h.393c4.089-2.516 6.762.315 9.672 2.517.629.471 1.651.314 2.437.471.472.079 1.022.079 1.337.393 2.202 2.28 4.403 4.561 6.448 6.92 1.336 1.573 2.044 4.246 3.617 4.875 2.673 1.101 3.066 3.224 4.246 5.19 1.494 2.359 3.617 4.246 5.426 6.37.865 1.1 1.651 2.28 2.594 3.302.787.865 1.652 1.73 2.517 2.516s1.73 1.573 2.516 2.438c2.28 2.516 4.482 5.032 6.605 7.627.786 1.022 1.337 2.201 2.044 3.381.708 1.258 1.416 2.595 2.202 3.774 1.966 2.831 4.089 5.583 6.055 8.414.55.865.472 2.044.943 2.988.629 1.18 1.258 2.359 2.281 3.224a176.254 176.254 0 0 0 10.458 8.099c2.044 1.494 4.56 2.438 6.605 3.853 1.337.944 2.28 2.359 3.46 3.617 1.415 1.494 2.909 2.909 4.324 4.325 2.595 2.673 5.112 5.504 7.785 8.099 1.101 1.101 2.438 1.808 3.696 2.752.629.472 1.258.865 1.887 1.337 1.258 1.022 2.516 1.966 3.696 3.066 1.022 1.023 1.808 2.202 2.83 3.146.708.707 1.573 1.572 2.517 1.73 1.494.314 3.066.236 4.56.157 2.123-.079 3.381-1.337 3.617-3.46v-1.651c0-5.19 1.966-7.47 7.156-8.178.786-.079 1.651-.079 2.516-.157 2.044-.158 3.46-1.022 3.853-3.224.315-1.73-.315-2.831-2.123-3.067-2.28-.236-4.639-.236-6.841-.55-.865-.157-2.044-.944-2.28-1.73-.708-2.045-1.101-4.168-1.337-6.37-.236-2.044 1.258-3.302 3.617-3.223 2.831.157 5.347-.236 6.92-2.831.393-.708 1.022-1.966.786-2.28-.708-.944-1.966-1.494-2.909-2.28-.708-.551-1.652-1.023-1.888-1.73-.314-1.337.158-2.202 1.809-2.595 3.46-.865 6.369-.315 9.672 1.336 1.73.865 4.482 0 6.683-.471.472-.079.865-1.573.865-2.36 0-.471-.629-1.415-1.101-1.493-2.358-.472-4.717-.708-7.076-1.18-.865-.157-1.888-.393-2.595-.944-1.18-.943-2.281-2.044-2.988-3.38-.393-.708-.079-2.045.314-2.91.865-1.73 2.281-3.303 2.91-5.111 1.022-3.145 1.887-4.01 5.189-4.01 4.246 0 8.414 0 12.66.157.55 0 1.101.865 1.651 1.258 1.652 1.258 3.539 2.202 4.797 3.696 1.179 1.337 2.202 3.145 2.516 4.875.393 2.123.865 3.774 2.91 4.954.707.393.943 1.808 1.022 2.83.078.944-.472 1.966-.472 2.989 0 2.988 0 5.818-2.044 8.492-1.337 1.808-1.259 4.718-2.674 6.526-2.044 2.595-4.954 4.561-7.313 6.92-.865.865-1.179 2.28-1.887 3.381-2.909 4.246-5.583 8.65-8.807 12.66-3.538 4.482-.865 10.301 2.045 13.367.157.158 1.022 0 1.336-.314 1.573-1.416 2.988-2.359 5.112-.944.629.393 1.965-.472 2.988-.629 1.1-.157 2.28-.472 3.381-.236 5.111 1.022 10.222 2.123 15.333 3.224 1.415.315 2.752 1.258 4.246 1.337 4.482.236 8.886.236 13.368.314 2.201 0 4.482 0 6.605-.393 1.494-.236 2.909-1.179 4.324-1.258 1.416 0 2.831.551 4.089-.708.394-.393 1.494-.314 2.123-.157 3.853 1.18 7.47-.079 11.245-.786 3.145-.551 5.661-1.651 8.256-3.539 1.887-1.336 4.797-1.336 7.156-2.044 1.73-.472 3.302-1.258 5.032-1.887.865-.315 1.966-.708 2.674-.472 1.415.629 2.201.157 2.752-.944 1.336-3.145 4.403-3.695 7.155-4.482.393-.078 1.18.236 1.416.551 1.022 1.887 2.752 1.572 4.088 1.022 1.023-.393 1.966-1.494 2.359-2.516.551-1.573 1.023-2.516 3.067-2.595 1.809-.079 3.617-1.101 5.426-1.73.393-.157.865-.472 1.258-.472 2.909.236 4.01-1.808 5.504-3.774 1.258-1.573 3.224-2.831 5.111-3.617.786-.315 2.202 1.179 3.381 1.808.944.551 1.966 1.101 2.91 1.652.55.314 1.258.629 1.494 1.101 1.101 2.044 3.224 2.673 4.875 1.1 1.258-1.179 2.516-1.651 4.246-1.179.55.157 1.337-.236 1.809-.629 1.572-1.258 3.302-1.101 4.56.393 1.966 2.438.315 6.133-2.595 7.155-2.673.944-5.111 1.966-8.099 1.966-1.73 0-3.538 1.809-5.268 2.752a3.651 3.651 0 0 1-1.809.472c-4.324.157-8.57 0-12.817.393-1.179.079-2.594 1.494-3.302 2.674-.944 1.494-1.73 2.752-3.853 2.437-.472 0-1.258 0-1.416.315-2.044 2.831-6.211 3.774-6.998 7.706-.472 2.202-2.201 2.202-3.46 1.258-2.044-1.573-3.224-.236-4.56.786-.393.315-.708.787-1.18.944-3.695 1.179-7.391 2.359-11.087 3.381-.786.236-1.73 0-2.595 0-.236 0-.629-.236-.786-.078-3.067 2.437-7.549 1.258-10.379 4.246-.708.707-2.045.707-3.146 1.1l-3.538 1.18c-1.101.393-2.202.865-3.303 1.179-3.617.865-7.313 1.73-11.008 2.517-4.089.865-8.178 1.651-12.267 2.516-2.516.55-4.954 1.415-7.47 1.808-4.01.708-8.02 2.045-12.188.551-1.179-.393-2.752-.393-3.853.157-1.572.786-2.752.629-4.325 0-2.201-.865-4.56-1.651-6.919-1.887-1.416-.157-2.988.708-4.482 1.022-1.416.315-2.831.708-4.246.629-2.045 0-4.011-.629-5.662 1.18-.393.472-1.494.236-1.966.629-1.101 1.022-2.201 2.044-2.988 3.302-1.258 2.045-.707 3.303 1.573 4.089.55.157 1.258 0 1.808-.078 3.303-.472 6.684-1.18 9.987-1.416 2.201-.157 3.853 2.988 3.224 5.898-.315 1.336-.236 3.381-2.752 2.594-.158 0-.708.394-.787.629-1.494 4.325-5.111 6.999-7.863 10.38-1.73 2.123-2.752 4.875-4.325 7.155-3.774 5.741-5.819 12.031-7.706 18.636-1.651 5.819-1.73 11.48-.393 17.142.472 2.123 2.359 3.932 3.696 5.74 2.123 2.752 4.403 5.347 6.605 8.021.944 1.1 1.887 2.123 2.595 3.381.629 1.101 1.101 2.28 1.337 3.538.786 3.932 1.415 7.942 2.201 11.874.472 2.516-.55 4.403-2.437 5.897-1.73 1.416-2.595 2.988-1.652 5.268 1.259 2.988 2.045 6.291 3.617 9.122 1.416 2.673 3.775 4.796 5.426 7.391 1.258 1.887 1.887 4.168 2.909 6.212.472.944 1.337 1.651 2.045 2.438.472.55 1.337 1.179 1.337 1.73 0 3.617 1.336 6.683 3.302 9.593.629.943.708 2.359 1.101 3.538.55 1.494 1.18 2.91 1.809 4.404.471 1.179 1.179 2.28 1.494 3.538.786 3.224 2.123 5.976 4.718 8.178 1.179 1.022 1.887 2.673 2.673 4.089 1.179 2.044 2.202 4.167 3.381 6.212.157.314.472.707.865.864 4.718 1.966 5.19 6.763 6.762 10.616 1.259 3.066 1.809 6.369 2.595 9.593.158.786 0 1.573.394 2.28.471 1.101 1.1 2.045 1.651 3.067.707 1.258 1.494 2.516 2.123 3.853 1.572 3.303 3.224 6.684 4.718 10.065.865 2.044 1.73 4.167 2.28 6.29.393 1.494 1.258 2.124 2.438 3.067 1.887 1.415 3.145 3.853 4.403 5.976.629.944.472 2.438 1.18 3.303 1.808 2.594 2.044 5.504 2.83 8.413.629 2.281 2.438 4.168 3.696 6.369.393.787.551 1.652.865 2.517 0 .236 0 .55.157.786 1.573 3.381 2.91 6.998 4.797 10.144 2.044 3.302 2.437 6.762 2.123 10.457-.079 1.259 0 2.595.314 3.854.629 2.359-.157 4.246-1.965 5.661-1.494 1.18-2.988 0-4.561-.472-2.988-.943-3.46-2.988-3.696-5.583-.157-1.572-.472-3.145-2.516-3.46-.393 0-.786-.393-.944-.707-1.808-4.089-6.133-5.74-8.649-9.043-.865-1.101-1.415-2.83-1.258-4.089.55-3.538-1.887-5.976-2.988-8.885-.315-.786-.865-1.573-1.022-2.359-.315-1.73-.394-3.224-2.674-3.932-.865-.235-1.101-2.437-1.73-3.695-.629-1.101-1.415-2.123-2.202-3.067-.157-.236-.629-.393-.707-.629-1.022-2.673-2.516-5.032-5.033-6.684-1.336-.865-2.359-2.28-3.695-3.302-2.674-1.966-5.269-4.247-5.819-7.628-.708-4.167-3.775-6.683-6.212-9.671-.708-.865-1.337-1.888-2.045-2.752-.786-1.023-1.729-1.888-2.594-2.831-.472-.551-1.259-1.101-1.416-1.73-1.337-5.426-4.56-9.751-8.099-13.918-.629-.786-1.022-1.809-1.415-2.752-.236-.551-.315-1.337-.708-1.651-2.438-1.652-3.302-4.247-4.718-6.606-1.022-1.651-3.067-2.673-4.246-4.324-2.752-3.775-5.347-7.706-7.942-11.559-.079-.157-.078-.393-.236-.472-2.28-2.28-4.639-4.561-6.919-6.841-.472-.472-1.023-.786-1.416-1.337-1.651-2.595-3.224-5.189-4.875-7.784-.314-.551-.708-1.101-1.022-1.652a251.371 251.371 0 0 1-4.168-7.941c-.393-.787-.629-1.809-1.258-2.281-1.808-1.494-1.415-3.302-1.572-5.268-.315-2.988-.944-6.055-2.202-8.807-1.18-2.673-3.145-4.954-4.954-7.313-.629-.786-1.808-1.258-2.831-1.415-1.808-.236-2.909-1.101-3.459-2.674-1.101-3.223-3.775-4.796-6.606-6.133-1.965-.865-2.988.865-2.988 2.359 0 1.337.629 2.91 1.494 4.01 2.045 2.595 4.404 4.954 6.527 7.47.236.236.393.865.236 1.18-1.494 3.46-2.123 7.313-5.111 10.222-2.438 2.438-3.932 5.897-5.976 8.885-.865 1.259-1.809 2.438-2.752 3.618-.158.157-.394.314-.472.471-1.258 3.853-5.347 5.269-7.47 8.335-3.067 4.404-5.74 9.043-8.571 13.604-3.067 4.875-2.595 9.671-.472 14.861 1.022 2.595.314 5.898.157 8.886 0 1.651-.236 3.302-.629 4.875-1.101 4.325-2.28 8.649-3.46 12.896-.786 2.909-1.808 5.739-2.594 8.649a214.854 214.854 0 0 0-2.595 10.222c-.158.786-.394 1.573-.315 2.281.315 4.953.708 9.986 1.101 14.94.157 2.044.393 4.088.472 6.133 0 .472-.236 1.022-.551 1.336-2.83 2.91-5.661 5.741-8.413 8.729-.629.708-.787 1.808-1.101 2.752l-.944 2.831c-1.336-.629-2.673-1.18-4.01-1.809-.314-.157-.55-.393-.786-.629-.158.315-.393.629-.393.944-.158 2.673-1.809 4.167-4.168 4.639-3.46.708-6.998 1.179-10.537 1.494-1.258.079-2.516-.55-3.853-.865.551-1.887 1.023-3.696 1.652-5.504.157-.393 1.101-.551 1.415-.944.315-.393.315-1.101.472-1.651.078-.55 0-1.101.157-1.573 1.809-3.931 3.539-7.863 5.426-11.716 1.022-1.966 2.595-3.617 3.46-5.661.864-1.966 1.179-4.168 1.808-6.291.236-.865.708-1.651.865-2.516.315-1.416.629-2.831.629-4.168 0-2.123-.079-4.324-.157-6.448 0-.55.078-1.1 0-1.651-1.022-3.224-2.123-6.448-3.067-9.672-.236-.786-.55-1.808-.236-2.358 1.887-3.46 1.022-7.235 1.18-10.852.236-5.111.078-10.222.472-15.333.157-1.809 1.258-3.617 1.965-5.347.629-1.651 1.652-3.224 1.809-4.954.629-5.425.943-10.772-2.91-15.648-1.258-1.572-.786-4.875-.393-7.234.393-2.123 1.652-4.167 2.595-6.212 1.73-3.774 3.775-7.391 5.111-11.323.787-2.28.865-4.639 3.067-6.448 1.887-1.572 3.302-3.931 4.796-5.976.394-.55.63-1.258.63-1.887.157-1.808.943-2.909 2.594-3.931 1.18-.787 2.123-2.202 2.674-3.539 1.887-4.167 3.931-8.02 6.841-11.637 2.359-2.91 3.696-6.605 5.426-10.065a198.893 198.893 0 0 0 4.01-8.257c1.258-2.595 2.516-5.189 3.617-7.863.943-2.28 1.494-4.718 2.28-7.077.708-2.123 1.494-4.246 2.123-6.369.472-1.494 1.101-2.988 1.18-4.561.078-2.988 0-5.897 2.595-8.177.707-.629.864-2.831.314-3.46-1.966-2.438-1.415-4.797-.786-7.313.393-1.73.786-3.538 1.101-5.268.55-2.674 1.258-5.347 1.494-8.099.157-1.966-.394-3.932-.472-5.898-.157-3.302.865-6.133 2.595-9.121 1.73-2.91 1.965-6.763 2.752-10.222.629-2.752.707-5.662 1.415-8.335.944-3.617 2.595-6.999 3.46-10.616.55-2.516.236-5.347.157-7.941 0-.236-1.415-.865-1.808-.63-1.966 1.18-4.089 2.281-5.505 4.011-1.494 1.808-3.459 2.516-5.425 1.022-1.101-.786-2.516-1.101-3.539-1.887-1.494-1.18-2.673-2.752-4.01-4.089l-6.369-6.369c-1.101-1.101-2.123-2.438-3.303-3.381-3.066-2.438-6.447-4.482-9.357-7.077-1.73-1.494-2.673-3.853-4.089-5.662-1.022-1.258-2.359-2.123-3.459-3.302-.787-.787-1.416-1.73-1.966-2.674-1.022-1.966-1.887-4.01-2.91-5.976-2.201-4.01-4.403-8.02-6.683-12.03-1.101-1.888-2.517-3.54-3.617-5.348-1.888-2.988-3.224-6.448-5.662-8.885-2.438-2.516-3.932-5.662-6.841-8.02-4.01-3.303-6.762-8.021-10.065-12.11-2.359-2.83-5.19-5.19-8.728-6.212-.708-.236-2.359 1.18-2.752 2.202-.315.708.472 2.437 1.258 2.83 3.224 1.652 4.718 4.404 5.426 7.707.55 2.359-1.573 5.032-4.247 6.133-1.1.472-2.28 1.572-2.752 2.752-1.494 3.303-2.752 6.762-3.931 10.222-.944 2.83-2.595 5.19-2.752 8.492-.079 2.438-1.888 5.347-3.775 6.841-2.28 1.809-3.302 4.01-4.796 6.212-1.73 2.595-3.853 4.876-5.819 7.313-.315.393-.786.786-.865 1.258-.393 3.617-2.595 6.055-5.19 8.257a161.054 161.054 0 0 0-7.784 6.841c-1.652 1.572-2.91 3.538-4.561 4.953-2.123 1.73-2.438 3.696-1.887 6.212.236 1.101.314 2.517-.157 3.539-1.888 4.325-1.416 8.649-.551 13.053 1.022 5.189-1.258 8.099-6.526 8.099-2.517 0-5.74 3.46-5.269 5.897.158.787 1.023 1.494 1.73 2.123 4.561 3.853 2.674 6.291.472 9.515-1.179 1.73-1.651 3.931-2.595 5.897-.55 1.258-1.258 2.438-1.887 3.696-1.022 1.966-2.202 3.774-2.988 5.819-1.022 2.752-1.73 5.583-2.438 8.413-1.1 4.482-4.56 5.898-9.357 4.64-3.931-1.101-7.391-3.382-11.873-3.539-4.168-.157-8.257-2.437-10.616-7.155-1.808-3.539-5.189-6.291-7.941-9.279-.236-.236-1.494 0-1.652.393-1.101 1.887-1.415 3.775.472 5.504.472.394.708 1.023 1.101 1.573 2.516 3.303 4.482 7.313 7.627 9.75 2.988 2.281 5.74 6.055 10.222 5.662 2.202-.157 3.932 0 5.662 1.573 2.438 2.123 5.426 1.1 8.178.629 5.189-.944 7.077-.236 9.593 4.324 1.022 1.809 2.437 2.045 4.089 2.517.943.236 1.965 1.022 2.595 1.808 1.965 2.516 4.088 5.033 5.582 7.863 1.101 2.124 1.573 4.797 1.652 7.156 0 2.673 1.965 3.617 3.459 5.032.787.787 1.888 1.337 2.438 2.281 1.573 2.595 3.932 3.931 6.605 4.639 2.595.629 3.774 2.28 3.932 4.718.157 2.202-1.887 4.325-4.01 5.111-1.416.55-2.438 2.045-3.853 2.674-.865.393-2.123.393-2.988 0-3.146-1.416-6.291-.944-9.515-.787-2.044.157-4.167-.393-6.212-.707-2.831-.315-5.583-.787-8.414-1.101-2.044-.236-4.088-.393-6.211-.393-1.101 0-2.281.235-3.382.55-2.437.708-4.246.314-5.347-2.202-1.022-2.516-3.224-1.808-5.032-1.572-3.067.393-5.976.629-8.414-1.73-.157-.158-.55-.315-.786-.236-2.516.786-3.303-1.258-4.718-2.516-1.337-1.18-3.303-2.202-5.111-2.438-3.381-.393-7.549-3.539-8.571-6.762-.944-3.146-1.887-6.291-4.875-8.414-.786-.472-1.022-2.044-1.101-3.145-.157-2.202-.865-3.539-3.303-3.696-1.808-.079-3.302-2.909-3.852-5.504-.63-2.91-1.573-5.976-3.146-8.492-.943-1.573-3.46-2.124-5.032-3.382-1.101-.865-2.202-1.887-2.831-3.066-1.022-1.809-1.887-3.775-2.28-5.74-.393-2.202.157-4.561-.079-6.763-.314-2.595-1.022-5.111-1.73-7.627-.157-.551-1.415-1.337-1.73-1.101-.865.472-1.651 1.337-2.28 2.202-1.101 1.494-2.045 3.066-2.988 4.639-.551.944-1.18 1.966-1.18 2.988 0 .629.944 1.494 1.652 1.809 2.516 1.258 4.639 3.381 2.595 6.605-.708 1.1-.63 2.594-1.101 3.853-.158.393-1.258.943-1.494.786-3.853-3.145-6.841-6.92-7.392-12.109-.157-1.494-.629-2.438-2.123-3.067-.786-.315-1.73-1.337-1.73-2.123 0-2.595.236-5.19.551-7.785.157-1.415.629-2.752 1.101-4.167.629-2.045 1.179-3.853-.944-5.583-.708-.551-.629-2.123-.629-3.303 0-1.73.157-3.538.393-5.189.157-.708.944-1.966 1.258-1.966.865.157 2.123.708 2.281 1.415.471 1.887 1.1 3.46 2.909 4.561.708.472 1.101 1.808 1.337 2.831.629 2.516 2.123 4.089 4.482 5.032 2.359.865 4.56-.079 5.032-2.595.393-2.044.315-4.167.472-6.29 0-.472 0-1.101.236-1.494 1.494-2.202 1.494-4.64 1.337-7.156-.158-1.573.707-2.359 2.123-2.123 3.224.393 6.447.865 9.671 1.573.865.236 1.652 1.258 2.359 1.966 2.045 2.123 5.111 3.223 5.898 6.526 0 .157.236.393.393.393 4.246.551 5.032 5.033 8.02 7.156 2.674 1.808 4.64 4.718 7.235 6.683 1.179.865 3.223 1.101 4.639.708.786-.236 1.572-2.359 1.494-3.538 0-4.797-.472-9.593-.708-14.469v-.707c.393-.944.786-1.966 1.18-2.91.943.629 2.044 1.022 2.752 1.887 1.73 2.124 3.145 4.561 5.032 6.527.787.865 2.281 1.337 3.46 1.337 1.966 0 4.246 0 5.976-.865 1.73-.787 3.303-2.438 4.246-4.089 1.022-1.73-.786-2.91-2.044-4.01-2.752-2.281-6.055-1.259-9.122-1.73-.707-.079-1.494-.158-2.123-.551-1.179-.786-2.123-1.808-3.224-2.595-2.123-1.494-4.246-2.909-6.369-4.324-.472-.315-1.101-.394-1.415-.787-.708-.707-1.809-1.572-1.809-2.437 0-6.527-2.516-12.267-5.976-17.535-1.336-2.045-2.673-4.482-4.246-5.976-4.639-4.325-5.583-10.773-9.514-15.255-2.438-2.752-2.202-5.976-3.46-8.885-1.73-4.246-2.202-9.279-7.077-12.031-1.494-.865-2.123-3.932-2.438-6.133-.314-2.28-.393-4.01-2.28-6.055-2.831-2.988-2.831-7.313-2.673-11.402.157-4.639 1.022-9.357.157-13.76-.708-3.303-3.145-7.077-5.898-8.964-8.02-5.426-12.423-14.39-10.064-24.14.471-1.966 0-4.09.157-6.212.078-1.101.629-2.202.943-3.303h1.416v.393Zm195.401 369.807c3.852 0 6.054-1.022 5.661-2.438-.393-1.179-1.415-2.673-2.516-3.066-1.337-.551-4.404 2.516-4.168 3.853.079.707.787 1.336 1.023 1.651Zm107.411-264.44c-.236-.865-.236-1.258-.393-1.494-.944-1.258-1.73-2.673-2.91-3.774-.707-.629-1.887-.629-2.83-.865 0 1.258-.551 2.831 0 3.617.943 1.258 2.594 2.202 4.088 2.988.472.236 1.337-.314 2.124-.472h-.079Zm-26.342 91.371-1.415-2.123c-.315.707-.944 1.415-.944 2.123 0 .629.551 1.258.865 1.887l1.494-1.887ZM0 186.222c.708-1.573 1.258-2.91 3.696-1.73 2.044 1.022 3.774-.472 5.032-2.123 1.101-1.494 2.202-1.73 3.853-.787.944.551 2.36.394 3.539.236 1.808-.236 3.695-1.179 5.268.708.236.236.943 0 1.415.157.944.236 1.887.629 2.831.944 1.258.393 2.438.865 3.696 1.258 2.202.629 3.224 1.808 3.302 4.325.079 2.988 3.067 3.066 5.033 3.224 3.46.236 6.998-.394 10.537-.394 4.639 0 9.278.158 13.839.472 2.123.157 4.954.393 6.212 1.809 2.752 2.988 5.897 1.808 8.964 2.28 2.044.315 4.01 1.337 6.054 1.809.944.236 2.045 0 3.067-.079 2.28-.079 4.482-.157 6.762-.315 1.259 0 2.517-.55 3.618-.393 4.639.708 9.199 1.652 13.76 2.281 1.73.236 3.617-.079 5.426-.158.157 0 .393-.157.55-.157 3.774 1.258 7.627.157 11.402.315 1.415 0 2.831-.551 4.246-.551 2.437 0 4.954.315 7.391.472.472 0 .944.393 1.337.236 3.145-1.337 4.403.472 5.74 2.988 1.809 3.46 4.089 6.605 5.976 9.986 1.258 2.281 2.123 4.875 3.146 7.313.55 1.337.943 2.831 1.651 4.01 1.258 1.966 1.572 4.01.786 6.055-.236.708-1.415 1.101-2.202 1.573-.314.157-.786.235-1.179.235-1.258.236-2.595.551-3.853.551-1.494 0-2.988-.157-4.403-.315-4.561-.55-9.122-1.179-13.761-1.73-.472 0-1.022-.157-1.494-.157-3.303-.236-7.077.393-9.829-1.022-3.853-1.966-7.942-2.123-11.795-3.46-2.831-1.022-5.583-2.123-8.414-3.145-.707-.236-1.493-.393-1.965-.865-2.831-2.359-6.37-1.573-9.515-2.516-1.73-.551-3.381-1.337-5.032-2.045a46.517 46.517 0 0 1-3.46-1.572c-1.651-.708-3.303-1.494-4.954-2.202-1.1-.472-2.202-.944-3.381-1.101-1.651-.236-3.303 0-4.954-.157-.55 0-1.022-.393-1.494-.629-1.73-.629-3.46-1.18-5.268-1.809-1.337-.472-2.674-.943-4.01-1.258-1.966-.472-3.932-.865-5.898-1.258-3.381-.629-7.155-.55-10.143-1.887a22.052 22.052 0 0 0-7.55-2.045c-1.336-.157-2.751.315-3.93-.078-2.831-1.023-5.584-2.359-8.414-3.46-.944-.393-2.045-.629-2.988-.472-1.966.315-6.448-1.651-7.549-3.46-.236-.393-.944-.786-1.415-.865-3.617-.55-6.291-2.673-8.493-5.347-.471-.55-.55-1.336-.786-2.044v-1.651Z" fill="#000"/><path d="M243.603 288.914c1.258-1.101 1.887-.236 2.045 1.258.314 2.91.471 5.819.629 8.729.236 3.853.55 7.627.55 11.48 0 2.359-.236 4.639-.393 6.998 0 .472-.157.944-.157 1.337 0 3.617.236 7.234-.158 10.773-.471 4.482 0 8.728 1.494 12.895.394 1.18.236 2.516.472 3.775.629 4.088 1.416 8.177 1.809 12.266.393 3.853.314 7.706.471 11.559v1.651c.158 4.011.236 8.099.63 12.11.157 1.651.865 3.224 1.336 4.796.158.629.472 1.18.708 1.809.393 1.337.55 2.831 1.258 3.931 1.18 1.888.865 3.303-.314 5.19-1.494 2.28-3.775 4.561-2.753 7.785.551 1.808 1.652 3.381 2.045 5.189.393 1.966.393 4.089.472 6.134.236 3.774.236 7.548.707 11.244.315 3.067 1.023 6.133 1.573 9.2.315 1.809-1.101 3.46-2.909 2.988-1.18-.314-2.123-1.258-3.146-1.966-.943-.707-1.887-1.494-2.83-2.28-.315-.236-.944-.393-1.101-.786-1.887-3.382-3.46-6.92-2.045-10.93 0-.157.158-.393.079-.551-1.258-3.617.314-7.312-.315-10.851-.393-2.123-1.022-4.246-1.572-6.29-.472-1.809-.787-3.618-1.337-5.348-.708-2.28-1.651-4.481-2.516-6.683-1.101-2.831-2.202-5.662-3.303-8.414l-.707-1.887c-1.18-3.224-2.359-6.448-3.618-9.672-1.336-3.381-2.83-6.762-4.246-10.065 0-.078-.078-.157-.157-.236-.708-4.639-1.651-9.357-1.887-13.996-.157-3.46.943-6.998.786-10.458-.078-3.145-.943-6.291-1.73-9.357-.393-1.573 0-3.696-2.123-4.404 0 0 0-.157-.078-.236-.787-4.718-1.73-9.435-2.281-14.153-.314-2.438.315-5.033 0-7.471-.55-3.852-1.572-7.627-2.516-11.401a86.913 86.913 0 0 0-2.595-8.807c-.393-1.101-1.258-1.966-1.73-2.988-.629-1.337-.865-2.673 1.337-2.831.472 0 .944-1.022 1.101-1.651 1.179-3.617 2.359-4.403 6.133-4.01.865.078 1.73-.393 2.595-.236 1.809.314 3.617.786 5.426 1.179.55.158 1.415.472 1.73.236 1.651-1.258 2.359-.393 3.223.944.394.708 1.416 1.022 2.045 1.572.314.315.472.865.708 1.337.393.787.786 1.573 1.258 2.202.786.943 1.73 1.808 2.516 2.752.314.393.393.944.708 1.337.865 1.101 1.808 2.123 2.83 3.302h-.157ZM214.588 77.317c.629-5.269 1.258-10.616 1.887-15.884 0-.315.157-.865.393-1.022 2.909-1.337 2.674-4.325 3.539-6.763.864-2.437 1.729-2.752 4.482-1.1 1.808 1.1 2.752.314 4.246-.63 2.201-1.493 4.56-3.38 6.998-3.46 1.966-.078 4.403 1.81 5.976 3.46 1.337 1.416 1.573 3.775 2.359 5.662.236.63.629 1.415 1.101 1.809 2.123 1.73 1.887 3.852 1.179 6.054-.236.708-1.258 1.18-1.966 1.652-1.1.786-2.437 1.415-3.459 2.359-.708.707-.865 1.73.786 2.044 1.809.314 3.303.393 4.482-1.337.786-1.1 2.831-.157 3.617 1.415 1.337 2.438 1.809 4.797 1.337 7.785-.393 2.36 0 4.797-1.73 6.841-.472.55-.315 1.809-.079 2.674.629 2.594-.786 3.774-2.83 5.032-2.595 1.494-4.954 3.381-7.392 5.033-.55.393-1.179.943-1.808.943-.315 0-.629-1.022-1.023-1.573-.471-.629-.865-1.65-1.415-1.73-3.696-.786-5.583-3.538-7.391-6.369-2.045-3.224-5.033-5.347-8.414-6.84-2.674-1.18-4.797-2.91-4.797-6.055h-.078Zm5.897-6.134c0 2.831 1.18 3.539 3.853 2.438 1.101-.472 2.674-1.337 3.303-.944 2.359 1.573 4.639 1.416 6.998.63.865-.315 1.73-1.18 2.044-1.966.158-.393-.707-1.809-1.258-1.887-1.179-.158-2.516.235-3.774.393-1.258.157-3.145.865-3.696.314-1.179-1.337-1.966-3.145-2.516-4.875-.629-2.202-.708-4.56-1.18-6.762 0-.158-1.336-.315-1.415-.236-.865 2.123-1.966 4.246-2.437 6.526-.394 2.045-.079 4.325-.079 6.448l.157-.079Zm21.309 14.233.158-1.101-3.067-2.674c-.629.944-1.573 1.73-1.73 2.753-.393 1.808 1.022 2.359 2.438 2.201.786 0 1.415-.786 2.201-1.18ZM192.096 247.868h-1.966c-4.404-.236-4.482-.471-6.055-4.482-.944-2.437-2.438-4.639-3.538-6.998-.315-.629-.551-1.337-.551-1.966.079-3.538.236-7.155.551-10.694 0-.471 1.258-1.179 1.965-1.1 1.023 0 2.281.393 2.91 1.1.786.865 1.572 2.438 1.337 3.46-.629 2.359-.394 4.404.393 6.605.629 1.73.707 3.932 1.808 5.19 1.809 2.123 4.325 3.617 6.369 5.504.708.629 1.101 1.652 1.573 2.438-.786.314-1.573.786-2.437 1.022-.708.157-1.573 0-2.359 0v-.079ZM216.631 258.092c-3.382 2.28-6.291-.393-9.436-.944a15.067 15.067 0 0 1-3.775-1.179c-2.044-.944-2.044-2.831-1.336-4.482.707-1.73 2.28-2.123 4.089-1.651 2.673.786 5.582 1.258 8.099 2.437 1.965.865 3.538 2.517 5.268 3.932.157.079-.315 1.337-.708 1.573-.55.314-1.415.235-2.123.314h-.078ZM164.495 204.933c3.302.472 5.897.708 7.47 3.146.157.236.314.471.55.629 2.674 2.359 2.988 3.774 1.573 7.234-.629 1.572-2.438 1.966-4.089.708-.865-.708-1.573-1.652-2.28-2.517-.787-1.022-1.651-2.044-2.359-3.145-.786-1.258-1.573-2.516-1.887-3.853-.158-.708.707-1.573 1.022-2.202ZM244.784 267.527s-.472.158-.787 0c-1.1-.629-2.752-1.179-3.066-2.122-.315-.865.55-2.595 1.415-3.303 2.516-2.202 4.403-2.123 7.313-.472.786.472 1.808.393 2.752.551.786.157 1.494.236 2.28.393-.236.786-.314 1.887-.865 2.359-2.359 2.123-5.347 2.83-9.042 2.673v-.079Z" fill="#000"/></svg>