<svg width="534" height="394" viewBox="0 0 534 394" fill="none" xmlns="http://www.w3.org/2000/svg"><path d="M219.323 63.325c8.616-5.429 10.251-10.097 7.089-18.565-1.418-3.8-2.509-7.708-3.381-11.617-.327-1.52 0-3.474.763-4.885 3.163-5.537 7.417-10.205 13.851-11.725 6.217-1.52 12.542-2.932 18.868-3.474 10.033-.869 10.906.217 13.523 10.748-5.998 5.32-4.144 12.593-4.144 19.433 0 1.52.546 2.931.655 4.451.436 7.274-1.091 9.011-8.071 11.617-4.145 1.628-7.853 4.234-11.67 6.514-.872.543-1.745 1.628-1.745 2.605-.218 4.777-2.29 9.771 2.509 13.788 1.417 1.194 2.181 3.148 3.38 4.994 4.145 1.194 7.635-1.628 11.343-2.931 8.834-3.149 17.34-7.274 26.174-10.64 4.69-1.737 9.925-2.28 14.724-4.016 6.326-2.28 13.524-2.063 19.086-6.84 6.652-5.754 14.723-6.188 23.121-5.646 6.543.435 13.196.652 19.74.652 1.963 0 3.925-.869 7.197-1.629-1.963-1.52-2.726-2.605-3.707-2.931-5.126-1.52-7.199-5.32-7.308-10.205a408.903 408.903 0 0 1 0-23.125c.218-6.08.436-6.08-1.2-10.856.328-.76.655-1.737.982-2.714 1.745-4.56 4.799-6.949 9.925-6.189 7.416.977 15.159.977 22.248 3.257 5.017 1.629 9.27 5.646 12.106 10.965 2.945 5.429 2.399 10.64-.437 15.308-6.107 9.988-6.979 21.388-9.815 32.244-.545 2.28.109 4.234 2.072 5.646 2.073 1.52 4.036.76 5.89-.543 4.362-2.931 9.161-4.343 14.287-5.211h.654c6.653-4.126 13.305-1.303 19.849.217 8.289 1.954 12.76-.869 13.414-9.445.327-4.017-.326-8.034-.763-12.051-.327-3.149-1.308-6.297-1.417-9.445-.109-4.343 1.963-6.949 6.216-7.491 2.509-.326 4.363-1.195 6.108-2.932 3.599-3.474 7.743-5.102 12.978-4.017 1.854.435 3.817.218 5.78.326 6.325.326 9.925 3.909 9.815 10.205 0 4.451-.763 8.903-1.091 13.354-.545 5.97-.981 11.942-1.417 17.913 0 .869-.545 1.629-.872 2.606-3.818 1.085-7.744 2.931-11.67 3.148-8.398.543-11.997 5.537-14.396 12.16 1.309 3.148 2.29 5.862 3.599 8.576 4.362 9.12 2.508 18.348.654 27.685a2759.622 2759.622 0 0 1-4.471 21.278c1.963.652 3.817.978 5.453 1.846 1.963 1.086 4.798 2.171 5.453 3.908 1.308 3.475 3.054 7.274 1.745 11.183-.873 2.388-2.836 3.582-5.562 3.691-2.509.108-5.017.543-6.98.76-1.963 3.365 0 5.645.545 8.034.654 2.714 1.527 5.319 2.072 8.034 1.636 8.576 5.562 16.067 10.906 23.016 1.963 2.497 3.818 5.102 5.781 7.708 4.035 5.319 3.162 11.182 1.744 17.37-4.362-.217-6.87-2.714-9.379-5.211-7.198-7.274-12.106-15.959-15.268-25.621-.219-.76-.436-1.738-.872-2.389-4.69-8.142-9.38-16.285-14.179-24.427-.763-1.194-2.072-2.497-3.381-2.714-4.798-.76-9.706-.977-14.723-1.52-2.29 3.691-4.253 7.165-6.543 10.531-1.309 1.954-2.945 3.691-4.69 5.211-2.509 2.28-3.49 5.102-2.509 8.142 1.527 4.669 2.4 9.663 7.417 12.811 8.942 5.645 15.05 14.331 22.03 22.039 4.362 4.668 8.18 9.879 11.56 15.308 5.999 9.553 11.452 19.433 17.014 29.312.763 1.303 1.2 2.715 1.527 4.234 1.745 7.491 3.271 14.983 5.016 22.474.655 2.931 1.637 5.754 2.509 8.576 3.054 10.423 5.562 20.953 9.815 31.05a140.96 140.96 0 0 1 8.071 25.73c2.29 10.531 8.398 18.239 16.577 24.319 3.599 2.714 8.616 3.583 13.088 5.211 1.854.651 3.817.977 5.562 1.737 3.054 1.303 4.471 4.126 3.599 6.731-.982 2.823-3.49 3.257-5.781 2.932-4.362-.76-8.725-2.172-13.087-3.149-3.49-.76-7.089-1.303-10.688-1.737-6.98-.868-14.069-1.629-21.048-2.497-.764 0-1.527-.651-2.618-1.086l-2.072-8.902c3.054-3.908 2.726-8.468 1.2-13.136-3.054-9.771-6.435-19.325-12.543-27.793-1.854-2.606-3.162-5.537-4.58-8.468-2.945-6.297-7.307-12.051-8.289-19.217-.218-1.411-1.09-2.714-1.635-4.125-.437-1.194-1.201-2.389-1.31-3.583-.218-5.102-.326-10.205-.217-15.199.218-9.771-3.164-17.805-10.689-24.319-4.908-4.234-9.706-8.359-15.704-11.073-2.508-1.086-4.472-3.257-6.653-4.886-6.871-5.32-15.051-9.011-21.158-15.525-1.309-1.411-3.708-2.063-5.671-2.931-2.835-1.194-4.908.326-6.871 2.28-1.963 1.954-2.399 4.017-1.308 6.405 2.944 6.406 6.216 12.702 8.943 19.216 2.617 6.297 5.125 12.703 6.87 19.325.763 3.04 0 6.84-.981 9.988-1.745 5.428-4.363 10.64-6.326 16.068-2.399 6.405-4.798 12.811-9.161 18.347-.654.869-.981 1.846-1.417 2.823-4.908 11.182-9.707 22.365-14.615 33.438-2.617 5.863-1.854 11.726.109 18.24 7.853 4.016 15.705 9.228 25.412 10.205 1.963.217 3.816.542 5.67 1.085 2.836.76 4.254 2.715 3.927 4.994-.327 2.28-2.4 4.126-5.126 3.909-5.562-.326-11.124-.977-16.686-1.412-2.945-.217-5.999-.217-8.943-.434-3.49-.325-6.871-1.845-10.47-1.194-2.072.434-4.254 0-6.326.434-4.253.76-8.179-.217-11.778-2.28-3.381-1.845-4.036-3.691-2.618-7.491.872-2.171 1.964-4.234 3.381-6.08 4.254-5.645 6.107-12.159 6.98-18.999.872-6.296 2.29-12.593 3.271-18.89.764-5.32.982-10.639 2.073-15.851a46.762 46.762 0 0 1 3.817-11.399c1.745-3.691 3.708-7.057 4.581-11.182.654-3.257 2.726-6.189 4.471-9.12 1.309-2.171 3.054-4.125 4.253-6.405 2.072-3.583 1.309-6.948-1.744-9.662-2.509-2.28-4.799-4.886-7.199-7.166-2.944-2.714-4.362-2.823-7.088 0-2.291 2.389-4.472 5.211-6.108 8.143-4.362 7.708-9.597 10.096-18.104 8.251-4.581-.978-9.379-1.086-13.96-2.28-6.98-1.737-14.396-2.389-20.939-5.971-2.727-1.52-6.108-1.955-9.271-2.389-2.835-.434-4.798 1.629-6.652 3.474-3.599 3.583-6.871 7.708-10.906 10.748-4.581 3.366-9.816 6.08-14.942 8.577-6.107 2.931-7.962 5.32-7.198 11.942.436 3.8 1.636 7.491 2.509 11.182 1.308 5.972 2.399 12.051 4.035 18.022 2.399 8.577 2.726 17.697 7.198 25.839 2.508 4.343 5.562 8.034 9.379 11.182 6.107 4.994 12.978 8.143 20.612 9.988 2.509.652 4.908 1.52 6.326 4.56-1.636 3.583-4.798 5.211-8.615 4.994-5.126-.217-10.253-.977-15.378-1.411-2.945-.217-5.89-.326-8.834-.217-4.908 0-9.925.542-14.832.325-7.853-.434-10.143-4.234-7.635-11.508.327-.977 1.091-2.062.873-3.039-1.309-10.748-1.309-21.605-7.089-31.484-3.818-6.406-6.435-13.571-9.379-20.411-2.291-5.102-4.581-6.405-9.489-3.583-8.397 4.777-15.923 10.531-20.722 19.542a99.565 99.565 0 0 1-13.414 19.651c-5.562 6.296-8.397 13.788-11.451 21.279-2.29 5.537-3.163 6.188-10.034 5.428-4.799-6.188-5.671-13.028-2.944-20.41 1.417-3.8 3.271-7.492 4.798-11.183.873-2.171 1.636-4.342 2.508-6.514 2.182-6.079 5.345-11.399 11.234-14.873 3.49-2.063 6.871-4.234 9.924-6.84 5.562-4.777 11.125-9.445 15.923-14.873 4.036-4.56 7.198-10.097 10.361-15.417 2.29-3.8 4.144-7.816 4.798-12.485.873-5.862.546-11.074-2.289-15.416-2.618-2.28-4.69-4.234-6.871-6.188-.437-.435-.982-.978-1.527-1.086-6.762-2.497-11.779-7.6-17.559-11.508-2.945-1.954-5.78-4.56-8.07-7.274-5.344-6.188-11.779-11.182-17.996-16.393-3.162-2.606-3.162-2.497-8.506-1.195-.545 1.52-1.2 3.366-1.855 5.103-1.745 5.103-3.38 10.097-5.234 15.199-2.509 7.057-5.126 14.005-7.744 20.954-3.054 7.816-8.397 13.245-16.904 15.09-1.418.326-2.944.652-4.362 1.194-5.235 1.955-10.471 3.8-15.597 5.971-7.961 3.474-16.468 4.56-24.974 5.863-1.309.217-2.617.326-3.817.651-6.98 1.955-13.96 4.234-21.05 6.08-5.78 1.52-10.905 4.451-14.722 8.794-4.581 5.102-10.034 9.119-15.596 13.028-2.727 1.954-4.69 4.342-5.78 7.491-2.181 5.862-4.363 11.616-6.653 17.37-.763 1.955-1.854 3.692-2.945 6.08-2.072-1.086-3.599-1.737-4.907-2.714-4.145-2.823-4.8-5.211-2.945-9.771.327-.76 1.09-1.737.873-2.171-2.618-4.126.545-7.057 1.963-10.531 1.635-3.909 2.944-8.034 3.926-12.16 1.308-5.319 1.963-10.856 3.272-16.176 1.09-4.125 4.035-6.514 8.397-6.84 1.527-.108 3.054-.434 4.472 0 8.397 2.172 15.487-.76 22.248-5.428 3.926-2.605 7.743-5.32 11.779-7.817 5.998-3.799 11.67-8.033 18.104-10.856 6.216-2.714 13.196-4.017 19.849-5.428 4.581-.978 9.379-1.195 14.069-1.738 6.107-.651 11.56-7.708 10.251-14.004-.981-4.886-1.308-9.663-.326-14.548.545-2.606-.546-5.429-.328-8.143.436-6.948 2.509-13.679 3.818-20.519.218-1.303.763-2.497.654-3.799-.436-5.537-.655-11.074-1.745-16.503-1.745-8.251.872-15.307 5.453-21.604 4.58-6.188 9.706-11.942 15.159-17.479 3.163-3.257 4.144-6.406 2.618-10.422-.873-2.172-1.745-4.343-2.727-6.514-2.29-4.886-4.799-9.554-6.762-14.548-.981-2.389-.654-5.32-.981-9.011l-3.708-2.714-2.945-17.697c3.054-1.52 5.889-3.257 9.052-4.45 7.307-2.715 14.505-5.212 21.267-9.229 2.509-1.52 5.671-2.28 8.616-2.497 6.762-.434 12.978-2.714 19.195-5.102 3.162-1.195 6.652-1.955 9.597-3.692 5.889-3.257 11.124-1.628 16.468 1.195 2.291 1.194 4.581 2.28 6.544 3.257l.218-.543Zm109.825 24.101c-4.799.218-9.707-.325-14.07.869-6.216 1.737-12.542 2.388-18.976 3.148-6.544.76-13.088 2.172-19.195 5.103-2.29 1.085-4.908 1.845-7.416 2.063-6.98.434-13.196 3.148-19.631 5.319-3.381 1.194-5.453 3.909-7.198 6.948-4.253 7.926-7.635 16.394-13.524 23.451v.651c4.363 4.343 4.363 4.668 9.052 5.428 8.834 1.412 17.777 2.715 26.72 3.692 3.599.434 6.762 1.085 9.489 4.776 0 2.497-.764 5.972.109 8.903 1.963 6.405-.872 10.639-5.344 14.548-3.926-.326-6.217-2.714-7.744-5.971-3.162-6.949-8.833-9.337-16.14-9.446-2.182 0-4.254-.217-6.435-.651-9.489-1.629-19.304-2.063-28.138-6.297-2.727-1.303-5.235-.543-6.762 1.954-2.508 4.017-6.434 6.189-10.252 8.469-2.29 1.411-4.253 3.365-5.125 4.125 0 5.32.763 9.445-.109 12.919-2.291 8.577.327 15.959 5.453 22.039 4.689 5.646 9.379 11.617 16.468 14.982 2.181.977 3.708 3.474 5.235 5.537 1.963 2.497 3.708 5.211 5.562 7.817 4.69 6.514 10.797 12.051 13.523 19.976.219.543.873.868 1.637 1.628.981 0 2.399.435 3.49 0 5.235-2.388 10.906-2.171 16.468-2.496 4.908-.326 9.052-2.606 11.342-7.275 2.617-5.102 5.126-10.313 7.961-15.307 3.054-5.428 6.326-10.64 9.598-15.851 3.053-4.885 6.325-9.771 7.089-15.742.654-4.885.654-9.771 1.527-14.656 1.418-8.686 3.926-16.828 10.579-23.45 8.506-8.469 16.359-17.371 23.12-27.359 3.708-5.428 4.145-11.074 4.036-16.936-.219-6.406-.873-12.703-1.527-19.108 0-.977-.545-1.954-.982-3.691l.11-.109Zm2.944 159.592c.436-2.606.655-5.211 1.2-7.708 1.418-6.948-2.073-14.657-8.507-18.348-.327-.217-.873 0-1.418 0l-16.686 25.079c3.381 2.497 7.089 2.497 9.924 3.908 6.108 3.04 10.797 1.846 15.487-2.931ZM153.123 96.546c0 2.931-.327 5.971 0 8.902.763 5.103 4.254 6.623 9.052 4.451 1.963-.868 3.817-1.954 5.889-2.497 7.198-1.954 11.888-6.405 14.069-13.136-.873-3.148-3.053-4.017-5.562-3.8-4.035.217-8.071 1.086-12.106 1.086-4.689 0-8.288 1.737-11.451 5.102l.109-.108Zm7.634 27.033c1.745-5.754 1.636-6.189-3.054-7.274-.945 3.329.073 5.754 3.054 7.274Zm23.448-36.695-1.199-9.989c-4.254 4.017-4.036 5.754 1.199 9.989Zm277.451-47.987c-1.199-4.668-3.163-6.84-8.289-7.708 2.291 3.8 3.927 6.188 8.289 7.708Z" fill="#000"/></svg>