<svg width="505" height="476" viewBox="0 0 505 476" fill="none" xmlns="http://www.w3.org/2000/svg"><path d="M373.978 312.232c.923-4.074 2.064-8.04 3.042-12.005 1.412-6.03 2.715-12.059 4.236-18.034.544-2.173 1.141-2.282 2.934-1.25 7.55 4.237 15.372 5.758 23.955 4.454 7.279-1.14 13.96-3.422 19.066-8.854.489-.489 1.141-.76 1.413-1.303 1.955-3.097 2.444-3.423 5.92-2.445 3.748 1.032 7.442.543 11.028-.869 1.249-.489 2.661-.543 3.965-.489 2.444.163 4.834 1.141 7.279 1.032 5.541 0 11.027-1.032 16.296-3.042 4.237-1.629 8.799-2.661 12.276-5.921 1.032-1.032 2.282-1.684 3.205-2.716 2.444-2.553 4.834-5.106 7.279-7.659.108-.108.108-.163.108-.271 1.413-2.716 2.554-5.541 4.075-8.094 2.444-4.128 2.715-8.8 3.693-13.309.38-2.064.272-4.128.163-6.301-.163-4.834-1.032-9.234-2.716-13.688-1.14-3.042-2.064-5.921-3.965-8.583-1.304-1.793-2.553-3.694-3.857-5.486-.652-.869-1.792-1.413-2.444-2.282-1.63-2.444-3.585-4.454-6.519-5.214-.543-.163-1.412-1.141-1.303-1.63.163-1.412.652-2.825 1.14-4.237.163-.489.543-.923.761-1.521.543-2.336 1.032-4.617 1.684-6.899 1.412-4.997.163-9.832-.38-14.72-.109-.924-.924-1.793-.924-2.662 0-4.237-3.042-7.007-5.215-9.995-1.955-2.662-4.454-4.889-6.898-7.17-1.304-1.304-3.042-2.282-4.617-3.205-1.63-.924-3.423-1.63-4.998-2.445-4.237-2.281-8.583-4.237-13.58-3.585-1.141.163-2.281.489-3.476.761-1.413.271-2.173-.272-2.065-1.793 0-.543 0-1.141.109-1.629.76-9.506-1.955-17.763-8.582-24.607-2.662-2.716-5.27-5.215-8.963-6.247-1.521-.49-3.205-2.934-3.042-4.074.163-1.901.38-3.694.76-5.487.924-4.345 1.793-8.69 2.825-12.928.869-3.585 1.792-7.061 2.553-10.592.38-1.63-.163-3.477.543-4.726 1.684-2.825 1.304-6.03 1.901-8.963 1.032-5.378 2.064-10.864 3.477-16.133.163-.76.108-1.521.108-2.281 0-.76-.108-1.413 0-2.065.544-2.824 1.304-5.54 1.956-8.42.76-3.584 1.521-7.17 2.064-10.863.38-1.684.489-3.477.489-5.27 0-1.683-1.304-2.552-3.042-2.335-2.933.272-5.921.489-8.963.489-4.128.108-8.419-.109-12.656-.163-4.889 0-9.887.271-14.83-.109-1.901-.108-3.694 0-5.486.163-1.793.109-3.748.489-5.378 0-2.662-.869-5.215-.271-7.713-.38-1.956-.109-4.074.38-5.867-.109-1.793-.38-3.205-.76-4.237.163-.923-.163-1.521-.38-1.956-.38-1.412.109-2.824.38-4.236.38-1.521 0-3.096-.163-4.617-.163-1.684 0-3.477.109-5.27.163-1.412 0-2.933-.163-4.454-.108-2.173.163-4.346.543-6.518.543-4.074.108-8.04 0-12.005 0-1.63-.109-3.205-.272-4.835-.163-4.345.108-8.799.38-13.091.489-2.335 0-4.617-.49-6.898-.49-5.867.11-11.679-.162-17.546 0-3.205.11-6.301.164-9.452.164-3.965 0-8.039-.109-12.004 0-3.585.108-7.279.489-10.919.543-.38.109-.76-.163-1.14-.272-2.282-.488-4.455-1.249-6.79-.76-.87.109-1.793.109-2.662.109h-6.681c-4.509.163-9.072.38-13.58.488h-4.618c-2.824 0-5.758.11-8.691.11-4.726.108-9.452.65-14.069.162-4.346-.489-8.582.76-12.711-.38-.163 0-.38.108-.543.163-3.042 1.032-6.138.38-9.234.271a9.159 9.159 0 0 0-1.793-.163c-3.965.163-7.931.544-11.896.544-6.41-.109-12.819-.652-19.229-.76-3.422-.11-6.791.38-10.104.488-2.064 0-4.345.923-5.921-1.901-.652 2.173-2.064 1.955-3.585 1.901-3.422 0-6.899.163-10.266.109-1.793 0-3.586-.272-5.27-.272-2.933 0-5.866.109-8.691.109-2.444 0-4.834-.272-7.17-.272-3.748.109-7.66.272-11.407.38-2.825 0-5.758-1.032-8.474.76-1.63 1.033-2.662 2.445-2.065 4.238.761 2.173 1.685 4.237 2.282 6.518.924 3.042 1.684 6.138 2.336 9.235.652 3.096.869 6.246 1.52 9.343.653 2.933 1.63 5.758 2.282 8.582 1.141 4.617 2.282 9.235 3.314 13.96.652 3.097 1.14 6.302 1.9 9.452 1.413 6.138 3.097 12.168 4.618 18.306 1.141 4.726 2.173 9.506 3.314 14.232.38 1.793 1.032 3.585 1.52 5.378.49 1.955-.162 2.661-2.28 2.444a37.739 37.739 0 0 1-3.477-.489c-5.65-.869-10.484 1.63-15.373 3.694-.163.109-.271.272-.489.38a452.165 452.165 0 0 0-6.246 5.215c-.544.489-1.141.869-1.521 1.412-2.282 3.205-4.455 6.519-6.519 9.724-.163.271-.272.651-.38 1.032-.87 2.824-1.25 5.866-2.662 8.419-1.956 3.748-1.14 7.714-1.684 11.516-.163 1.413-.271 1.521-1.52 1.413-3.423-.272-7.008-.761-10.376-.272-3.965.543-7.93 1.901-11.896 3.205-1.14.38-2.064 1.629-3.314 1.955-4.834 1.902-7.659 5.758-10.646 9.506-1.141 1.304-2.064 2.934-2.553 4.509-1.304 4.128-3.205 8.202-3.205 12.711.108 3.422-.163 6.79.271 10.103.38 2.825 1.413 5.487 2.445 8.203 1.955 5.269 4.997 9.995 9.995 13.037 1.684 1.032 1.684 2.281 1.14 3.748-2.064 5.377-3.422 10.864-3.042 16.676.163 3.422.38 6.899 1.902 9.995 1.032 2.281 2.335 4.454 3.585 6.681.38.652.652 1.521 1.25 2.173 1.9 1.901 4.073 3.585 5.866 5.541 3.422 3.856 8.093 5.377 12.385 7.713 2.553 1.413 5.758 1.793 8.69 2.716 3.966 1.25 8.04.652 12.06.38 5.921-.488 11.625-2.335 17.002-4.888 1.63-.761 3.097-.381 4.129.543 1.955 2.173 4.074 4.454 6.41 6.138 3.204 2.336 6.898 4.074 10.103 6.301 4.454 3.042 9.452 4.454 14.449 5.649 5.921 1.413 12.276 1.956 18.469.381 1.63-.489 2.553.108 2.933 1.792.924 3.748 1.902 7.659 2.934 11.408.869 3.041 1.792 5.92 2.661 8.854.272 1.249.489 2.444.652 3.693.109.652.109 1.304.272 1.956.651 2.173 1.412 4.346 2.064 6.627 2.064 7.931 4.237 15.862 6.301 23.792.869 2.934.489 3.422-2.553 3.477-5.269.108-10.592.271-15.861.543-3.857.272-7.714.76-11.625 1.032-3.694.272-7.442.38-11.136.652-2.661.271-5.269.652-8.039.923-4.617.489-9.235.652-13.852 1.141-7.333.761-14.72 1.63-22.054 2.336-5.65.652-11.407 1.032-17.165 1.901-3.313.38-6.627 1.412-9.886 2.173-3.096.652-6.247 1.304-9.235 1.955-4.617.924-5.92 3.694-3.857 7.66 1.793 3.476 3.314 7.061 4.835 10.755 1.032 2.553 2.282 4.617 5.378 5.269 4.074.76 8.093 1.901 12.167 2.825 1.413.271 2.825.488 4.238.651 2.716.544 5.486 1.141 8.31 1.63 3.206.652 6.41 1.304 9.507 1.956 1.955.38 3.856.923 5.866 1.249 3.096.489 6.247.652 9.343 1.141 5.921.652 11.896 1.521 17.926 2.281 3.313.38 6.627.652 9.886.924 1.304.163 2.445.543 2.662 2.064.163 2.173.271 4.454.271 6.627.109 3.205.109 6.41.109 9.614.109 1.033.163 2.173 1.521 2.336 1.304.163 1.901-.869 2.282-1.901.488-1.63 1.412-1.684 2.824-1.412 7.551 1.14 15.101 2.444 22.76 3.422 4.998.652 9.995.923 15.101 1.304 5.758.38 11.407.76 17.165 1.032 3.314.108 6.628 0 9.995 0 1.63 0 2.662-.761 2.662-2.553 0-4.835 0-9.724-.109-14.613-.163-6.627-.543-13.308-.869-19.989-.108-1.413-.869-2.934-.489-4.129.761-2.335.381-4.726.381-7.061.108-.924.271-1.902.489-3.205 1.901 1.629 1.792 3.096 1.52 4.617-.543 3.096-.271 3.476 2.934 3.857 1.412.108 2.064.652 1.955 2.281-.108 3.314.109 6.627.109 9.886.109 5.107.109 10.213.109 15.373 0 4.128-.109 8.311.108 12.439.163 6.79.489 13.58.761 20.37.108 1.25 0 2.553-.163 3.749-.109.488-.652 1.14-1.141 1.249-1.412.163-2.716.271-4.128.271-6.627-.38-13.2-.76-19.827-1.14-5.867-.38-11.625-.543-17.437-1.141-4.509-.38-8.963-1.304-13.471-1.793-2.336-.162-4.835-.108-7.062.381a1.846 1.846 0 0 0-.489 3.476c1.249.761 2.662 1.413 4.074 1.521 5.378.652 10.647 1.141 16.025 1.63 3.041.163 5.921.271 8.963.489 6.246.489 12.439.923 18.686 1.303 5.54.272 11.135.381 16.622.652 7.17.272 14.232.761 21.402 1.141 5.486.163 10.864.163 16.296.38 3.585.109 7.279.489 10.864.489 3.585 0 7.279-.38 10.918-.543.761-.109 1.521.108 2.282.108 3.585.272 7.061.544 10.646.761.272.109.652-.163 1.032-.163 1.684-.38 3.477-.869 5.269-.923 4.835-.272 9.615-.381 14.45-.652 2.172-.109 4.345-.163 6.627-.272 7.007-.38 13.96-.76 20.967-1.249 5.758-.381 11.407-.924 17.165-1.521 4.074-.38 8.203-.761 12.277-1.304s8.093-1.304 12.167-1.955c2.662-.381 5.65 1.901 5.921 4.508.544 4.346 2.825 7.17 6.79 8.854 3.042 1.304 6.247 1.032 9.344.761 2.281-.163 3.585-1.901 4.888-3.585.761-1.032 1.901-1.141 3.042-.761a892.147 892.147 0 0 1 9.126 3.096c2.716.924 5.486 1.956 8.202 2.825 2.445.761 4.998 1.304 7.334 2.064 3.856 1.304 7.55 2.716 11.298 3.966 1.304.489 1.63 1.14 1.63 2.335-.109 1.304-.163 2.716.108 3.966 1.902 6.898 5.541 8.474 11.897 8.854 4.725.272 8.799-1.521 11.787-5.215 1.304-1.629 2.825-2.064 4.889-1.684 1.792.381 3.748.544 5.486.109 2.716-.652 5.378-1.684 8.04-2.825 4.454-1.901 8.691-4.128 12.711-6.79 1.684-1.032 3.856-1.412 5.268-3.205.761-1.032 2.336-1.303 3.423-2.172 1.303-1.25 2.661-2.554 3.748-3.966a36.593 36.593 0 0 0 3.096-4.834c.163-.381-.108-1.141-.271-1.684-.109-.489-.489-.924-.652-1.521-.869-3.477-2.553-6.41-5.215-9.072-1.793-1.901-3.314-3.856-5.541-5.377-1.141-.869-2.281-1.63-3.585-2.065-1.629-.543-3.314-1.032-4.509-2.064-2.933-2.553-5.649-5.486-8.473-8.093-.87-.761-1.956-1.25-2.934-1.902-2.335-1.629-4.617-3.313-7.061-4.617-1.521-.869-3.097-1.303-4.726-1.684-5.867-1.412-11.625-3.042-17.437-3.965a173.123 173.123 0 0 0-18.415-1.793c-6.627-.163-13.199-.108-19.446 2.553-1.521.652-2.716 0-2.825-1.629-.108-1.956.163-3.857.381-5.867.108-.489.271-.923.271-1.303-.109-2.662-.38-5.215-.489-7.823 0-2.064 1.032-3.693 2.662-3.965 4.889-.869 9.832-1.63 14.829-2.336 6.627-1.032 13.2-1.901 19.827-2.933 5.378-.869 10.756-1.956 16.133-3.042 3.042-.543 6.03-1.249 9.072-1.901 1.629-.38 3.205-.652 4.726-1.141 3.313-1.141 7.55-.76 8.799-5.378 0-.108.109-.108.109-.163 1.141-2.172 2.281-4.345 3.205-6.518a26.086 26.086 0 0 0 1.412-5.378c.163-.651 0-1.792-.543-2.281-.923-.761-2.173-1.521-3.422-1.793a183.745 183.745 0 0 0-11.136-2.281c-2.824-.489-5.758-.761-8.582-1.141-6.682-.923-13.309-1.901-19.881-2.662-4.835-.651-9.724-1.032-14.613-1.52-.76-.109-1.52 0-2.335 0-4.998-.381-10.104-.87-15.101-1.141-4.455-.163-8.963-.109-13.417-.163-2.173 0-4.346-.163-6.519-.163-1.792 0-3.585.109-5.377 0-4.074-.109-8.04-.163-12.06-.272-1.955 0-2.662-.869-2.173-2.824.869-3.205 1.63-6.41 2.336-9.615 1.304-5.541 2.445-11.136 3.749-16.676l-.326.489Zm51.06-209.242c1.793.924 3.586 1.956 4.835 3.422 2.281 2.553 4.237 5.27 6.138 8.094.869 1.25 1.032 3.042 1.304 4.509.76 3.205 1.412 6.41 2.064 9.614.543 2.825-.543 5.487-1.141 8.203-.163.76.381 1.901.924 2.336.489.38 1.684.162 2.281-.163 4.237-3.477 8.963-3.042 13.689-1.793 1.792.489 3.422 1.412 5.106 1.793 4.237 1.032 7.279 3.856 9.995 7.061 5.215 6.03 8.419 13.037 10.103 20.859.163 1.249-.271 2.716.109 3.857 1.412 4.237-.543 8.094-1.521 12.005-.489 1.792-2.173 3.422-3.476 4.997-.109.163-1.033.109-1.304-.163-.924-.652-1.684-1.412-2.444-2.281-1.413-1.63-3.423-1.956-4.835-.869-.923.76-1.25 1.629-.163 2.444 1.141.869 2.282 1.63 3.314 2.553 1.684 1.521 1.52 2.662-.272 4.074-.761.652-1.793 1.684-1.684 2.444.163 1.413 1.63 1.684 2.933 1.63 1.63-.109 1.902.761 1.684 2.173-.163 1.249-.163 2.553-.163 3.748-.109 1.249.652 1.955 1.902 2.173 1.303.163 1.683-.761 2.172-1.901.924-2.716 1.25-5.378.869-8.311-.163-2.173 1.25-2.825 3.423-1.902 4.834 2.336 8.093 6.247 10.755 10.756 1.304 2.173 2.553 4.454 3.313 6.898.924 2.934 1.521 6.139 1.793 9.235.272 3.857.163 7.713-.109 11.624-.108 1.684-.923 3.477-1.629 5.215-.869 2.282-1.63 4.509-2.716 6.681-1.141 2.282-2.662 4.346-4.129 6.41-1.032 1.521-2.444 2.716-3.585 4.129-3.693 4.454-8.202 7.659-13.58 9.723-4.237 1.684-8.311 3.313-12.711 3.313a49.33 49.33 0 0 1-9.832-.651c-1.629-.272-2.933-1.684-4.454-2.336-2.825-1.413-5.758-2.662-8.691-3.857-.923-.38-1.63.109-1.304 1.141.163.76.761 1.629 1.304 2.173 1.141.923 2.553 1.792 3.748 2.716.272.271.271.76.489 1.249-.381.109-.869.489-1.249.38-1.033-.163-1.956-.543-2.825-1.032-1.956-.923-4.074-1.521-5.486-3.585-.869-1.249-2.282-2.173-3.586-3.042-1.303-.869-2.553-.163-2.716 1.412-.163 1.63.489 2.825 1.684 3.857 1.413.924 1.521 2.336.489 3.422-3.042 2.934-5.866 6.138-9.343 8.311-2.933 1.793-6.627 2.553-10.103 3.097-4.074.651-8.311.923-12.277-.381-2.716-.869-5.486-1.955-8.039-3.313-2.336-1.304-2.553-2.825-1.956-5.487 1.304-5.92 2.336-11.896 3.585-17.817.489-2.335 1.304-4.617 1.902-7.007.162-.543.38-1.249.489-1.792.869-3.097 1.629-6.247 2.552-9.452.544-2.064 1.956-3.314 3.966-3.966 1.793-.651 3.476-1.521 5.269-2.064 1.901-.543 3.857-.76 5.758-1.303 1.141-.272 2.173-.87 3.314-1.304-1.141-2.553-2.282-3.205-4.455-2.716-3.422.869-6.681 1.684-9.995 2.662-1.792.488-2.444.108-2.172-1.793.38-2.173.923-4.454 1.629-6.627.761-3.042 1.793-6.138 2.553-9.234.652-2.554 1.032-5.215 1.684-7.823.38-1.521 1.032-3.042 1.521-4.508.652-2.064 1.304-4.237 1.956-6.301.543-2.173 1.629-3.205 3.748-3.477 3.422-.38 6.681-.108 9.832 1.304l.869.272c6.79 1.52 11.027 5.92 14.069 12.004 1.249 2.445 2.716 3.205 5.269 2.173 3.748-1.521 7.279-.923 10.755 1.032 2.662 1.63 4.237 1.412 5.758-.38 1.032-1.032.869-1.956-.38-2.553-4.074-1.684-7.931-3.694-12.385-3.966-1.141-.108-2.173.272-3.205.272-1.304 0-2.336-.543-3.042-1.901-1.521-2.825-3.476-5.269-6.138-7.17-1.412-1.032-2.716-2.445-4.237-3.314-2.662-1.521-5.758-1.955-8.8-2.173-2.825-.163-5.758.109-8.582.381-2.282.163-2.825-.163-2.337-2.554.544-2.933 1.63-5.866 2.065-8.799.543-4.129 2.064-8.04 3.476-11.897.543-1.683.489-3.693.652-5.54.163-.924.543-1.956.761-2.933.489-1.521 1.032-2.934 1.303-4.455.869-4.834 1.413-9.614 2.336-14.449.272-1.955 1.249-3.857 1.684-5.866a253.648 253.648 0 0 0 1.793-9.235c.651-4.454.76-8.963 2.824-13.091 1.032-1.956 1.413-2.281 3.314-1.304h-.055ZM117.206 85.988c1.684-.272 3.422-.109 5.486-.109 3.097-.163 6.627-.38 10.104-.543h5.215c9.126-.108 18.305-.108 27.54-.163 6.41-.108 12.928-.163 19.338-.38 5.215-.109 10.375-.38 15.59-.543 3.422-.109 6.79-.109 10.212-.109 5.215 0 10.375.163 15.59.163 5.541-.109 11.244-.38 16.785-.489 10.103-.163 20.207-.271 30.311-.489 6.301-.163 12.656-.38 18.957-.488 3.857 0 7.714.271 11.625.163 7.007-.11 14.069-.49 21.13-.544 4.129-.108 8.311.109 12.44.163 1.901 0 3.694-.163 5.54-.271 3.314 0 6.682.108 9.995 0 5.269 0 10.647-.163 15.97-.272 3.477-.109 6.899 0 10.376 0 4.997 0 9.994-.109 14.992-.163 2.335 0 4.726-.109 7.17-.109 1.412 0 2.064.76 1.793 2.173-.163.924-.38 1.956-.869 2.716-.381.543-1.25 1.25-1.902 1.304-3.096.163-6.301.38-9.451.489a129.54 129.54 0 0 1-6.41.163c-2.825 0-5.758-.109-8.583 0-2.444 0-4.888.163-7.333.163-4.074-.109-8.094-.272-12.168-.272-7.278.109-14.612.272-21.999.38-7.442.109-14.993 0-22.435 0-6.41.109-12.819.163-19.175.272-6.627.109-13.091.272-19.718.272-10.918.162-21.782.162-32.755.38-7.442 0-14.884.163-22.38.271-11.298.163-22.651.38-34.058.49-4.455.108-8.855 0-13.309.108-6.029 0-12.059.109-18.089.163-6.301 0-12.656.109-18.957.163h-15.373c-1.249 0-3.477-2.336-3.096-3.585.271-.652 1.249-1.521 1.955-1.63l-.054.163Zm253.892 44.651c-4.236.109-8.419.543-12.656.652-11.625.163-23.195.163-34.711.272-8.854.108-17.762.38-26.508.489-4.997.108-9.886-.109-14.884 0-4.617.108-9.234.488-13.851.543-5.487.108-10.919 0-16.296 0-4.726 0-9.452-.109-14.178-.109-5.378 0-10.864 0-16.242.109-6.409.108-12.819.38-19.175.489-6.138.108-12.167 0-18.306.108-5.106 0-10.212.109-15.372.163-8.691.163-17.383.489-26.128.652-4.509 0-9.072-.109-13.58-.163-2.662 0-4.726-2.281-4.726-4.889v-3.965c-.109-.38 0-.923-.272-1.141-1.684-1.901-1.52-4.345-2.172-6.518-.924-3.422-1.63-6.79-2.445-10.267-.869-3.096-.271-3.748 3.096-3.856 4.618-.109 9.235-.489 13.852-.544 7.714-.108 15.373 0 23.141-.108 7.17-.109 14.34-.381 21.51-.489 5.378-.109 10.864.108 16.242.108 8.474-.108 17.002-.271 25.476-.38 6.627-.108 13.309-.38 19.881-.489 5.65 0 11.244.163 16.894.109 7.442 0 14.883-.272 22.38-.38 4.074 0 8.093.108 12.167.108 6.03-.108 12.059-.163 18.035-.271 4.888-.109 9.832-.109 14.721-.109 3.965-.108 8.039-.163 12.004-.271 8.311-.109 16.622-.272 24.933-.381 8.854-.108 17.763-.108 26.726-.163 1.901-.108 3.748-.108 5.649-.271 3.042-.163 3.748.543 3.205 3.422a1981.377 1981.377 0 0 1-3.857 17.274c-.38 2.173-.923 4.237-1.412 6.301-.761 3.422-1.63 4.128-5.215 4.128h-5.214v-.108c-4.129 0-8.42-.109-12.657 0l-.055-.055Zm-27.377 186.155v.381c-6.138 0-12.385-.109-18.577.108-8.04.163-16.133.544-24.173.869-4.128.109-8.202.109-12.385.109-7.659.109-15.264.109-22.923.272-6.138.108-12.385.543-18.578.652-7.333.163-14.612.108-21.999.271-4.128 0-8.202.272-12.385.38-7.333.109-14.721.109-22 .163h-14.884c-.488 0-1.14 0-1.303-.271-.543-.652-1.032-1.413-1.141-2.173 0-.272 1.141-.923 1.793-1.032 11.027-.163 22.162-.272 33.298-.489 6.301-.109 12.656-.38 18.958-.38 9.886-.163 19.718-.109 29.55-.272 8.582-.109 17.165-.489 25.747-.652 8.583-.163 17.166-.163 25.748-.271 4.129-.109 8.203-.272 12.385-.381 4.835-.108 9.615 0 14.449-.108 4.129-.163 8.42-.489 12.657-.652.38 0 .761-.109 1.032-.109 1.25 0 2.444.272 2.281 1.684-.162.761-1.303 1.684-2.172 1.901-1.684.272-3.585 0-5.378 0Zm4.074 14.341c-.76 2.662-1.521 5.215-2.553 7.659-.38.761-1.63 1.249-2.444 1.63-.544.163-1.304-.109-1.902-.109-5.377.163-10.646.38-16.024.489-5.378.109-10.647.109-16.025.163-3.096 0-6.246.163-9.342.163-7.714.163-15.482.271-23.195.38-5.487 0-10.864-.163-16.296-.163-3.748 0-7.659.272-11.407.38-4.835.163-9.724.163-14.504.272-6.41.163-12.82.489-19.229.652-10.213.38-20.262.652-30.474 1.032-3.857.109-4.237.109-5.486-3.585-.652-2.064-.924-4.346-1.25-6.519-.271-1.249.381-1.901 1.684-1.901 2.445.109 4.998.272 7.442.272 4.074-.109 8.094-.272 12.168-.38 4.454-.109 8.963.108 13.417 0 5.921-.163 11.896-.544 17.926-.652 3.205-.163 6.518-.109 9.832-.109 8.093-.163 16.295-.272 24.552-.543 9.072-.163 18.198-.543 27.269-.652 6.03-.163 12.059.109 18.089 0 7.17-.109 14.232-.38 21.347-.652 4.618-.108 9.344-.38 13.961-.652 2.173-.163 3.096.869 2.553 2.825h-.109Zm.489-86.043c-4.889.108-9.832.163-14.721.271-8.691.163-17.274.489-25.965.652h-13.58c-2.662 0-5.269.272-8.039.272-6.519 0-13.092-.109-19.61 0-2.553 0-5.106.271-7.659.271-5.649.163-11.244.381-16.893.489-6.628.109-13.309-.163-19.882.544-3.422.38-6.898-.109-10.375-.109-1.521 0-2.933.109-4.454.109-5.269 0-10.484-.109-15.753 0-4.128 0-8.419.488-12.656.488-4.455.109-8.8-.108-13.2-.162-2.445 0-4.889-.001-7.334.162-2.716.163-4.725-1.792-4.888-4.454-.163-2.444-.924-4.997-1.521-7.442-.761-3.096-1.63-6.138-2.336-9.125-.272-1.413.652-2.173 2.064-2.282 10.864-.163 21.619-.38 32.429-.543 2.933-.109 5.921 0 8.854 0 6.138 0 12.385-.109 18.469-.163 13.852-.163 27.649-.272 41.501-.543 7.17-.109 14.34-.381 21.511-.489 3.856-.109 7.822.108 11.787.108 8.691-.108 17.383-.162 26.128-.38 8.42-.108 16.894-.163 25.368-.38 4.237 0 8.473-.272 12.71-.38 5.215-.109 10.484-.272 15.645-.38 1.521 0 2.933-.163 4.346-.163 1.792.108 2.552.869 2.172 2.661-.869 3.694-1.901 7.279-2.716 10.919-.489 2.172-.869 4.454-1.249 6.681-.272 1.956-1.141 2.933-3.096 2.933-5.758.272-11.516.272-17.165.489l.108-.054Zm21.782-34.982c-7.713.108-15.481.108-23.14.271-3.857.109-7.714.489-11.625.543-2.281.109-4.508-.108-6.79-.108-5.106 0-10.212.108-15.372.163-5.867.108-11.679.163-17.546.38-8.474.163-16.893.489-25.367.543-10.104.109-20.207.163-30.311.163-6.681 0-13.471-.108-20.207 0-8.311.163-16.513.489-24.715.761v.163h-24.064c-6.899 0-13.798.108-20.751.108-.76 0-1.521-.108-2.281-.163-2.173-.271-3.422-2.824-2.173-4.508.272-.38 1.141-.489 1.793-.543 11.135-.163 22.271-.272 33.407-.489 6.518 0 13.037 0 19.555-.109 11.407-.109 22.76-.38 34.059-.543 6.898-.109 13.851-.163 20.75-.272 4.454 0 8.854.163 13.2.163 5.486-.108 10.864-.271 16.296-.38 8.854-.109 17.817-.272 26.725-.38 6.302-.109 12.657-.272 18.849-.272 4.726 0 9.343.272 13.961.163 3.693 0 7.333-.38 11.027-.489 3.965-.108 8.039-.108 12.004-.163 1.902 0 3.694-.108 5.541-.163 1.25-.108 2.662-.271 3.042 1.413.272 1.303-1.412 3.693-2.716 3.748-1.141.108-2.173-.109-3.205-.109l.054.109Zm-234.663 66.976c-4.617-.108-9.234-.108-13.688-.76-3.748-.652-7.279-2.173-10.919-3.205-1.14-.38-2.335-.652-3.476-1.141-4.889-2.281-9.126-5.377-13.417-8.691-.76-.543-.76-2.173-.87-3.422-.108-.489.38-1.141.49-1.684.38-1.684-.164-2.336-1.902-2.281-2.336.163-4.237 0-4.997-2.825-.49-1.63-1.793-2.282-3.585-1.793-1.522.381-2.282 1.684-1.63 3.097.38 1.032 1.032 2.064 1.63 3.042.651 1.032.543 1.901-.544 2.281-2.335.76-4.617 1.793-7.007 2.064-3.476.543-7.007.869-10.375.761-4.509-.272-9.072-.652-13.2-2.662-3.042-1.304-6.41-1.901-8.962-4.346-3.966-3.856-8.312-7.333-10.593-12.711-.76-1.792-1.901-3.422-2.444-5.269-1.413-4.454-2.065-9.071-1.25-13.688.38-2.065 1.521-4.074 2.444-6.41 2.065 2.336 2.282 4.617 2.065 7.007-.109 2.064.869 3.585 2.173 4.889 1.14 1.032 2.553 1.304 3.748.38 1.249-.869.651-2.064.163-3.205-.38-.923-.924-1.901-1.141-2.824-.109-1.032-.163-2.445.272-3.314.923-1.629.76-3.042.38-4.454-.76-2.336-.652-3.205 1.249-4.726 1.032-.869 1.412-1.793 1.032-2.933-.271-.761-.869-1.684-1.303-1.793-.87-.163-2.173 0-2.662.543a30.2 30.2 0 0 0-3.096 5.65c-.49 1.14-.924 1.629-1.901.923-3.042-2.064-6.139-3.965-7.823-7.442-.923-2.064-2.444-3.856-3.585-5.921-1.901-3.422-2.281-7.17-2.281-10.918 0-4.997.108-10.104 2.716-14.503 2.064-3.423 4.237-6.899 6.898-9.995 2.825-3.423 6.138-6.519 10.593-7.822 4.454-1.304 8.854-2.553 13.58-1.902 3.096.544 3.856 1.304 4.725 4.455.38.923 1.304 2.064 2.282 2.553.76.38 2.336.271 2.825-.272.543-.543.543-1.956.38-2.933-.38-1.956-1.304-3.857-1.52-5.867-.381-5.378.108-10.755 1.9-15.861 1.14-3.097 1.684-6.627 4.129-9.126 1.52-1.63 3.041-3.096 4.345-4.726 3.205-3.857 7.55-5.921 12.06-7.659 4.073-1.521 8.31-1.249 12.547-.109 1.901.489 2.553 2.173 2.933 3.857.761 3.205 1.25 6.301 1.956 9.506.543 2.173 1.63 4.346 2.064 6.627.924 4.509 1.684 9.126 2.662 13.689.271 1.629 1.141 3.205 1.63 4.834a1449.675 1449.675 0 0 0 5.214 22c.652 2.933 1.63 5.866 2.553 8.691.544 1.521.272 2.336-1.303 2.553-2.064.272-4.129.543-6.247.869-3.694.544-6.627 2.716-8.854 5.378-2.282 2.553-4.835 3.314-7.931 3.096-2.553-.108-4.998.381-7.062 1.793-.652.38-1.684 1.303-1.52 1.684.271.869 1.031 2.173 1.792 2.281 1.63.38 3.422.109 5.106.109.652 0 1.304 0 1.956.108-.163.761-.11 1.793-.544 2.282-1.52 1.63-.869 3.476-.869 5.215 0 .38 1.14 1.14 1.792 1.249 1.304.163 2.717.272 3.423-1.304.76-1.792 1.63-3.585 2.336-5.377.543-1.304 1.52-1.902 2.933-1.902 2.825.109 3.313-.543 2.933-3.422-.163-.76.109-2.064.652-2.553 3.042-2.336 6.138-4.508 10.375-3.965 2.336.271 3.314 1.032 3.966 3.422 1.629 6.301 3.313 12.711 4.888 19.066 1.304 5.106 2.553 10.267 3.966 15.373 1.792 6.681 3.694 13.308 5.486 19.881 1.304 4.998 2.662 9.995 3.965 14.993.652 2.716 1.413 5.54 2.173 8.311.544 1.901-.543 3.422-2.933 3.313l.054-.109Zm17.654 19.23c-1.521-5.378-3.096-10.864-4.617-16.296-.76-2.934-1.249-5.921-1.955-8.963-.543-2.064-1.413-4.128-2.064-6.247-.544-1.793-1.304-3.476-1.684-5.269-1.63-7.007-3.097-14.069-4.726-21.022-.652-2.553-1.521-4.997-2.173-7.55-1.032-4.129-1.956-8.203-3.042-12.385-.272-1.304-.761-2.716-1.141-4.129-1.249-4.997-2.444-9.995-3.748-14.992-.869-3.096-1.901-6.138-2.716-9.235-.76-3.096-1.412-6.138-2.173-9.125-.76-3.042-1.684-5.867-2.444-8.854-.761-3.042-1.413-6.139-2.173-9.126-.489-1.901-1.032-3.694-1.412-5.541-.87-3.694-1.63-7.442-2.445-11.244-.543-2.336-1.412-4.617-1.955-7.008-.544-2.281-.761-4.617-1.304-7.007a86.71 86.71 0 0 0-2.281-7.55c-.544-1.684-1.521-3.314-1.141-5.269.163-.761-.489-1.793-.76-2.662-1.141-3.748-2.336-7.442-2.554-11.407-.108-2.064-.76-4.129-1.14-6.139-.544-2.661-1.141-5.377-1.793-7.93-.652-2.553-1.521-5.106-2.281-7.66-.11-.543-.163-1.249-.272-1.9-.652-3.206-1.412-6.302-2.064-9.507-.38-1.792-.652-3.476-1.14-5.214-.544-1.956-1.25-3.966-1.793-5.921-.38-1.684-.652-3.477-1.032-5.27-.924-4.454-2.065-8.8-2.934-13.308-.651-2.824-.869-5.758-1.412-8.582-1.032-4.455-2.173-8.854-3.205-13.417a33.118 33.118 0 0 1-.76-5.107c-.163-1.683.923-2.335 2.444-2.335 1.25.108 2.662-.109 3.042 1.684A475.029 475.029 0 0 0 93.25 30.58c1.14 5.215 2.444 10.376 3.585 15.482 1.032 4.237 1.955 8.42 2.933 12.548 1.413 6.03 2.933 12.167 4.346 18.197.38 1.412.38 2.933.652 4.454.651 2.825 1.521 5.758 2.281 8.583 2.662 10.212 5.269 20.261 7.931 30.473.543 2.336.76 4.726 1.412 7.008 1.901 7.333 3.966 14.612 5.867 21.999 1.304 5.106 2.444 10.213 3.748 15.264.38 1.684 1.032 3.423 1.521 5.106-.109 0-.163.109-.38.109.489 1.956.76 3.965 1.303 5.921 1.032 4.346 1.902 8.854 3.423 13.091 1.684 4.835 1.955 9.832 3.585 14.612 1.032 3.097 1.955 6.247 2.824 9.452.652 2.444 1.032 5.106 1.684 7.659.489 1.956 1.304 3.966 1.793 5.921.489 1.684.652 3.477 1.14 5.215 1.63 5.649 3.423 11.244 4.889 16.893 1.141 4.509 1.956 9.126 3.097 13.689.869 3.585 1.955 7.17 2.933 10.755 1.955 7.551 3.857 15.101 5.867 22.652 1.683 6.518 3.476 12.928 5.214 19.338 1.249 4.997 2.336 9.995 3.585 14.992.924 3.857 1.956 7.659 2.934 11.407.488 1.684-.109 2.662-1.902 2.716-2.824.272-4.725-1.52-5.106-4.345-.271-1.901-.923-3.748-1.303-5.649-.381-1.413-.652-2.825-1.032-4.237-1.25-4.726-2.445-9.343-3.694-13.961a1299.556 1299.556 0 0 0-5.215-19.555l-.109-.054Zm-37.1 85.934-.272-.271c-.272 0-.543-.109-.869-.109-3.857-.38-7.659-.76-11.516-1.304-3.042-.38-6.138-1.032-9.126-1.412-5.106-.652-10.212-1.032-15.264-1.793-2.933-.38-5.92-1.249-8.854-1.792-.163-.109-.489-.109-.652-.272-.543-.489-1.14-1.032-1.683-1.521.76-.108 1.52-.38 2.28-.271 6.248.869 12.44 1.684 18.687 2.661 2.444.272 4.834.761 7.279 1.032 6.301.761 12.657 1.521 18.958 2.282.38 0 .76-.109 1.032 0 .869.38 1.629.869 2.336 1.249-.761.543-1.522 1.141-2.282 1.63l-.054-.109Zm17.436 25.368c-1.955-.489-3.965-1.032-5.866-1.793-.652-.271-1.304-1.249-1.304-1.955-.272-4.346-.271-8.8-.543-13.092-.109-3.204-.489-6.409-.652-9.614a241.619 241.619 0 0 1-.271-10.864c0-.543.869-1.25 1.303-1.793.489.543 1.304 1.032 1.304 1.63.163 1.032-.109 2.281-.163 3.422-.489 2.716.489 3.857 3.205 3.965h4.237c1.684.109 1.684 1.521 1.901 2.662.163 1.032.109 2.173.109 3.205v3.205h.108c-.163 2.662-.489 5.269-.38 7.822 0 3.422.38 6.79.652 10.104.108 2.824-.869 3.748-3.585 3.204l-.055-.108Zm13.798 1.629c-.924-.163-1.901-.108-2.825-.271-1.955-.163-2.444-1.141-1.955-2.934.163-1.032-.272-2.172-.381-3.313a139.995 139.995 0 0 1-.271-8.311c-.109-3.477 0-6.899-.163-10.375-.163-4.617-.543-9.343-.652-13.96 0-1.141.543-2.282.869-3.423.38.109.652.109 1.032.163 0 2.064.109 4.074 0 6.138-.163 2.336.761 3.314 3.096 3.042 1.413-.163 2.716-.543 4.074-.76 1.902-.163 2.662.489 2.662 2.281.163 8.855.489 17.763.543 26.617.109 5.65-.489 6.03-5.921 5.106h-.108Zm22.76 1.956a224.194 224.194 0 0 0-6.247-.38c-3.694-.109-4.835-1.25-4.617-5.106v-.652h-.109v-15.862c0-5.649 0-11.244-.108-16.893 0-1.521-.272-3.042-.272-4.455 0-.543.543-1.032.869-1.521.38.381.923.652 1.032 1.141.163 1.412.272 2.933.272 4.454-.109 1.902.38 2.716 2.281 2.825 1.684.109 3.422-.109 4.998-.272 2.716-.488 3.694.381 3.585 3.097-.109 4.888-.272 9.886-.163 14.829.109 5.649.38 11.299.543 17.002 0 1.521-.761 1.902-2.064 1.793Zm20.098-17.926c.381 4.889.163 9.724.163 14.612 0 3.314-.652 3.966-3.965 3.966-2.282-.109-4.509-.272-6.79-.381-1.141 0-1.901-.38-2.064-1.52-.272-2.173-.489-4.346-.652-5.65 0-4.997.108-9.071 0-13.2-.163-4.617-.543-9.234-.76-13.851-.109-2.064.108-4.129.108-6.247 0-1.412-.163-2.825-.163-4.237 0-.38.489-.869.652-1.304.489.272 1.249.489 1.412.869.381.924.543 1.956.543 2.934.109 1.14-.162 2.281-.271 3.422 0 1.249 1.901 1.955 3.585 1.792 2.281-.271 4.509-.38 6.682-.488 1.249 0 1.955.76 1.901 1.901-.381 5.866-.924 11.624-.381 17.437v-.055Zm16.677.163c-.109-2.553-.272-5.106-.381-7.659 0-3.422 0-6.79.109-10.104 0-2.064.109-4.236.163-6.301 0-1.412.163-2.824.272-4.345.271 0 .651 0 .923-.109.163 1.684.923 3.477.543 5.106-.543 3.042.761 3.694 3.096 3.748 2.934.163 5.758.381 8.583.272 1.63 0 2.282.76 2.336 2.064.109 5.378.163 10.647.271 16.024.109 3.097.163 6.139.381 9.235.108 1.304-1.793 2.173-3.694 1.901-2.933-.38-5.867-.652-8.854-.652-1.684 0-2.336-.652-3.097-2.064-1.14-2.336-.543-4.834-.76-7.17l.109.054Zm16.513 14.504c-.652.489-1.249 1.14-1.901 1.249-1.141.163-2.336.109-3.477.109 0 0-.108.108-.108.163-2.716-.272-5.541-.489-8.311-.761-1.304-.108-1.956-.923-1.956-2.064 0-1.412 1.25-1.249 2.173-1.304.543 0 1.141.109 1.684.109 2.553.109 5.106.163 7.659.272.923.108 1.956-.163 2.662.163.76.38 1.14 1.412 1.629 2.064h-.054Zm-3.476 32.809c-3.205-.163-6.41-.272-9.615-.272-1.413 0-2.173-.76-2.336-1.955-.163-1.304 0-2.662 0-4.074.109-1.793.272-3.585.163-5.486-.109-2.282-.489-4.618-.543-6.899-.109-2.662-.109-5.215.109-7.822.108-1.304.923-2.064 2.444-2.064 3.748 0 7.659-.109 11.407-.163 1.412 0 2.281.543 2.281 2.064v10.755c.381 3.748.653 7.442.924 11.245.272 3.313-1.304 4.888-4.834 4.725v-.054Zm11.624-.76c-.108.38-1.141.76-1.304.543-.869-.924-2.336-1.413-2.064-3.314.761-6.627.109-13.091-.38-19.609-.272-3.748-.109-7.659-.163-11.408 0-3.204-.109-6.301-.163-9.451l-.272-5.378c-.163-3.748-.543-7.659-.76-11.407-.163-3.966-.38-7.822-.489-11.788-.109-.271-.109-.652 0-.869.163-.489.489-.869.761-1.249.271.271.652.652.76 1.032.163.489.163 1.032.163 1.412 0 .543 0 .924-.109 1.25-.869 1.901.109 2.933 1.63 3.965.761.543 1.304 1.684 1.304 2.662 0 4.997-.272 9.995-.163 14.992.108 6.79.543 13.58.76 20.37.163 6.41.109 12.711.272 19.066.108 2.173.489 4.237.543 6.41.109.924-.109 1.901-.272 2.716l-.054.055Zm2.933-40.469v-6.41c-.108-3.096-.163-6.247-.38-9.234-.109-2.825 0-5.541-.163-8.42-.272-2.824-.76-5.649-.923-8.474-.109-.869.38-1.792.651-3.042 1.413 1.304 1.684 2.553 1.63 4.074-.38 5.487-.163 5.541 4.998 5.215 3.693-.163 7.333-.163 11.026-.38 1.413-.109 1.684.76 1.684 1.792 0 2.445-.108 4.889-.108 7.334.109 5.377.163 10.864.272 16.241 0 .544-.001 1.032-.109 1.63-.163 2.336-.652 2.662-3.042 2.553-3.477-.109-7.062.109-10.593.163-.76 0-1.521 0-2.335-.109-1.793-.163-2.662-1.032-2.662-2.933h.054Zm18.035 7.062c0 .76-.381 1.684-.924 2.335-.272.272-1.141.272-1.684.272-4.074 0-8.094 0-12.168-.163-.651 0-1.901-.543-1.955-1.032-.163-1.141.489-2.064 1.901-2.173 2.336-.163 4.835-.489 7.008-.652 2.444 0 4.508-.108 6.681.109.489 0 1.303.869 1.249 1.304h-.108Zm-1.25 34.221c-1.304.163-2.661.272-3.965.381h-3.965v-.163h-4.618c-1.955.108-3.096-.869-3.096-2.825-.108-2.336.163-4.726.109-7.062 0-3.422-.272-6.681-.272-10.103 0-2.553.109-4.998.38-7.442 0-.489.924-1.249 1.521-1.304 4.128-.163 8.311-.271 12.44-.38 2.172 0 3.313 1.249 3.313 3.422 0 5.215 0 10.375.109 15.59 0 2.336.38 4.726.543 7.062.163 1.955-.489 2.716-2.445 2.933l-.054-.109Zm18.469-2.933c.109 1.63-.543 2.825-2.336 3.042a67.192 67.192 0 0 1-6.627 0c-1.304-.109-1.792-1.032-1.901-2.281v-4.998c.109-2.173.272-4.454.163-6.627-.108-2.716-.489-5.541-.489-8.311-.108-2.933 0-5.921 0-8.854 0-4.074-.109-8.094-.109-12.168 0-3.096.272-6.138.164-9.234-.163-6.899-.544-13.689-.761-20.588 0-.923.163-1.955.38-2.933.109-.38.489-.652.761-.923.271.38.651.651.76 1.032.163.489.163 1.032.163 1.629.109.272 0 .544-.109.869-.271 4.835-.271 6.628 4.835 5.758.76 0 1.249-.108 1.793 0 2.716 0 3.096.109 2.824 2.716-.543 6.41.272 12.82.38 19.23.109 7.713.001 15.481-.108 23.194 0 4.998-.163 9.887-.163 14.83 0 1.521.163 3.096.271 4.617h.109Zm8.202-65.673c3.205 0 6.41.109 9.507-.109 3.313-.163 4.237 1.25 4.128 4.455v14.992c0 2.933.163 5.758.163 8.583.108 1.412-.543 2.172-1.956 2.281-3.694.272-7.333.543-11.027.869-.489 0-.923.109-1.521.109-2.064 0-2.661-.543-2.661-2.662 0-4.237.108-8.474.108-12.711 0-1.901-.163-3.857-.38-5.866-.38-4.998-.924-9.995-1.304-14.993-.108-.543-.108-1.14.163-1.629.381-.761 1.032-1.413 1.521-2.065.489.87 1.032 1.684 1.25 2.554.108 1.412 0 2.716-.109 4.128-.163 1.629.76 2.064 2.064 2.064h.054Zm13.798 34.222c-.544.489-1.032 1.303-1.684 1.412-3.096.38-6.247.652-8.8.869-1.956-.108-3.422-.108-4.726-.38-.543-.109-.923-.924-1.412-1.412.489-.381.923-.924 1.412-1.032 4.454-.163 8.854-.381 13.417-.489.544 0 1.141.651 1.793 1.032Zm.271 30.636c-.108 1.63-.923 2.662-2.716 2.716-3.748.109-7.55.272-11.244.272-2.336 0-3.314-1.249-3.314-3.585v-4.617h-.38c0-5.867.109-11.625 0-17.437 0-1.25.543-2.064 1.684-2.173 4.509-.489 9.126-.869 13.689-1.141 1.629-.108 2.553 1.304 2.553 3.314 0 3.422.163 6.79.108 10.212 0 4.128-.163 8.311-.38 12.439Zm6.302-.489c0 .869-.489 1.793-.87 2.662h-.869c-.271-1.304-.869-2.553-.869-3.748 0-4.237.163-8.474.272-12.711.108-3.748.38-7.659-.109-11.516-.543-5.54.38-11.027.272-16.513-.163-4.726-.652-9.452-.924-14.178-.108-2.444-.109-4.889-.163-7.333 0-2.281-.108-4.617 0-6.899 0-.923.272-1.901.489-2.716.272 0 .652 0 .924.109.108 1.901 0 3.857.271 5.758.109.923.381 1.956.924 2.825 1.412 2.553.869 5.106.271 7.659-.108.652 0 1.412-.108 2.173 0 1.032.108 2.064.108 3.096 0 4.237-.108 8.582.109 12.819.109 2.445.652 4.889.652 7.279 0 3.042-.489 6.03-.544 9.126-.108 3.965-.108 8.039-.108 12.005.109 3.422.271 6.79.163 10.212l.109-.109Zm20.37-.488c0 1.629-.489 2.553-2.173 2.553-3.966.163-7.822.543-11.788.543-1.901 0-2.661-1.304-2.444-3.096.163-3.477.272-7.008.489-10.484.108-2.934.271-5.867.271-8.854 0-1.033-.38-2.065-.489-3.097-.108-2.553.489-3.205 3.042-3.422 3.422-.163 6.899-.271 10.267-.652 1.901-.163 2.553.652 2.553 2.336v10.212h.272v13.961Zm-14.613-29.442c-.543-.109-1.032-.543-1.521-.869.381-.489.652-1.249 1.141-1.304 1.032-.38 2.282-.489 3.422-.543 2.934-.272 5.867-.489 8.8-.923 1.25-.163 1.956.108 2.173 1.249.163 1.249-.76 1.412-1.684 1.521-3.422.271-6.681.652-9.995 1.032v-.163c-.76 0-1.629.272-2.281.109l-.055-.109Zm14.232-9.234c0 1.629-.652 2.281-2.173 2.444-3.693.489-7.441.923-11.135 1.521-1.521.163-2.282-.652-2.662-1.901a4.161 4.161 0 0 1-.163-1.141c.109-4.617.272-9.343.163-13.96 0-3.205-.38-6.301-.652-9.452v-1.412c-.108-2.173-.108-4.237-.163-6.41 0-.652-.38-1.521-.163-2.064.272-.761.924-1.304 1.413-1.956.38.543 1.14 1.141 1.249 1.793a17.485 17.485 0 0 1 0 4.128c-.272 2.445.272 3.314 2.716 3.314h4.617v-.272h4.998c1.792.109 2.662.923 2.662 2.716-.163 7.551-.489 15.101-.652 22.652h-.055Zm46.987 21.239c-2.661 3.585-4.074 7.55-3.965 12.005 0 3.041-.652 3.748-3.585 4.128-6.519.869-13.037 1.521-19.556 2.281-2.335.272-4.725.652-7.061.869a54.906 54.906 0 0 1-5.215.272c-2.064 0-2.553-.489-2.444-2.553 0-2.933.271-5.867.271-8.8-.108-4.128.489-8.202-.271-12.439-.543-3.042.163-6.247.271-9.452 0-3.694-.108-7.442 0-11.136 0-3.204.163-6.409.109-9.614 0-3.042-.272-6.03-.38-9.126-.109-3.585-.109-7.17-.109-10.864 0-.38.543-.761.923-1.141.163.109.489.109.652.163.109 1.901.489 3.857.272 5.758-.109 1.684.272 2.662 1.956 2.933 1.683.272 2.552 1.304 2.552 3.097-.108 6.138-.108 12.276-.162 18.414v19.175c0 1.63 1.249 1.956 2.444 1.956 4.237-.381 8.474-.652 12.656-1.141 5.27-.652 10.593-1.521 15.753-2.444 5.487-1.032 10.864-2.336 16.242-3.477 2.662-.543 5.269-.923 7.931-1.629 3.096-.652 6.138-1.521 9.126-2.445 2.335-.652 3.476-.489 3.857 1.141.76 2.281-.381 4.617-2.336 5.106-5.378 1.249-10.864 2.553-16.242 3.748-1.25.163-2.445.272-3.694.163-4.454-.38-7.659 1.63-10.103 4.997l.108.055Zm-26.725-46.77c3.205.109 6.518.109 9.723.163 3.477 0 3.857.543 3.694 3.965-.272 6.247-.381 12.44-.544 18.687 0 3.204.001 6.409-.162 9.614-.163 2.934-.761 3.585-3.694 3.857-3.694.272-7.333.543-11.027.869-1.63.163-2.173-.923-2.173-3.042.163-4.508.163-9.071.272-13.471 0-3.585.163-7.279.108-10.864 0-3.694-.163-7.442-.38-11.245-.108-1.901-.272-3.748-.272-5.649 0-.76.544-1.412.924-2.064l.869.272v3.856l-.272 1.413c-.488 2.716.272 3.585 3.042 3.585l-.108.054Zm24.444.543a34.508 34.508 0 0 1 4.726 0c1.683.109 2.172 1.032 2.064 2.662-.272 3.096-.489 6.247-.489 9.234-.109 4.998.109 9.887-.163 14.884-.163 5.106-.489 5.215-5.486 6.247-1.033.272-1.956.489-3.042.76-2.336.544-3.694-.163-4.074-2.716-.163-1.901-.163-3.748-.163-5.649.108-2.444.163-4.834.271-7.279.163-4.345.381-8.691.381-13.037 0-1.792-.761-3.585-.87-5.377-.108-2.825 0-5.541.109-8.42 0-.489.489-.923.923-1.793 1.25 1.956 1.902 3.694 1.522 5.65-.652 4.726-.49 4.889 4.236 4.834h.055Zm17.437.489c2.172-.108 3.096-1.304 3.042-3.748 0-1.304-.109-2.716 0-4.074 0-.38.38-.76.543-1.249.163.108.271.108.489.108 0 .544.162 1.032.162 1.63v28.79c0 1.249.381 2.444.164 3.585-.109.869-.489 1.955-1.033 2.444-2.444 1.793-5.377 2.662-8.419 2.336-.543 0-1.413-1.032-1.413-1.684-.108-2.553.001-5.106.109-7.659.109-3.205.109-6.519.272-9.723.163-4.237.38-8.474.543-12.711.108-.652.109-1.304-.163-1.902-1.141-2.933-1.141-3.856.543-6.898 1.956 1.629 1.521 3.748 1.63 5.649 0 .163-.109.38-.163.543-.869 3.585 0 4.617 3.694 4.509v.054Zm15.644-6.898c0-1.033.489-1.956.869-3.314 1.684 1.141 1.956 2.064 1.901 3.476-.271 2.716-.163 5.541-.38 8.311-.163 5.215-.381 10.267-.543 15.373-.109 1.63.108 3.314-.163 4.835-.163.923-.761 2.281-1.413 2.661-1.521.761-3.096 1.141-4.834 1.413-1.032.163-2.064-.163-2.064-1.793.271-5.758.108-11.679.76-17.437.38-4.345-.652-8.419-.923-12.548-.109-1.14-.109-2.173.109-3.205.108-.488.76-.76 1.14-1.14.272.38.761.76.761 1.249.163 2.173.271 4.237.271 6.41s.924 2.933 3.042 2.553c1.249-.163 1.901-.761 1.793-2.173-.163-1.521-.272-3.096-.163-4.617l-.163-.054Zm-3.422 49.322c-1.304 2.336-1.956 2.662-4.617 2.173-1.25-.272-2.445-.76-3.586-1.032-.108-.163-.108-.38-.108-.543 2.281-.924 4.508-1.902 6.898-2.662.381-.163 1.25.109 1.521.489.272.38.109 1.141-.108 1.63v-.055Zm-7.279 33.298c-1.684 1.141-3.585.924-5.269.109-1.141-.543-2.336-1.304-3.042-2.336-.924-1.303-1.521-2.933-2.173-4.454a.582.582 0 0 1 .38-.163c.163-1.141.272-2.173.544-3.205.651-2.824 3.096-4.074 6.029-3.694 3.857.652 6.681 4.509 7.062 7.823.38 2.553-1.521 4.508-3.585 5.92h.054Zm64.532 20.208c-1.032.76-2.064 1.629-3.313 2.281-.761.38-1.793.38-2.716.652-2.173-.163-5.378-2.064-6.247-4.128-.381-.87-.869-1.63-.924-2.554-.271-1.249.489-1.683 1.684-1.412 3.314.761 6.627 1.521 9.886 2.336.489.163.924.38 1.413.652 1.032.652 1.14 1.412.163 2.173h.054Zm-41.229-61.98c4.128-1.521 8.474-2.173 12.82-2.064 4.997.163 9.995.543 14.992.924 5.486.38 10.756 1.792 16.025 3.476 3.096.923 6.246 2.281 9.234 3.694 3.042 1.303 6.138 2.661 8.8 4.617 2.933 2.173 5.269 5.106 7.93 7.659 1.141 1.141 2.282 2.282 3.694 2.933 2.445 1.141 4.835 2.065 6.682 4.129 1.629 1.955 3.748 3.422 5.54 5.269 1.141 1.141 1.956 2.553 2.825 3.857.923 1.684.163 4.725-1.412 6.518-4.726 5.215-10.865 8.42-17.057 11.516-.489.163-1.032.163-1.63.38-.108-.163-.271-.38-.38-.543.652-.652 1.304-1.304 2.064-1.793 2.282-1.412 4.509-2.716 6.79-4.237 1.521-1.032 3.042-2.281 4.509-3.476.489-.38 1.141-1.032 1.249-1.63.163-.869-.108-1.792-.162-2.716-.87.109-1.902-.108-2.662.381-1.521.923-2.825 2.281-4.346 3.313a107.546 107.546 0 0 1-7.55 4.617c-2.825 1.63-5.867 2.934-8.692 4.454-.489.272-1.14 1.141-1.032 1.413.163.543.924 1.249 1.521 1.412.924.163 2.065 0 3.097 0 .76 0 1.521 0 2.281.163-2.716 3.096-6.79 3.314-9.995 4.617-1.032-.271-1.901-.76-2.716-.869-4.617-.76-9.234-1.303-13.797-2.281-4.998-1.141-9.832-2.825-14.341-5.378-2.336-1.249-5.269-1.521-7.822-2.336-4.346-1.412-8.691-2.824-13.037-4.454-2.661-.923-5.214-2.281-7.822-3.313-2.064-.761-4.237-1.25-6.301-1.902-1.63-.489-3.205-.76-4.726-1.521-.652-.271-1.304-1.303-1.304-1.955-.108-3.857-1.629-6.79-4.888-8.854-2.716-1.684-5.758-2.445-8.8-1.25-1.902.761-3.585 1.956-5.106 3.205-1.793 1.521-4.346.924-5.758-.923-2.934-4.346-1.901-8.42.489-12.44 2.553-4.128 3.965-4.725 8.691-3.422 5.649 1.684 11.407 3.422 17.056 5.106 3.694 1.032 7.334 2.064 10.919 3.205 5.649 1.901 11.244 3.857 16.893 5.758 2.553.869 5.215 1.304 7.714 2.173 5.486 1.955 10.864 4.074 16.242 6.029 4.074 1.521 8.202 2.554 11.624 5.378 1.521 1.25 2.933 2.553 4.454 3.857.38.271.761.76 1.141.76.761.109 1.792.163 2.173-.163.38-.38.38-1.521.108-2.064-.488-1.249-1.249-2.336-.488-3.694 0-.162-.652-.869-.87-.869-2.172 1.25-3.585-.271-5.106-1.521-.869-.651-1.955-1.249-2.933-1.901-1.141-1.032-2.281-2.064-3.205-3.205-2.662-3.422-5.486-6.518-8.963-8.854-.543-.38-1.303-.543-1.955-.76-1.63-.381-3.205-.652-4.726-1.141-2.662-.761-4.237 0-5.378 2.336-1.141 2.281-1.304 2.335-3.476 1.249-.489-.163-.924-.76-1.032-1.249-.272-4.998-3.314-7.442-7.822-8.692-2.825-.76-5.758-1.629-8.692-2.281-3.422-.76-5.106 0-6.681 3.096-.543 1.25-1.249 1.63-2.553 1.25-1.25-.381-2.445-.489-3.694-.761-2.281-.543-2.933-1.901-1.684-3.965 3.042-4.998 7.551-8.311 13.037-10.375v.108Zm-2.661-34.928c-.109-.271-.272-.543-.381-.869.761-.543 1.521-1.412 2.336-1.629 2.662-.544 5.486-.761 8.094-1.25 4.454-.76 8.799-1.684 13.091-2.553 3.313-.543 6.681-1.032 9.995-1.521.108 0 .271.163.923.652-11.407 3.477-22.814 5.215-34.167 7.062l.109.108Zm-24.988-25.856c5.378.109 10.864.272 16.242.489 8.202.38 16.296.76 24.553 1.304 6.627.488 13.091 1.14 19.718 1.901 6.518.869 13.036 1.684 19.555 2.716 4.346.76 8.8 1.792 13.091 2.716.489.163.924.923 1.25 1.629.869 1.793-.001 3.966-1.793 4.889-.38.163-.869.761-.869 1.141-.109 1.521-.924 1.793-2.173 1.684-4.726-.652-9.452-1.304-14.232-1.901-5.921-.761-12.005-1.413-18.034-2.065-3.205-.38-6.41-.76-9.615-.923-1.901-.163-3.694-.109-5.54-.163-6.247-.271-12.44-.652-18.795-1.032-5.487-.163-10.918-.489-16.405-.543-5.758-.109-11.624 0-17.382 0-4.074 0-8.094-.163-12.168-.163l-14.449.271c-8.203.163-16.405.272-24.716.381-3.313 0-6.627-.272-9.995-.381-3.096 0-6.301.272-9.452.272-3.422.109-6.681.163-10.103-.109-8.202-.651-16.514-.108-24.824.109-3.966.109-8.04 0-12.005 0-4.346 0-8.691-.109-13.037 0-3.422.109-6.79.489-10.212.543-4.889.163-9.886.272-14.83.38-2.933.109-5.866.109-8.799.109-3.857.109-7.714.272-11.625.489-3.748.109-7.659.38-11.407.489-2.336.109-4.835-.272-7.17-.109-8.474.652-17.166 0-25.64 1.684-.543.163-1.14.163-1.684.272-6.627.38-13.199.652-19.826 1.14-4.509.272-9.072.87-13.58 1.25-4.346.38-8.692.652-13.037 1.032-5.215.543-10.267 1.412-15.481 1.901-2.336.163-4.727-.108-7.062-.108-.543 0-1.14-.001-1.63.162-5.106 1.793-10.484 1.304-15.644 2.336-1.521.272-3.042.652-4.508.924-4.346.76-8.692 1.629-13.037 2.335-1.413.163-2.934 0-4.455 0-.923-2.444-1.9-4.834-2.824-7.278-1.141-2.445-.652-3.586 2.064-4.129a191.644 191.644 0 0 1 12.385-2.336c4.509-.869 9.072-1.521 13.58-2.172 2.282-.272 4.617-.381 7.007-.652 6.301-.543 12.711-1.25 19.175-1.901 4.455-.489 8.854-.87 13.309-1.304 3.204-.272 6.409-.761 9.614-1.141 1.25-.108 2.554.109 3.857 0 6.627-.489 13.2-1.249 19.827-1.629 6.247-.381 12.657-.489 18.958-.761 5.921-.271 12.004-.76 18.034-.923 10.375-.272 20.859-.272 31.343-.489 7.442-.163 14.883-.489 22.38-.761 6.79-.163 13.58-.271 20.37-.489 7.007-.163 13.851-.488 20.859-.543 5.377-.108 10.755.272 16.133.272 5.377 0 10.484-.163 15.753-.272 5.214 0 10.375.163 15.59 0 7.333-.271 14.611-.76 21.89-1.032 2.445-.109 4.998.272 7.443.489.543.109 1.032.543 1.303.761.869-.381 1.63-.87 2.336-.87 2.716-.108 5.54.109 8.419.109 7.334 0 14.612-.109 22 0Zm-16.622-27.16c-.923 4.128-1.793 8.474-2.825 12.711-.543 2.336-1.303 4.834-2.064 7.17-.543 1.793-2.281 2.662-3.965 2.064-1.63-.38-2.173-1.629-1.684-3.476 1.032-4.726 1.955-9.506 3.042-14.178.543-2.444 1.521-4.834 2.064-7.17.652-3.096 1.141-6.247 1.63-9.343.108-.38.108-.869.163-1.249 1.249-4.835 2.553-9.506 3.693-14.341 1.793-7.062 3.477-14.232 5.215-21.348.544-2.553 1.304-4.889 1.956-7.442.163-.76 0-1.684 0-2.553.108-1.032.163-2.064.38-3.096.163-.923.543-1.955.761-2.933.108-.38.108-.761.162-1.032 1.684-5.378 3.423-10.756 5.107-16.133.271-.87.38-1.684.543-2.553.488-2.934.869-5.758 1.521-8.583.38-1.901 1.032-3.694 1.52-5.486 1.033-3.694 2.174-7.279 2.934-10.919.76-3.476 1.032-7.007 1.684-10.375.163-1.249.652-2.444 1.032-3.694.489-1.901 1.141-3.748 1.521-5.649.489-2.281.76-4.617 1.141-6.79.38-2.336.869-4.726 1.303-7.062.163-1.032.544-2.064.87-3.096.923-3.857 2.064-7.713 3.041-11.679.652-2.716 1.033-5.54 1.684-8.419.761-3.422 1.63-6.682 1.412-10.267-.108-1.629.924-3.313 1.63-4.889.869-2.661 1.956-5.214 2.662-7.713.869-3.477 1.412-6.899 1.955-10.375.652-3.694 1.141-7.279 1.684-10.919.163-.923.489-1.792.87-2.661 1.684-3.857 2.172-8.04 2.661-12.168.489-3.694 1.304-7.333 2.064-11.027.272-1.793.761-3.585.869-5.378.163-3.313.869-6.518 2.282-9.614.652-1.63.489-3.477.869-5.27.869-4.834 1.684-9.614 2.662-14.449.543-2.933 1.032-5.92 1.792-8.854.87-4.074 1.956-8.04 2.934-12.059.163-.869-.381-1.901-.272-2.716.272-2.336.76-4.726 1.249-7.061.109-.652.381-1.304.489-2.065.272-2.335.489-2.553 2.825-2.716.543 0 1.141-.108 1.63-.108 2.064 0 2.661.652 2.552 2.824-.38 2.282-.869 4.618-1.303 7.062a561.7 561.7 0 0 1-3.042 14.884c-1.032 5.377-1.956 10.755-3.042 16.133-1.684 8.854-3.314 17.654-5.106 26.508-1.521 7.279-3.205 14.45-4.726 21.619-.38 1.63-.489 3.205-.76 4.835-.544 3.096-1.141 6.138-1.902 9.234-1.249 5.758-2.661 11.625-3.965 17.383-.869 3.476-1.793 7.007-2.662 10.592-.489 2.064-.76 4.237-1.14 6.301-1.304 6.627-2.553 13.2-4.074 19.827-1.304 6.03-3.097 12.005-4.726 18.035-.489 1.792-.544 3.748-1.033 5.54-1.14 4.726-2.335 9.452-3.476 14.178-.271 1.249-.489 2.336-.76 3.585-.544 2.662-1.25 5.269-1.793 7.931-.38 2.064-.543 4.128-1.032 6.138-.652 3.476-1.521 7.007-2.336 10.484a1822.748 1822.748 0 0 1-3.856 16.513c-.381 1.793-1.141 3.476-1.63 5.269-1.304 4.835-2.662 9.506-3.857 14.341-.38 1.52-.163 3.204-.543 4.834-1.25 5.106-2.662 10.267-3.857 15.373-2.173 9.234-4.345 18.468-6.409 27.757l-.218-.217Z" fill="#000"/><path d="M139.802 430.814c.598-3.368-.38-6.193-2.498-8.692-2.553-3.096-6.084-3.53-9.724-3.259-1.792.163-3.096-.163-4.291-1.521-1.467-1.684-3.368-2.498-5.595-2.227-4.454.489-8.854 1.032-13.308 1.521-1.413.163-2.88.163-4.292.054-1.195-.108-2.064-.651-2.879-1.792-2.281-3.314-5.486-5.704-9.506-6.356-3.313-.543-6.735-.488-10.158-.597-1.792 0-3.585.163-5.377.217-2.065.109-4.237-.163-6.193.326-3.368.815-6.844 1.467-9.56 3.966-1.087 1.032-2.553 1.792-3.477 2.987-.977 1.249-1.52 2.879-2.281 4.291-.706 1.25-1.358 2.499-2.173 3.64-1.738 2.553-4.78 2.879-7.388 3.531-8.31 2.173-14.72 6.844-19.446 13.906-2.064 3.096-2.39 6.518-.87 9.886 1.141 2.39 2.771 4.508 5.704 4.346.49.923.707 2.118 1.358 2.498 1.521.924 3.205 1.467 4.89 2.119.597.217 1.248.326 1.846.543 2.173.869 4.346 1.955 6.573 2.662 3.042.869 6.192 1.303 9.18 2.227 2.988.869 5.758-.109 8.583-.598.923-.163 1.9-.597 2.552-1.195.598-.597 1.087-1.629.978-2.444-.054-.435-1.412-.924-2.172-.978-.978 0-2.01.217-2.988.598-2.716 1.032-5.486.543-8.094.054-2.879-.543-5.703-1.521-8.528-2.39-2.064-.652-4.129-1.467-6.138-2.173-2.608-.869-5.16-1.738-6.953-4.128-.435-.544-1.576-.544-2.445-.707-.489-.108-.977-.108-1.9-.217.651-.38.76-.543.923-.543 2.987-.489 3.204-.923 2.227-4.02-.163-.597.054-1.358.325-1.955 1.087-2.716 4.292-3.857 4.998-6.899 0-.109.163-.163.272-.271 3.965-4.183 8.854-6.519 14.449-7.497 1.086-.217 2.499-.163 3.26-.814 1.574-1.304 2.824-.87 4.453-.218 1.902.761 4.02 1.032 5.975 1.63.49.163 1.141.815 1.195 1.304 0 .434-.542 1.195-1.031 1.412-2.39 1.195-4.835 2.281-7.225 3.476-.489.218-.978.544-1.304.924-1.466 1.684-2.77 3.585-4.346 5.16-1.466 1.467-2.607 3.042-3.041 5.106-.11.489-1.304 1.25-1.847 1.141-2.119-.435-4.237-1.141-6.301-1.847-1.25-.434-2.553-.978-3.314.435-.76 1.358.489 2.173 1.358 2.933.272.217.597.38.923.489 2.553.76 5.161 1.575 7.769 2.173.869.217 1.9 0 2.77-.326 2.064-.815 2.77-2.771 3.802-4.509 1.14-1.955 2.988-3.585 4.237-5.486 1.847-2.825 4.454-4.237 7.55-5.378 2.119-.76 4.02-2.499 5.541-4.237 1.032-1.195 1.304-3.042 1.684-4.671.489-2.227 0-3.585-2.498-2.988-.76.163-2.01 0-2.5-.489-2.063-2.01-4.4-2.499-7.06-2.01-.435.109-.87.055-1.74.109.49-.924.761-1.575 1.141-2.064 1.087-1.413 2.065-2.988 3.369-4.129 1.52-1.358 3.313-2.444 5.16-3.367.814-.435 2.01-.163 2.988-.272 4.888-.598 9.777-1.467 14.72-1.793 2.119-.163 4.726.109 6.41 1.25 2.336 1.575 4.889 3.096 6.192 5.975.978 2.227 3.151 2.879 5.378 1.956.706-.326 1.413-.652 2.173-.707 4.346-.38 8.691-.76 13.037-.977 1.521-.055 3.096.271 4.563.651.869.218 1.738 1.033.706 2.01-1.032 1.032-2.173 2.064-3.422 2.771-2.445 1.303-3.694 3.422-4.889 5.758-.489.869-.978 1.846-1.684 2.444-1.141.923-1.412 2.064-.978 3.151.326.814 1.467 1.846 2.119 1.792 1.032-.109 2.281-.869 2.879-1.684 1.575-2.227 3.041-4.563 4.128-7.061 1.249-2.879 3.531-4.183 6.247-5.215 2.933-1.087 5.758-1.304 8.528.543 1.901 1.249 2.879 4.509 1.684 6.03-.217-.218-.38-.326-.435-.489-2.498-4.889-9.071-5.595-12.33-2.336-2.445 2.444-5.052 5.106-4.835 9.126 0 .543-.597 1.521-1.14 1.684-3.694 1.358-7.388 2.607-11.136 3.856a3007.584 3007.584 0 0 1-12.276 4.237c-.49.163-1.032.272-1.576.381-1.249.326-2.118 0-2.879-1.141-.869-1.304-1.792-2.825-3.096-3.64-4.074-2.661-8.583-4.345-13.58-4.182-.978 0-2.173.054-2.933.597-1.901 1.358-3.857 1.467-6.03 1.141-1.25-.217-1.955.435-2.444 1.63-.435 1.032-.978 2.172-1.847 2.933-4.129 3.748-6.193 8.365-6.41 13.906-.054 1.575.815 2.01 1.738 1.521 1.141-.598 2.282-1.684 2.934-2.825 1.792-3.096 2.281-6.844 4.888-9.506.87-.869 2.065-1.521 2.77-2.499 1.685-2.39 4.129-2.607 6.628-2.716h3.965c4.129 0 6.519 2.662 8.637 5.704.217.272 0 1.141-.272 1.358-.325.217-1.032.217-1.412 0-.489-.326-.923-.869-1.086-1.412-.49-2.01-1.956-2.988-3.64-3.911-4.726-2.662-11.353-.652-13.689 4.182-.108.218-.27.381-.38.598-2.01 3.096-1.846 6.301-.434 9.506.326.706.706 1.684 1.358 1.955 1.955.869 4.02 1.902 6.084 2.173 5.16.652 8.582-.869 10.484-5.432.217-.543.597-1.141 1.032-1.358 3.422-1.412 6.844-2.716 10.32-4.02 2.065-.76 4.183-1.303 6.247-2.009 2.716-.924 5.432-1.847 8.094-2.879 3.802-1.467 7.605-2.879 11.244-4.509 1.032-.489 1.684-.434 2.608 0 1.901.924 3.856 1.956 5.92 2.444 1.793.435 3.857.326 5.215-1.195 1.358-1.575 2.39-3.422 3.585-5.106.652-.923 1.304-1.955 2.173-2.661 1.413-1.195 2.39-2.499 2.771-4.4h-.218ZM76.9 451.455c-.544.761-.924 1.684-1.032 2.608-.38 3.313-.598 3.585-3.857 3.748-2.01.108-4.292-1.195-4.835-2.77-1.14-3.423-.706-5.215 1.576-6.791l.162-.108c2.608-1.811 5.125-1.63 7.551.543.923.815 1.195 1.63.38 2.77h.055Zm53.396-13.417c-.815 1.521-3.096 2.119-4.508.869-1.25-1.14-3.585-1.846-2.825-4.237-.435-2.879 1.847-3.965 3.313-5.486.326-.326 1.576-.326 1.956 0 2.39 2.01 3.585 6.084 2.01 8.909l.054-.055ZM18.016 66.76c2.01-.108 3.205-1.249 3.205-2.716 0-2.553-.923-3.856-3.313-4.02-4.292-.325-8.637-.488-13.091-.76-.87.163-2.01.109-2.825.598-.815.489-1.738 1.412-1.901 2.281-.49 2.608 1.032 4.509 3.748 4.835 1.52.163 3.042-.055 4.617-.055 3.205 0 6.41 0 9.615-.108l-.055-.055ZM13.725 114.614l12.385-1.629c1.304-.163 2.662-.054 3.857-.435.706-.217 1.52-1.086 1.63-1.792.108-.598-.544-1.684-1.141-1.956-1.467-.706-3.042-1.304-4.617-1.466-1.793-.218-3.694.217-5.487 0-3.422-.489-6.736-.435-9.94.923-1.413.597-2.988 1.195-3.042 3.096-.055 1.304 1.63 2.933 3.367 3.314.49.108 1.087.108 1.576.163.489 0 .977-.055 1.466-.109l-.054-.109ZM63.483 80.502c3.965.055 7.93 0 11.896 0 .76-.108 1.575 0 2.336-.217 1.847-.435 3.965-1.63 3.802-3.205-.163-1.956-1.086-3.042-3.205-3.15-5.54-.38-11.08-.055-16.567.814-.706.109-1.63 1.032-1.901 1.738-.76 2.228.76 3.912 3.585 3.966l.054.054Z" fill="#000"/><path d="M75.976 429.075c5.106-1.304 10.267-2.607 15.264-4.291 2.282-.761 2.499-3.097.543-4.509-1.358-.978-3.205-1.358-4.889-2.01-5.757.218-9.234 4.183-13.036 7.442-.489.435-.598 1.901-.218 2.499.326.543 1.63 1.032 2.282.869h.054ZM462.301 320.977c-2.173.217-4.4.38-6.573.543v-.217c-3.041.217-6.083.326-9.125.652-.869.108-1.793.597-2.553 1.086-1.141.761-1.196 1.901 0 2.608 1.14.651 2.553 1.303 3.802 1.303 5.323 0 10.701-.217 16.025-.543.814-.054 2.009-1.249 2.226-2.064.489-2.064-1.358-3.531-3.748-3.314l-.054-.054ZM49.63 94.028c1.466.054 2.987 0 4.454 0v-.109c1.032 0 2.01.054 3.042 0 2.825-.272 5.704-.489 8.528-1.032.815-.163 1.467-1.304 2.173-2.01-.76-.76-1.467-1.575-2.282-2.281-.217-.218-.706-.163-1.032-.163H51.15c-1.63 0-2.607 1.086-3.313 2.39-.923 1.684-.109 3.096 1.793 3.205ZM471.101 287.354c.869-.054 1.792-.163 2.662-.217.814-.109 1.683-.109 2.444-.38 1.249-.381 2.607-.761 2.607-2.499 0-1.793-.923-3.042-2.824-2.988-4.02.109-8.04.489-12.059.978-1.358.163-3.097 2.825-2.445 4.02.38.815 1.847 1.086 2.879 1.466.489.163 1.087.055 1.575 0 1.739-.163 3.422-.326 5.161-.543v.163ZM409.448 298c1.847-.163 3.694-.217 5.486-.489 1.684-.271 2.119-1.249 1.521-2.824-.543-1.358-1.63-1.141-2.716-1.141h-11.407c-1.195 0-2.445.054-3.477.543-.652.326-1.303 1.521-1.195 2.227.055.706.924 1.684 1.63 1.956.923.326 2.119.108 3.151 0 2.335-.163 4.617-.435 6.952-.652v.326l.055.054ZM409.502 307.452c4.074-.108 8.094-.326 12.114-.76 2.553-.272 3.694-1.412 3.531-2.608-.218-1.195-2.011-2.009-4.292-1.846-1.738.108-3.422.271-5.16.434v-.217c-2.173.163-4.291.271-6.464.489-1.358.108-2.553.706-2.499 2.281 0 1.63 1.467 2.282 2.77 2.227ZM95.368 2.282l-.38-.707-2.227 1.141.38.706 2.227-1.14ZM141.703.543V0l-3.205.217c1.086.706 2.227 1.087 3.205.326ZM463.332 433.854c3.531-1.304 7.062-2.825 10.484-4.454.706-.326 1.413-1.413 1.413-2.173 0-.761-.598-1.793-1.25-2.282-.977-.652-2.281-.923-3.042-1.195-4.834.598-8.528 2.282-10.701 6.247-.543.978-.489 2.607 0 3.64.217.488 2.227.543 3.151.217h-.055Z" fill="#000"/></svg>