<svg width="447" height="407" viewBox="0 0 447 407" fill="none" xmlns="http://www.w3.org/2000/svg"><path d="M186.962 406.249c-3.611-2.143-7.447-3.385-11.848-2.933-2.821.225-6.431 1.015-8.236-.452-2.596-1.918-4.965-1.466-7.56-1.918-2.37-.338-4.965-.677-7.109-1.805-2.933-1.467-5.754-3.272-8.01-5.529-2.934-2.82-6.996-5.867-7.673-9.365-1.016-5.528-4.4-9.478-6.77-13.878-3.159-5.98-6.206-11.847-7.56-18.504-.451-2.257-1.805-4.514-3.046-6.545-1.241-2.031-3.159-3.836-2.257-6.657.226-.564-.451-1.805-1.015-2.143-2.144-1.242-2.257-3.385-3.047-5.416-1.241-3.385-1.805-7.899-7.108-8.011-.677 0-1.693-.903-1.805-1.58-1.693-6.319-7.673-8.349-12.186-11.396-3.724-2.595-7.108-6.657-12.412-6.544-.45 0-.902-1.016-1.466-1.467-1.918-1.805-3.837-3.611-6.319-5.867-2.37 5.754-6.883 5.529-10.832 4.287-5.867-1.805-11.396-4.513-16.925-7.108-1.918-.903-3.497-1.805-5.528-.226-1.693 1.242-2.595.452-3.61-1.354-.904-1.579-2.596-3.046-4.288-3.61-4.627-1.806-9.366-3.16-14.104-4.626-3.273-1.016-4.852-3.837-6.883-6.206-3.836-4.288-8.124-8.237-8.575-14.555 0-.339-.564-.564-.79-.903v-2.595c2.031-2.708 3.723-5.754 6.093-8.237 6.431-6.882 14.78-3.61 22.453-3.498.79 0 1.467 1.58 2.37 2.257 1.128 1.016 2.37 2.708 3.723 2.708 6.431.339 11.396 3.272 15.57 8.011.79.903 2.032 1.693 3.273 2.031 2.257.677 4.739.903 7.108 1.58 2.595.79 5.755 1.128 7.334 2.933 3.047 3.385 7.334 4.175 10.832 6.545.79.564 2.144.451 3.272.789a52.738 52.738 0 0 1 5.416 2.031c2.144 1.016 4.175 2.257 6.319 3.16 3.385 1.354 7.221 2.031 10.267 3.949 3.724 2.369 6.657 5.754 10.268 8.462 3.611 2.708 5.19 7.56 10.042 8.801.903.226 2.257 1.467 2.37 2.257.225 2.707 2.031 3.836 3.836 5.303 2.144 1.805 3.723 1.692 5.19-.452 2.031-3.046 1.467-6.544-1.692-9.252-1.919-1.692-4.175-3.272-5.755-5.303-3.385-4.4-6.093-9.252-11.734-11.396-1.016-.338-1.58-1.692-2.483-2.369-2.708-2.257-5.19-4.401-8.575-6.093-5.867-2.821-12.524-4.401-17.376-9.253-1.354-1.353-3.385-2.369-5.303-2.82-5.641-1.354-9.365-4.626-12.186-9.591-1.466-2.595-3.385-4.288-7.108-4.513-3.724-.113-8.237.564-10.945-3.611-.338-.451-1.24-.451-2.03-.564-3.16-.564-6.206-1.128-8.689-1.58-.677-2.256-.564-4.626-1.58-5.19-4.4-2.821-8.913-5.529-13.765-7.447-3.046-1.241-5.19-2.933-6.995-5.303-1.354-1.805-2.934-3.61-4.288-5.416-2.82-3.949-5.98-7.785-8.35-12.073-3.046-5.641-1.015-11.847.565-17.376.902-3.159 3.836-7.108 6.657-8.913 7.898-4.852 16.699-5.416 25.387-1.58 1.354.564 2.482 1.918 3.723 2.934 1.129.902 2.257 1.918 3.498 2.82 3.95 2.596 8.011 4.965 11.847 7.56 2.031 1.467 3.498 3.836 5.755 4.965 3.272 1.692 7.108 2.143 8.01 6.657 0 .451.904.677 1.355 1.015 1.354 1.016 2.708 2.031 4.062 3.159 4.964 4.401 9.816 8.801 14.78 13.089.34.338.678.564.903.903 3.047 2.933 6.206 5.754 9.252 8.688 1.242 1.241 2.596 2.256 3.611 3.723 1.805 2.708 2.934 6.206 5.303 8.237 3.498 3.046 6.319 6.657 9.478 9.929 2.257 2.369 2.934 6.093 6.431 7.334.452.113.452 1.241.79 1.918 2.37 4.288 4.852 8.575 7.334 12.863.903 1.58 1.693 3.159 2.37 4.852 1.015 2.256 1.579 4.626 2.821 6.657.564.902 2.482 1.354 3.836 1.241.79 0 2.256-1.467 2.144-2.144-.226-4.626-.339-9.027-2.821-13.314-2.934-4.852-7.56-8.801-8.688-14.781-.226-1.692-.677-3.385-1.467-4.852-2.144-3.836-4.4-7.785-6.883-11.396-1.805-2.482-4.062-4.626-6.205-6.882l-4.401-4.401c-.677-.677-1.241-1.58-1.918-2.257-2.144-2.03-4.288-3.949-6.319-5.867-3.385-3.272-6.882-6.431-10.154-9.816-.79-.79-.79-2.257-1.242-3.385-.564-1.354-.79-3.159-1.692-3.949-3.95-3.159-9.816-3.724-12.186-9.027-.225-.451-1.354-.338-1.918-.677-2.708-1.354-5.754-2.143-7.56-5.19-3.385-5.754-8.35-10.155-13.201-14.668-4.739-4.4-9.93-8.011-14.104-13.314-2.595-3.272-5.416-5.754-6.995-9.929-1.354-3.498-4.74-6.319-7.334-9.252-3.611-4.288-5.304-8.801-3.273-14.33.452-1.128.677-2.595.339-3.836-.903-3.272 1.128-4.739 3.16-6.432 1.127-.902 2.594-1.466 3.384-2.595 3.61-5.641 8.801-7.559 15.232-6.657 1.129.113 2.37-.113 3.498 0 1.918.339 4.175.452 5.755 1.58 3.497 2.369 6.77 5.19 9.929 8.011.564.451.902 1.467 1.015 2.257.339 2.369 1.693 3.723 3.836 4.287 2.821.79 3.95 3.159 5.416 5.19 2.934 4.288 4.965 9.365 8.576 12.863 4.062 3.949 6.657 8.462 9.365 13.201 2.933 4.965 5.867 9.93 9.026 14.781 1.016 1.693 2.595 3.047 3.724 4.626 1.015 1.354 2.595 2.821 2.595 4.288.225 3.611 2.369 5.867 4.739 7.898 2.031 1.805 3.159 3.836 3.272 6.319.113 2.482 1.692 4.175 2.821 6.093 1.918 3.272 5.19 6.093 4.738 10.493 0 .677.339 1.354.677 2.031a191.734 191.734 0 0 0 4.514 8.237c3.949 6.77 7.559 13.652 10.267 20.873 2.934 7.899 5.529 15.91 8.575 23.695 1.129 2.821 2.144 5.98 5.98 6.996.339-.677.565-1.58 1.016-1.806 3.047-1.692 2.934-3.836 1.241-6.431-.225-.339-.338-.79-.451-1.241-1.129-7.786-3.16-15.232-7.447-22.115-2.482-4.062-3.272-9.14-5.19-13.653-2.37-5.529-5.303-10.944-7.898-16.473-2.483-5.19-5.642-10.268-7.222-15.797-1.015-3.61-2.933-5.867-5.077-8.349a9.597 9.597 0 0 1-1.918-2.821c-1.354-3.272-1.467-7.108-5.303-8.914-.339-.112-.565-.677-.677-1.128-1.129-3.159-2.144-6.431-3.16-9.591-.225-.789-.789-1.466-1.241-2.256-1.692-2.482-3.836-4.739-5.077-7.334-1.016-2.031-1.467-3.949-4.062-4.514-.564 0-1.128-1.466-1.354-2.369-.338-1.467 0-3.498-.79-4.4-3.046-3.16-3.949-7.334-6.431-10.719-3.385-4.626-6.883-9.027-10.042-13.766-3.047-4.513-4.852-9.365-7.109-14.104-2.256-4.739-5.416-9.252-5.867-14.78 0-.903-1.58-1.693-2.03-2.709-.678-1.692-2.145-4.287-1.58-4.964 2.482-3.047 1.128-5.416 0-8.35-.677-1.58-.226-3.723 0-5.528.225-1.58 1.128-3.047 1.24-4.514.226-2.37 1.016-4.062 3.386-4.851 2.595-1.016 4.739-2.596 5.641-5.53.113-.338.564-.676.903-.902 6.544-3.61 16.022-3.61 22.566 1.016 1.467 1.128 3.385 1.692 4.626 3.046 2.482 2.595 4.852 5.416 6.883 8.462 1.128 1.693.903 4.062 1.918 5.755 3.272 5.416 4.513 11.17 4.513 17.376 0 1.918.564 4.062 1.467 5.641 4.626 8.35 7.673 17.376 10.381 26.516 1.015 3.272 1.466 6.77 2.369 10.042 1.241 5.19 2.37 10.38 4.062 15.345 2.369 6.77 5.529 13.314 7.785 20.084 1.58 4.852 2.37 10.155 3.385 15.119.677 2.934 1.241 5.98-2.031 7.447 1.693.903 3.949 1.354 4.626 2.708 2.483 4.852 4.627 9.929 6.657 15.12 1.129 2.707.903 5.98 1.467 8.688 1.354 6.657 4.288 12.975 6.545 19.519.225.79.338 1.693.451 2.483.338 2.369.79 4.739 1.015 7.108.339 3.949 1.016 7.898.79 11.735-.113 3.723 2.934 8.688 7.56 10.041 1.241-4.061 4.062-7.898.79-12.524-1.016-1.467-1.016-3.498-1.58-5.303-.339-1.015-.564-2.256-1.241-3.159-1.58-2.031-1.805-3.836.451-5.529-3.159-2.934-4.4-6.206-2.821-10.268.113-.338.113-.902 0-1.241-1.354-9.139-2.595-18.278-7.785-26.177-.451-.677-.451-1.918-.451-2.82.113-5.868-.452-11.509-3.949-16.587-.903-1.241-1.354-2.82-1.693-4.287-1.354-6.544-.564-13.427-4.513-19.407-.79-1.241-.903-3.047-1.241-4.513-.339-1.58-.226-3.385-.903-4.852-3.046-8.124-5.867-16.361-6.544-25.162 0-1.354-.451-2.933-1.241-4.174-3.724-5.868-4.965-12.75-6.996-19.182-1.241-3.949-1.241-8.575-5.077-11.621-.79-.677-.79-2.595-1.016-3.837-.677-5.19-.112-10.606-3.836-15.006-.564-.564-.903-1.467-1.016-2.37-.789-7.56-1.692-15.119-2.256-22.679-.226-3.498.564-7.22.113-10.719-.452-3.272.225-6.093 1.692-8.913 2.257-4.514 5.642-7.786 10.042-10.38 5.98-3.499 11.735-5.304 18.392-.903 6.883 4.513 10.38 11.396 13.54 18.391 1.805 4.062 3.046 8.35 4.287 12.637.79 2.708 1.015 5.529 1.58 8.35.338 1.692.564 3.61 1.579 4.851 3.273 4.062 1.354 10.042 5.191 13.766.112.113 0 .564 0 .79-1.129 9.252 3.159 17.601 4.513 26.402.564 3.836 1.467 7.56 2.031 11.396.677 5.98 1.128 11.96 1.805 17.94.339 2.595 2.031 5.529 1.241 7.447-1.579 3.611.113 6.996 0 10.268-.225 6.883 1.467 13.878 2.144 20.874.113 1.241-.226 2.595-.338 3.836-.226 2.369-.677 4.739-.565 7.108.339 4.401.565 8.914 1.58 13.202 1.467 5.754 1.58 11.283-.338 16.924v.452c.451 5.528 1.015 11.057 1.354 16.586.112 1.692.112 3.498-.226 5.19-.903 3.611-1.58 7.108-.564 10.945.451 1.692.113 3.949-.677 5.416-.903 1.805-.564 2.933.225 4.4 1.693 3.047 5.078 2.934 8.35 5.077.226-6.544.903-12.185.451-17.601-.564-7.109-1.805-14.217.226-21.325.338-1.016.338-2.483-.226-3.385-1.805-3.611-3.949-7.109-1.015-11.171.338-.451 0-1.918-.452-2.369-2.369-2.257-.677-4.513 0-6.657.452-1.58 1.129-3.159 1.242-4.739.225-2.482 0-4.965 0-7.334 0-1.58 0-3.159-.113-4.626-.564-3.611-1.467-7.221-1.693-10.832-.338-5.642.113-11.396-.225-17.037-.452-5.755-1.806-11.396-1.467-17.264.113-3.272 0-6.544-.113-9.816 0-2.144.339-4.288 0-6.319-.451-2.933-1.467-5.867-1.805-8.913-.339-2.708 0-5.416-.113-8.124 0-2.031.677-4.739-.226-6.093-3.159-4.513-2.256-9.93-4.175-14.668-1.466-3.724-1.692-7.898-2.256-11.847-.79-6.319-1.241-12.525.451-18.956.564-2.37.79-5.642-1.241-8.575-1.692-2.483-1.918-5.755 0-8.575.79-1.242 1.918-2.708 2.031-4.062.79-10.832 6.883-17.376 16.586-21.213 2.257-.902 4.513-2.03 6.883-2.595 7.672-1.805 15.345-3.272 21.776 3.385.452.451 1.242.677 1.806 1.128 5.98 4.062 10.831 8.576 11.96 16.361 1.015 6.657-.677 13.089-.226 19.633 0 .79-.903 1.58-1.241 2.37-.451 1.015-1.241 2.256-.903 3.046 1.016 2.708.903 5.19-.225 7.785a23.34 23.34 0 0 0-1.919 6.206c-.789 4.964-1.241 9.929-2.03 14.893-.452 2.483-1.354 4.852-2.144 7.335-.452 1.353-1.58 3.272-1.129 4.061 2.483 3.611 0 6.206-1.128 9.14-.226.79-.226 1.58-.226 2.482 0 1.58.339 3.046.226 4.626-.451 3.949-1.015 7.898-1.579 11.735-.565 3.497-1.129 7.108-1.693 10.606-.451 2.82-1.805 5.98-1.128 8.462 1.805 6.544-.113 12.75-.677 18.956-.226 2.708 0 5.19-1.129 7.898-1.015 2.595-.451 6.206.677 9.026 1.242 3.16 1.129 5.642.226 8.688-1.015 3.724-1.692 7.447-2.144 11.284-.338 2.482.113 5.077 0 7.672-.338 3.949-.902 7.898-1.354 11.735 0 .564.452 1.128.452 1.692 0 3.159.338 6.544-.452 9.478-.677 2.369-1.467 4.288-.564 6.883.564 1.579-.677 3.836-1.128 5.754-.226.903-.903 1.805-1.016 2.708-.225 4.175-.225 8.35-.338 12.524 0 3.047 2.257 5.642 5.529 6.093 3.61-6.995 3.949-11.734 3.61-19.858-.226-5.642 1.241-11.396 1.918-17.038.226-1.692.339-3.385.452-5.19.113-2.031.225-3.949.451-5.98.226-2.031 1.015-3.949 1.015-5.867.339-10.494.452-20.987.677-31.48 0-2.708-1.692-5.642 1.58-7.673.339-.225.339-1.128.226-1.579-.903-7.334-.903-14.556 1.692-21.777 1.129-3.046.451-6.77 1.128-10.155 1.129-5.528 3.273-10.719 1.806-16.586-.226-1.015 0-2.482.451-3.385 2.257-3.836 3.498-7.898 3.047-12.298 0-.565 0-1.242.338-1.693 4.288-8.8 4.401-18.617 6.431-27.87.79-3.723 1.467-7.559 4.288-10.38.677-.677 1.693-1.805 1.58-2.482-.677-4.062 2.031-7.108 3.159-10.606 1.805-5.19 2.821-10.945 8.349-13.991.565-.339 1.016-1.016 1.467-1.58 2.708-3.949 6.544-6.77 11.058-6.883 7.559-.338 15.796-4.062 22.792 2.257.564.564 1.692.338 2.482.79 3.836 2.256 8.011 3.723 9.139 9.365 1.129 5.867 2.257 11.509 1.467 17.376-.564 4.513.903 9.703-3.61 13.201-.452.339-.452 1.016-.677 1.58-1.919 4.852-3.95 9.703-5.868 14.442-.225.451-.789 1.129-1.128 1.129-2.821-.226-3.159 2.256-3.836 3.836-1.693 3.385-5.078 5.98-4.965 10.267 0 2.708-.451 4.852-2.821 6.77-1.805 1.58-2.595 4.288-3.723 6.657-1.467 3.272-2.821 6.545-4.288 9.817-1.579 3.61-3.385 7.221-4.626 11.057-1.128 3.498-1.241 7.334-4.964 9.478-.565.339-.903 1.467-1.129 2.257-2.031 6.544-3.836 13.201-6.093 19.745-1.128 3.498-3.159 6.544-4.513 9.929-1.692 4.175-4.287 7.899-4.964 12.637-.565 4.401-.677 9.253-3.498 13.202-.79 1.128-.903 2.595-1.241 4.062-1.129 3.949-2.144 8.011-3.272 11.96-1.467 5.077-1.129 10.606-3.611 15.57-.339.565.226 1.693.338 2.483 0 .79.226 1.692 0 2.482-1.692 5.754-3.61 11.509-5.077 17.376-1.128 4.626-1.128 9.252 4.852 12.299.79-1.918 1.692-3.837 2.257-5.755.338-1.128.112-2.369.451-3.385 1.918-7.672 6.883-14.668 5.19-23.13 0-.226.113-.564.226-.79 2.143-7.672 4.287-15.458 6.544-23.13.79-2.708 1.354-5.642 2.934-8.011 1.918-3.16 3.046-6.432 3.61-9.93.113-.677 0-1.579.564-2.03 4.514-4.514 3.272-11.284 6.545-16.248.677-1.016.112-2.708.225-4.175 0-1.58-.226-4.062.564-4.513 2.595-1.354.79-3.498 1.693-4.965 2.031-1.579 4.964-3.159 5.303-5.19.677-4.513 2.369-8.124 5.19-11.622.903-1.128.903-2.933 1.354-4.513.903-2.482 0-5.303 2.144-7.672 2.256-2.596 3.723-5.755 5.303-8.914 2.257-4.175 4.062-8.688 6.431-12.75 2.37-4.175 3.95-8.914 7.786-12.299 1.692-1.466 3.723-3.498 3.046-6.657-.226-.902.903-2.482 1.805-3.272 2.821-2.595 5.868-4.965 8.689-7.447 1.354-1.128 2.595-2.37 3.723-3.61 5.529-6.206 11.96-10.38 20.874-8.35 3.497.79 7.447.564 10.493 2.144 3.498 1.918 6.431 5.303 9.252 8.35 1.354 1.466 2.37 3.836 2.482 5.867a81.317 81.317 0 0 1-.338 12.863c-.677 5.641-2.369 11.057-5.754 15.909-3.272 4.739-7.222 8.913-9.817 14.104-1.467 2.933-3.949 5.528-6.318 8.011-2.37 2.482-5.191 4.513-7.786 6.77-1.128 1.015-2.256 1.354-3.159-.339-1.015-1.805-2.031-3.498-3.046-5.303-2.934 3.949-1.693 7.447.338 10.945 1.129 2.031.903 3.61-1.128 5.19a44.412 44.412 0 0 0-5.642 5.641c-2.482 3.16-4.513 6.77-7.221 9.591-3.159 3.272-6.544 6.093-7.447 10.832 0 .451-.677 1.015-1.128 1.241-4.626 1.805-5.867 6.544-8.688 9.929-2.144 2.708-4.513 5.078-6.657 7.786-.677.789-1.129 1.805-1.693 2.708-1.128 1.918-1.918 4.061-3.498 5.641-2.256 2.37-4.626 4.4-5.641 7.898-.677 2.595-1.805 5.529-4.852 6.883-.677.338-1.241 1.241-1.579 1.918-3.837 8.462-7.786 16.925-11.509 25.387-1.805 4.175-3.272 8.575-4.852 12.863-.79 2.144-1.805 4.175-2.369 6.319-.677 2.256-.903 4.626-1.354 6.995l4.062 1.354c2.482-4.513 4.851-8.801 7.221-13.088 0-.113.113-.226.113-.452-.565-6.205 5.528-10.38 4.851-16.699 0-.79 1.354-1.805 1.919-2.708 2.143-3.385 4.964-6.544 6.092-10.267.79-2.595 1.919-4.626 3.385-6.77 2.934-4.288 7.447-7.334 9.252-12.75.677-2.257 3.611-3.949 4.062-6.77 0-.451 1.242-1.128 1.806-1.016 2.482.339 2.595-1.692 3.61-3.046 1.129-1.58 2.144-3.385 3.498-4.852 1.805-2.144 3.836-4.062 5.642-6.205 1.241-1.467 2.369-3.16 3.723-4.514 2.482-2.595 6.657-4.626 7.447-7.559 1.015-3.724 3.723-4.175 5.867-5.981 1.241-1.015 1.918-2.595 2.821-3.949.677-1.015 1.016-2.708 2.031-3.159 2.934-1.354 4.062-3.949 5.19-6.544 1.354-3.272 4.626-5.303 5.642-8.914.338-1.354 2.595-2.144 3.723-3.385 4.739-5.19 9.704-10.38 13.991-15.909 4.288-5.416 10.155-8.124 16.135-10.945 1.354-.677 3.047-.451 4.626-.451 5.529-.338 9.817 2.934 14.555 4.852 3.047 1.241 5.078 3.046 6.093 6.206a15.307 15.307 0 0 0 3.272 5.528c3.273 3.724 3.16 7.56 1.129 11.622-.79 1.58-1.129 3.385-2.144 4.739-2.821 3.385-5.303 7.447-8.914 9.591-2.82 1.692-4.626 3.272-5.19 6.092-1.241 6.432-4.964 10.042-10.945 12.638-4.174 1.805-7.898 4.851-11.17 8.123-4.288 4.288-9.816 6.545-14.668 10.042-2.821 2.031-5.642 4.514-9.478 4.965-.79.113-1.466 1.918-2.143 2.934-.677.902-1.242 1.805-2.032 2.595-1.692 1.467-3.61 2.708-5.077 4.287-1.692 1.918-3.272 3.724-5.98 4.626-2.257.79-4.288 2.37-6.319 3.724-4.4 3.159-8.011 7.108-11.734 11.057-2.257 2.37-5.642 4.288-6.657 7.109-1.693 4.626-5.642 6.995-8.462 10.493-.565.677-1.016 1.354-1.467 2.031-4.062 6.883-8.237 13.878-12.186 20.874-2.708 4.851-5.416 9.59-7.898 14.555-.79 1.58-.677 3.611-1.016 5.416l1.129.451c3.497-2.369 6.431-5.303 8.688-9.026 2.143-3.498 4.287-7.222 7.108-10.042 2.031-2.144 4.626-3.498 5.867-6.545.903-2.369 2.708-4.4 4.288-6.431 3.385-4.287 9.026-6.77 10.719-12.524 4.626-2.031 7.672-5.867 11.17-9.252 3.836-3.611 8.237-6.657 12.412-10.042 2.369-1.918 5.19-3.611 7.108-5.98 1.58-2.031 3.272-2.934 5.529-2.37 2.82.79 3.949-.564 4.062-2.821.225-2.482 1.692-3.836 3.497-5.077 5.868-3.949 11.284-8.35 15.797-13.991.677-.79 1.918-1.241 2.933-1.693 4.288-1.579 8.576-2.933 12.863-4.513 3.047-1.128 5.98-2.821 9.027-3.723 8.011-2.37 16.135-1.354 23.92 1.015 1.805.564 3.836 2.031 4.739 3.611 4.287 7.672 7.785 15.345 2.708 24.484-2.708 4.852-6.206 8.575-10.606 11.396-1.918 1.241-4.514 1.241-6.77 2.031-2.934 1.016-5.868 1.918-8.463 3.385-3.046 1.58-5.641 3.949-8.688 5.529-2.256 1.128-5.077 1.241-7.446 2.144-4.175 1.466-8.124 3.385-12.299 4.851-1.693.677-4.288 0-5.303 1.129-2.821 2.933-6.206 3.159-9.816 3.61-1.354.113-3.385 1.241-3.724 2.37-.903 2.821-3.046 3.723-5.303 4.626-4.175 1.692-8.575 3.159-12.637 5.077-3.498 1.58-7.447 2.821-10.042 5.416-3.385 3.385-6.431 6.883-10.606 9.591-3.498 2.144-6.093 5.529-9.14 8.462-5.19 4.965-10.606 9.704-15.458 15.007-1.466 1.692-1.805 4.626-2.143 7.108-.113 1.241 1.579 2.934 2.595 1.58 2.256-3.047 6.657-3.272 8.124-7.221.451-1.242 1.918-2.934 3.159-3.16 4.287-.902 6.544-3.949 8.801-7.221.903-1.241 1.918-2.595 3.272-3.385 4.513-2.369 9.252-4.4 13.765-6.657 1.129-.564 2.257-1.354 3.047-2.257 4.287-5.528 10.268-8.575 16.586-10.831 5.303-1.918 11.17-2.37 16.022-5.642 2.482-1.692 5.303-2.821 8.462-2.257.339 0 .903 0 1.242-.225l12.524-6.77c1.467-.79 3.159-1.805 4.739-1.805 5.867 0 10.719-4.626 16.699-3.837 0 0 .225-.225.338-.225l14.894 2.031c.226 0 .451.338.677.564 7.334 6.318 10.493 14.104 7.673 23.582-1.016 3.159-2.483 6.318-4.401 9.139-1.918 2.933-4.626 5.416-6.995 8.011-.677.677-1.467 1.58-2.37 1.805-4.852 1.129-8.801 4.513-13.878 5.303-5.416.79-10.832 2.483-16.135 3.949-2.144.565-4.288 1.467-6.544 1.918-2.144.452-5.19 1.806-6.432.903-4.626-3.159-9.026-2.031-13.539-.451-5.303 1.692-10.494 3.949-15.91 5.19-3.497.79-7.108.677-10.154 3.047-.79.677-2.257.789-3.273.677-4.174-.677-6.882 1.805-9.816 4.174-4.739 3.837-9.591 7.56-14.33 11.396-1.918 1.58-4.4 2.595-5.754 4.513-1.918 2.596-3.046 5.755-4.513 8.689-2.934 5.867-6.206 11.621-8.914 17.601-1.015 2.144-.677 4.852-1.467 7.109-1.015 2.82-3.159 5.415-3.949 8.236-2.256 8.237-8.462 13.879-13.539 20.197-2.708 3.272-6.319 4.739-10.832 4.175-1.918-.226-3.949.677-5.868 1.128-4.287.903-8.575 2.37-12.975 2.595-6.093.339-12.299-.225-18.504-.225-1.919 0-3.95 1.354-5.868 1.354-4.851.225-9.59.225-14.442 0-3.836 0-7.898 0-11.622-.79-4.175-1.016-7.108.564-10.042 2.933h-6.882Zm64.088-26.289v.677c2.595-.677 5.077-1.241 7.56-2.031 3.159-.903 6.205-2.257 9.365-2.934 4.964-1.015 6.431-4.062 3.836-8.349-.79-1.354-1.354-3.047-1.918-4.514-1.467-3.272-2.37-6.995-4.514-9.703-2.369-2.934-3.159-5.98-3.046-9.478 0-2.144-.677-3.272-2.708-4.288-2.369-1.241-5.078-2.708-6.093-5.754-.339-.903-1.918-1.467-2.934-1.918-4.062-2.031-8.349-3.724-12.072-6.206-2.144-1.354-3.95-2.595-6.545-2.821-2.933-.225-5.98-.338-8.349-2.933-.79-.903-3.047-1.241-4.401-.903-2.482.564-4.851 1.918-7.221 2.708-2.144.79-4.513 2.144-6.431 1.805-6.319-1.466-11.171 1.806-16.135 4.401-2.708 1.467-5.19 2.821-8.237 3.046-2.595.226-4.062 1.354-5.529 3.836-2.482 4.401-6.205 8.124-8.913 12.525-2.257 3.723-4.739 7.898-5.416 12.073-.452 2.933-.677 5.754-1.805 8.688-1.467 3.836.338 7.898 4.174 9.59 1.806.79 3.724 1.806 5.642 2.144 1.692.226 3.61-1.015 5.19-.677 1.58.339 2.821 2.595 4.4 2.821 4.062.677 8.237.677 12.299.903 2.708.112 5.416 0 8.124.338 4.852.564 9.704-1.58 14.442.451.339.113.903 0 1.242 0 8.688-.677 17.263-2.482 26.064-2.256 3.272 0 6.544-.677 9.929-1.016v-.225Zm-22.566-266.959c-3.273 3.836 1.692 4.287 1.918 6.544 2.143-2.821.677-4.626-1.918-6.544Z" fill="#000"/></svg>