<svg width="473" height="474" viewBox="0 0 473 474" fill="none" xmlns="http://www.w3.org/2000/svg"><path d="M460.247 232.88c1.034-.827 2.069-1.758 2.896-2.844 4.343-5.738 7.393-12.304 8.634-19.181 1.551-8.737 1.758-17.734-3.206-25.902-1.292-2.12-2.119-4.498-1.292-7.083 1.758-5.791.207-10.548-4.395-14.374-1.861-1.551-1.758-4.239.155-5.583 3.464-2.482 5.274-6.411 6.463-9.979 2.895-8.531 2.792-17.527.776-26.316-.776-3.412-2.896-6.463-3.93-9.875-2.792-8.996-9.513-14.166-17.578-17.372-4.912-1.964-10.547-2.378-15.924-2.947-2.585-.258-5.274.827-7.911.983-1.189.051-2.792-.259-3.464-1.086-.827-.983-.569-2.172.31-3.206-2.378-1.137-4.446-2.843-6.256-4.911-3.619-4.24-6.617-8.945-9.358-13.753-.362-.155-.723-.362-1.034-.465.155-.207.259-.466.414-.672-.982-1.758-1.965-3.516-2.895-5.274-.466-.258-.827-.672-1.189-1.137-1.603-2.12-3.206-4.292-4.809-6.463-3.412-4.602-6.463-9.513-10.909-13.39-6.824-5.998-14.166-11.117-22.593-14.58-1.086-.466-2.12-1.138-3.154-1.655-5.791-2.896-11.478-6.204-17.941-7.497-4.084-.775-8.324-.724-12.356-1.603-7.6-1.654-15.253-1.602-22.853-.465-3.05.465-5.532-.31-8.013-1.965-2.896-1.913-5.791-4.084-8.996-5.222-5.636-2.016-11.53-3.257-17.269-4.963-8.168-2.378-16.699-2.378-25.023-2.74-6.825-.31-13.701.724-20.526 1.706-5.17.724-10.289 1.706-14.631 5.377-3.206 2.689-4.188 2.275-7.549-.207-1.189-.879-2.378-1.861-3.774-2.326-4.446-1.551-9.048-2.534-13.856-1.706-2.275.413-4.55.775-6.825.982-7.341.62-13.804 3.309-19.491 7.962-2.327 1.861-4.757 3.464-7.962 2.223-1.396-.517-2.741-1.19-4.136-1.603-6.101-1.602-12.306-1.189-18.458-.62-5.48.517-10.858 1.603-15.356 5.222-.879.672-2.43.827-3.619.724-3.929-.414-7.806-1.086-11.736-1.603-2.533-.31-5.17-.93-7.652-.672-4.24.465-8.427 1.55-12.667 2.326-4.653.828-9.358 1.396-14.01 2.327-2.638.569-5.688 1.034-7.6 2.688-4.189 3.568-7.86 7.756-11.634 11.788-2.068 2.224-2.533 5.79-6.152 6.825-.672.207-.983 1.81-1.448 2.74.879.362 1.81.776 2.689 1.138.361.103.827-.104 1.085.103 3.723 2.12 6.721.155 9.358-2.068 2.068-1.758 3.723-3.206 6.773-2.637 1.758.31 3.774-1.189 5.687-1.55 2.172-.415 3.412-1.655 4.343-3.465 1.086-2.223 2.12-4.446 3.257-6.618.362-.724 1.034-1.344 1.603-1.964l.983.465c-.207 1.24-.31 2.482-.673 3.62-.362 1.085-1.137 2.067-1.654 3.153-.879 1.81-.362 2.843 1.5 3.309 2.688.724 2.895 1.396 2.016 4.084-.983 2.947-2.069 5.894-2.534 8.945-.465 3.05-.465 6.204-.258 9.306.31 5.17 2.275 9.927 4.55 14.528.31.62.568 1.81.258 2.068-2.275 2.12-3.309 5.48-6.98 6.204-6.928 1.396-12.925 5.067-17.992 9.772-3.567 3.309-6.825 7.135-9.306 11.581-2.585 4.602-3.62 9.565-4.291 14.58v.259c.517 12.149 1.189 24.144 5.222 35.519.723.31 1.447.879 1.964 1.757.93 1.448 2.068 2.741 3.206 4.033 3.93 4.498 8.685 7.911 14.32 9.927.673.258 1.449.155 2.173.207l.361-.672c-.93-.879-1.81-1.81-2.74-2.689-3.722-3.205-7.703-6.204-11.167-9.668-4.395-4.395-6.618-10.185-7.342-16.183-.724-6.049-.569-12.201-.517-18.302 0-5.48 1.448-10.599 4.446-15.2 2.379-3.62 4.86-7.135 7.29-10.703 2.585-3.826 6.773-4.808 10.754-6.152.362-.104.827.155 1.965.362-1.396 2.895-2.637 5.635-4.033 8.22-.672 1.241-1.81 2.275-2.275 3.568-.31.827.104 1.964.207 2.998.827-.465 1.654-.879 2.43-1.396.93-.62 1.706-1.757 2.74-1.912 3.258-.569 5.326-2.224 6.101-5.43.724-2.998 1.344-6.048 2.068-9.099.155-.62.31-1.396.724-1.86.362-.414 1.24-.88 1.654-.725.466.207.983 1.086.88 1.603-.104.827-.673 1.654-1.035 2.43-.465 1.034-.982 2.016-1.344 3.05-.724 1.862-1.344 3.723-2.016 5.636-.259.775-.724 1.551-.724 2.326 0 1.345 1.81 2.275 2.223 1.345 1.138-2.379 3.257-2.947 5.377-3.775.465-.155.62-1.034 1.034-1.395.827-.724 1.81-1.241 2.74-1.913 1.086-.776 2.378-1.345 3.206-2.327.93-1.086 1.189-2.844 2.171-3.826 2.327-2.378 3.826-5.067 4.447-8.324.155-.62 1.447-1.55 2.171-1.448 3.464.362 7.135-3.722 6.67-7.134-.517-3.981-.621-8.014-.776-12.047 0-.569.672-1.706.982-1.706.673 0 1.5.517 1.965 1.034.414.465.517 1.24.569 1.861.362 3.568.62 7.083.93 10.65.207 2.482 1.345 3.517 3.62 2.896a47.914 47.914 0 0 0 6.307-2.171c2.482-1.035 3.412-2.844 2.327-5.222-1.293-2.999-.931-6.05-.931-9.048 0-.414.31-.827.672-1.654 1.655 2.998 2.172 5.738 1.965 8.737-.155 2.223-.104 4.446.052 6.67.103 1.602 1.809 2.74 2.688 1.86 2.895-2.688 6.566-1.55 9.823-2.222.931-.207 2.068.568 3.154.93-.62.983-1.241 1.965-1.861 2.896-.104.155-.414.206-.569.31-5.377 3.67-11.633 5.894-16.544 10.392-.466.413-1.241.465-1.862.724-1.034.465-2.274.775-2.947 1.55-2.791 3.206-5.945 6.257-7.962 9.876-3.257 5.997-5.79 12.46-8.53 18.767-1.035 2.327-1.965 4.654-2.896 6.98-1.964 4.808-4.291 9.513-5.894 14.425-2.378 7.29-2.12 14.993-2.223 22.542 0 .569 0 1.344.362 1.758 1.396 1.654 2.844 3.257 4.395 4.705.258.206 1.602-.207 1.912-.673.88-1.344 1.448-2.895 2.275-4.239.517-.827 1.396-2.12 1.965-2.016 2.844.362 3.723-1.448 4.291-3.516 1.551-5.584 2.43-11.168 1.293-16.958-.465-2.327.155-2.792 2.43-2.792.827 0 2.068-.569 2.378-1.189.776-1.707 1.344-3.568 1.551-5.377.259-2.379.052-4.809.052-7.239.517.569.569 1.345.93 1.862.517.827 1.242 1.499 1.862 2.223.672-.672 1.499-1.293 2.016-2.12.931-1.551 1.706-3.205 2.533-4.86.414-.93 1.19-1.913 1.035-2.792-.569-3.877-1.448-7.703-2.068-11.633-.311-2.068-1.293-4.291.413-6.514 2.482 3.309 2.275 7.187 3.154 10.754.207.931.775 1.809 1.189 2.688.931-.517 1.965-.879 2.74-1.551 1.499-1.396 2.947-2.843 4.24-4.446.724-.931 1.706-2.223 1.551-3.205-.62-4.24-1.655-8.428-2.482-12.667-.103-.62 0-1.345 0-2.017l.724-.155c.31.517.776.982.982 1.551a732.594 732.594 0 0 1 3.206 9.927c.672 2.12 1.809 2.74 3.619 1.499 1.551-1.085 2.74-2.585 4.136-3.877.414-.362.879-.724 1.396-.88 1.344-.361 2.688-.723 4.033-.878.982-.155 1.964 0 2.947 0-.155.93-.207 1.861-.517 2.74-1.293 3.205-3.878 5.377-6.308 7.704-1.086 1.034-1.241 1.964-.465 3.36.517.982.93 2.482.517 3.309-1.965 3.826-3.464 7.962-6.98 10.754-2.12 1.706-2.171 2.585-1.034 5.222.362.879.724 2.275.259 2.895-2.792 4.085-4.033 9.255-8.221 12.409-1.706 1.292-2.223 3.05-1.603 5.17.31 1.034.414 2.326 0 3.257-1.396 3.257-3.153 6.359-4.601 9.565-.517 1.137-.621 2.43-.827 3.671-.259 1.344-.001 2.947-.673 3.981-1.396 2.171-3.205 4.136-4.963 6.049-2.223 2.43-2.275 3.05-.93 5.997.465 1.034.568 2.482.258 3.619-1.086 4.033-3.619 7.083-6.618 9.927-1.809 1.706-1.758 2.637.259 3.981 1.551 1.034 2.119 2.378 1.137 3.981-1.292 2.068-2.792 4.033-4.343 5.946-1.396 1.706-2.792 3.464-1.861 5.79 1.034 2.741-.258 4.705-1.758 6.721-1.448 1.965-2.792 4.033-4.084 6.101-.828 1.293-.569 2.43.465 3.619 2.327 2.637 2.326 3.464.465 6.515-1.448 2.326-2.843 4.705-4.343 7.031-1.189 1.81-1.292 3.619-.672 5.739.362 1.241.207 2.74-.103 4.085-.414 1.809-1.086 3.515-1.758 5.273-.414 1.034-.776 2.223-1.551 2.895-1.861 1.707-1.81 3.516-1.19 5.688.363 1.292.57 2.895 0 4.032-1.24 2.844-2.843 5.532-4.497 8.169-1.448 2.223-1.706 4.188-.31 6.67.62 1.085.671 2.947.154 4.136-1.292 3.102-2.947 5.997-4.498 8.944-.879 1.706-.982 3.257 0 5.067.62 1.086.931 2.792.518 3.929a151.078 151.078 0 0 1-5.067 12.357c-.776 1.706-.828 2.947.672 4.085 1.602 1.189 1.654 2.688.879 4.394-1.654 3.619-3.412 7.238-4.963 10.909-.31.776-.31 2.327.206 2.74 2.327 1.965 1.655 4.86.362 7.394-.413.827-1.448 1.809-2.223 1.809-.62 0-1.344-1.241-1.965-1.964-.93-.983-1.654-2.585-2.74-2.844-2.12-.517-2.895-1.81-3.515-3.567-1.241-3.516-2.379-6.98-3.775-10.444-.31-.776-1.447-1.241-2.171-1.861-.517.827-1.086 1.654-1.5 2.585-.155.362 0 .879.104 1.292 1.085 6.515 2.171 13.029 3.154 19.544.103.62-.259 1.344-.414 2.016-.569-.465-1.396-.776-1.706-1.344-.776-1.5-1.293-3.154-1.965-4.705-1.086-2.43-2.12-4.86-3.36-7.238-.259-.518-1.5-.983-2.069-.776-.568.155-1.137 1.189-1.188 1.861-.104 1.551 0 3.154.258 4.653.258 1.707.775 3.361.93 5.015.052.776-.516 1.551-.827 2.327-.62-.465-1.396-.879-1.81-1.499-.465-.621-.516-1.551-.775-2.275-1.964-5.325-3.826-10.754-5.894-16.028-.724-1.758-1.964-3.309-3.205-4.808-.466-.569-1.758-1.189-2.275-.931-.62.362-.93 1.448-1.24 2.327-.156.362-.001.879.102 1.344 1.138 4.964 2.327 9.979 3.413 14.942.258 1.137 0 2.378 0 3.567l-.88.259c-.62-1.034-1.395-1.965-1.912-3.05a566.058 566.058 0 0 1-5.274-11.478c-.31-.724-.879-1.5-.827-2.275.155-2.43-.879-4.291-2.12-6.204-1.861-2.792-1.55-6.204.569-8.686 1.344-1.551 1.24-2.275-.62-3.206-.724-.362-1.5-.672-2.224-1.034-7.134-3.619-11.374-9.565-13.132-17.113-.724-3.206-.414-6.669-.569-10.03-.155-3.154.93-5.998 2.534-8.634 2.481-4.188 6.049-7.239 10.185-9.565 2.999-1.655 6.308-3.154 9.979-1.499 2.584 1.189 3.618.517 4.446-2.275.568-2.017 1.603-3.878 2.43-5.791l.93.31c.052.724 0 1.448.259 2.12.62 1.861.879 4.033 2.068 5.532 1.603 2.017 1.603 3.981 1.344 6.256-.569 4.808 1.241 8.634 4.809 11.84 1.034.879 1.706 2.378 2.068 3.722.465 1.706.206 3.568.568 5.274.465 2.068 1.086 4.188 1.913 6.101.31.723 1.5 1.085 2.327 1.654.155-.879.31-1.706.465-2.585 0-.052-.103-.103-.103-.207-1.5-4.291-1.861-8.737-1.448-13.235.259-2.844 1.086-5.533 3.309-7.601l8.84-8.22c.363-.362.88-.724 1.035-1.138.207-.672.517-1.861.207-2.068-.569-.413-1.706-.672-2.275-.362a23.38 23.38 0 0 0-4.24 2.844c-2.43 2.068-3.774 1.758-5.17-1.034-2.947-5.791-2.378-11.478.259-17.165.465-1.034.827-2.12 1.55-3.774-1.292.362-2.17.362-2.43.775-1.137 1.655-2.946 3.464-2.998 5.222-.103 4.55-3.36 7.135-5.532 10.392-.362.517-1.448.931-2.12.827-.517-.051-1.086-.982-1.292-1.602-.931-2.792-.828-5.377.93-8.014 1.19-1.758 2.792-2.223 4.55-2.792 1.706-.517 2.12-1.551.776-2.688-.724-.621-2.12-.673-3.154-.517-.879.155-1.655.982-2.482 1.447-2.327 1.448-3.516 1.138-4.55-1.292-2.843-6.618-4.911-13.443-4.704-20.733.103-4.188-.104-8.479.827-12.512.93-4.032 2.895-7.91 4.756-11.684 4.447-8.893 11.271-15.459 19.905-20.267 3.206-1.758 5.326-.672 5.067 2.999-.155 2.223-1.137 4.394-2.068 6.462-1.5 3.206-2.016 6.411-.93 9.772.258.879 1.344 1.499 2.016 2.223.672-.776 1.654-1.499 1.861-2.43.414-1.654.465-3.412.517-5.118.259-4.24 3.826-8.997 7.91-10.289 2.896-.931 6.256-1.189 7.29-4.912 0-.051.104-.103.156-.155 2.637-1.396 1.602-3.154.413-4.808-4.808-6.825-5.118-14.011-1.965-21.56.259-.62.672-1.292.62-1.861-.103-.879-.568-1.706-.878-2.533-.776.362-1.81.465-2.223 1.034-2.223 3.309-4.136 6.721-4.136 10.909 0 .672-.259 1.499-.672 2.016-1.862 2.534-4.136 4.86-5.74 7.549-1.55 2.585-3.722 3.826-6.307 4.963-3.567 1.551-7.186 3.205-10.495 5.17-1.861 1.138-3.102 3.309-4.912 4.602-5.377 3.877-8.014 9.616-10.806 15.252-.879 1.757-1.706 3.619-2.171 5.532-1.241 4.808-3.206 9.616-3.257 14.476-.052 5.842 1.085 11.84 2.533 17.579.879 3.464 3.154 6.617 5.067 9.823 2.016 3.361-.827 10.909-4.602 11.788-.31.052-.62 0-.878 0-3.775-.052-7.187.982-10.29 3.206-.827.62-1.757 1.137-2.688 1.602-4.601 2.12-8.479 4.86-10.857 9.617-2.378 4.705-3.98 9.358-3.309 14.683.104.931-.103 1.965-.103 2.895 0 .879-.104 1.81.206 2.534 3.05 7.91 7.6 14.683 14.942 19.336.776.517 1.448 1.758 1.551 2.74.362 2.741.465 5.481.569 8.273.207 4.653.259 9.254 2.792 13.39.207.362.207.828.31 1.293.569 2.688 1.086 5.377 1.603 8.065.155.879.155 1.758.258 2.637l-.62.155c-.31-.465-.672-.879-.879-1.396-1.189-3.05-2.585-5.997-3.464-9.151-1.655-5.739-5.17-10.34-8.427-15.148-.827-1.241-2.172-2.637-3.826-1.707-1.81 1.034-.672 2.637-.155 3.981 1.964 4.964 4.084 9.875 6.049 14.839a45.119 45.119 0 0 1 2.068 6.824c.155.673-.466 1.551-.776 2.327-.62-.414-1.344-.724-1.81-1.241-.413-.465-.465-1.241-.827-1.809-1.964-2.947-3.877-5.946-6.049-8.738-.723-.931-2.326-1.293-3.102 0-.465.827-.62 2.482-.103 3.154 3.257 3.981 3.412 8.892 4.808 13.597-.465 0-.775.155-1.034.052-1.293-.465-2.895-.776-3.309.672-.31 1.138.414 2.637.93 3.878.466 1.137 1.552 2.068 2.017 3.205 2.43 6.204 4.86 12.357 7.083 18.665 1.086 3.153-.982 5.325-4.084 4.653-3.516-.724-6.308 2.016-5.687 5.532.62 3.257 3.154 4.188 5.739 2.12.465-.362 1.034-.776 1.55-.776 6.36-.207 12.77-.775 19.13-.362 6.566.465 13.132 1.655 19.595 3.051 9.1 2.016 18.406 3.102 27.299 6.204 7.807 2.74 15.769 5.067 23.627 7.6.724.207 1.448.362 2.12.569 3.981 1.189 7.962 2.326 11.84 3.67 4.446 1.603 8.841 3.413 13.287 5.119 5.377 2.12 10.858 3.981 16.028 6.463 8.892 4.239 17.63 8.789 26.419 13.339.827.413 1.861 1.602 1.81 2.326-.052.724-1.293 1.603-2.172 2.017-3.309 1.447-6.773 2.585-10.082 4.084-1.809.827-3.515 1.965-5.015 3.257-.62.569-.93 2.068-.62 2.895.465 1.293 1.706 1.758 3.154 1.086.827-.362 1.758-.517 2.481-.982 4.86-3.102 10.392-4.084 15.821-4.963a632.42 632.42 0 0 1 36.915-4.964c7.393-.775 14.89-1.086 22.284-.879 7.651.207 15.252 1.241 22.903 1.862 3.723.31 7.497.206 11.168.93 6.67 1.241 13.339 2.895 19.957 4.498.879.207 1.654 1.034 2.481 1.551-.568.879-1.085 1.81-1.757 2.534-1.655 1.809-3.62 3.309-5.067 5.273-.569.724-.414 2.637.207 3.413.62.723 2.171.93 3.36.93.672 0 1.448-.724 2.017-1.241 2.688-2.43 5.015-5.273 7.962-7.238 8.841-5.894 17.475-12.098 26.988-16.855 8.996-4.549 17.889-9.358 27.04-13.649 15.769-7.445 32.262-12.925 49.117-17.32 8.324-2.171 16.699-4.188 25.075-5.946 8.272-1.757 16.596-3.205 24.92-4.756 2.999-.569 6.049-1.189 7.032-4.55.827-2.74 1.292-5.635 1.706-8.479.362-2.43.362-4.86.62-7.29.259-2.223.879-4.395 1.034-6.618.672-9.099 1.345-18.147 1.81-27.247.465-9.203.569-18.405 1.034-27.608 0-.983.931-2.379 1.861-2.792 1.706-.827 1.448-1.5.569-2.74a14.189 14.189 0 0 1-1.655-3.309c-.62-1.706-1.447-3.154-3.36-3.516-1.81-.362-2.895.672-3.878 2.016-1.344 1.862-2.223 1.81-3.619 0-1.086-1.447-2.171-1.499-3.619-.517-.672.466-1.706.724-2.482.569-1.706-.362-2.481.31-2.947 1.861-.362 1.138-.879 2.224-1.292 3.361h-.724c-.672-1.137-1.189-2.43-2.017-3.516-.672-.827-1.706-1.396-2.585-2.068-.465.931-1.189 1.758-1.395 2.74-.259 1.086-.414 1.81-1.758 1.758-3.103-.155-3.671.414-4.188 3.619-.259 1.551-.724 3.051-1.138 4.912-.93-.672-1.292-1.034-1.706-1.293-.879-.517-1.913-1.447-2.585-1.24-.672.206-1.448 1.602-1.448 2.43a468.171 468.171 0 0 0 0 17.009c0 2.43.466 4.912.569 7.342 0 .569-.414 1.189-.62 1.758-.517-.362-1.241-.569-1.551-1.086-.621-1.086-1.034-2.275-1.448-3.464-.879-2.688-1.499-5.429-2.533-8.014-.414-1.034-1.655-2.43-2.482-2.378-1.655.104-1.913 1.81-1.913 3.309 0 .465.103.931 0 1.344-.103.879-.31 1.758-.517 2.74-.775-.206-1.138-.31-1.5-.361-2.533-.517-3.412.206-3.36 2.843 0 .879.258 1.758.465 2.637.414 1.81.931 3.567 1.19 5.429.103.62-.363 1.344-.569 2.068-.621-.31-1.396-.466-1.862-.931-.775-.879-1.24-2.171-2.119-2.843-.827-.621-2.172-1.086-3.154-.879-.517.103-.982 1.861-.879 2.791.31 2.637-.465 3.723-3.206 3.775-8.634.155-17.268.31-25.902.362-9.513.051-19.026 0-28.539 0h-64.369c-8.065 0-16.183-.362-24.248-.414-6.876 0-13.804.362-20.681.362-5.635 0-11.323-.414-16.958-.362-4.343 0-8.634.517-12.977.827-2.12.155-3.102-.827-3.619-2.792-1.034-3.877-1.965-7.858-3.671-11.529-2.844-6.101-6.204-11.943-9.306-17.941-1.551-2.947-3.412-5.79-4.447-8.892-1.499-4.395-2.585-8.945-3.567-13.495-1.292-6.049-1.603-12.098.155-18.147.62-2.223 1.293-4.394 1.913-6.618.465-1.706-.569-4.084-1.706-3.774-.879.207-1.81 1.5-2.223 2.534-.828 2.068-1.293 4.239-1.862 6.411-1.034 3.826-1.861 7.755-3.153 11.529-2.534 7.29-5.326 14.425-7.911 21.663-1.758 4.86-3.36 9.772-4.963 14.735-.465 1.396-.724 2.844-1.086 4.291h-.827c-.569-.879-1.241-1.758-1.603-2.74-2.74-7.497-5.222-15.097-8.117-22.594-1.086-2.843-2.895-5.48-4.601-8.117-.776-1.241-2.275-1.758-3.413-.465-1.137 1.292-.103 2.275.879 3.205.879.879 1.965 1.758 2.379 2.844a1262.23 1262.23 0 0 1 9.926 27.764c.724 2.171 1.086 4.446 1.345 6.721.465 4.498-2.637 8.066-3.361 12.305-.414 2.275-2.172 2.999-4.395 2.895-5.222-.258-10.495-.465-15.717-.672-3.051-.103-6.101 0-9.151-.051-1.396 0-2.792-.104-4.24-.104h-19.13c-1.654 0-3.308-.103-4.86.259-.878.206-1.602 1.137-2.378 1.757.672.569 1.241 1.19 1.965 1.603 1.758.931 1.965 1.655.465 2.947-1.602 1.345-3.257 2.637-5.066 3.671-.88.517-2.12.362-3.154.569 0-1.189-.104-2.378.103-3.516.103-.517.775-.879 1.137-1.344 1.5-1.965 2.327-3.826 1.5-6.566-.62-2.12 0-4.653.258-7.032 0-.465.672-1.034 1.138-1.241 2.016-.93 1.913-2.585 1.706-4.394-.31-3.309-.672-6.67-.827-9.979-.052-1.602.362-3.05 2.223-3.67 1.654-.569 2.016-2.017 1.965-3.62a680.474 680.474 0 0 1-.156-14.528c0-1.034.31-2.275.88-3.153 1.757-2.792 2.274-5.791 1.86-8.945-.516-3.981-.62-7.859 2.327-11.167.57-.621.724-1.758.724-2.689.103-3.826 0-7.652 0-11.478 0-1.913.776-3.309 2.172-4.653 1.085-1.086 2.068-2.688 2.223-4.136.413-4.395.362-8.789.568-13.236.052-1.034.414-2.274 1.086-2.998 3.206-3.516 3.464-7.601 2.43-11.943-.362-1.5-.207-2.637.931-3.62 2.068-1.654 2.533-3.981 2.637-6.411.051-1.809.103-3.619.051-5.428-.051-2.12.724-3.619 2.482-4.912 1.034-.724 1.913-2.12 2.172-3.361.723-3.722 1.137-7.496 1.551-11.27.206-1.913 1.033-2.792 2.998-2.792.672 0 1.81-.673 1.862-1.19.31-2.119.517-4.291.31-6.411-.31-3.102.206-5.842 2.119-8.427.828-1.137 1.5-2.585 1.758-3.981.517-2.637.569-5.325 1.034-7.962.207-1.086.776-2.482 1.603-3.05 1.655-1.138 2.016-2.689 2.327-4.395.361-2.171.362-4.498 1.034-6.618 1.292-3.981 1.809-8.531 6.256-10.806.723-.361 1.137-1.654 1.292-2.585.155-1.137 0-2.378-.207-3.567-.413-3.102-.465-6.101 1.913-8.634.362-.414.362-1.086.621-1.655.569-1.396 1.085-2.843 1.706-4.239.413-.931 1.034-1.81 1.344-2.792.62-1.913 1.034-3.878 1.706-5.791.31-.827.983-1.499 1.5-2.223l.775.207c0 .879.259 1.861 0 2.585-1.396 3.567-2.947 7.135-4.498 10.651-.465 1.085-1.655 2.223-1.499 3.153.723 4.395-1.913 8.118-1.913 12.305 0 1.19-.466 2.586 0 3.464.465.828 1.965 1.086 3.102 1.655-.62 2.688-1.706 5.635-1.862 8.634-.206 3.102-1.085 5.791-2.533 8.427-1.551 2.844-2.999 5.843-4.498 8.686-1.086 2.017-1.551 3.826.569 5.584.568.465.568 1.706.672 2.637.052.569-.414 1.344-.207 1.706 1.913 3.257.931 6.825 1.293 10.289.051.568.155 1.241.465 1.654.672.776 1.551 1.396 2.327 2.068.723-.879 1.551-1.706 2.068-2.74.413-.827 0-2.327.62-2.74 3.154-2.482 2.896-5.429 1.758-8.686-.103-.362.465-.931.775-1.396.466.31.983.569 1.345.931.258.258.258.723.517.982.465.414 1.034.724 1.551 1.086.414-.569 1.137-1.189 1.085-1.706-.103-1.603-.568-3.206-.827-4.809-.206-1.189-.258-2.378-.362-3.567l.828-.155c.413.93.827 1.861 1.292 2.74.724 1.448 1.913 1.706 3.206 1.034 2.12-1.137 3.774-4.86 3.05-7.187-.672-2.016-1.706-3.877-2.637-5.79-.258-.621-.775-1.138-.827-1.758-.052-.465.155-1.344.517-1.448.414-.155 1.241 0 1.551.414.62.776.931 1.861 1.603 2.637.568.724 1.499 1.706 2.171 1.602.828-.103 1.758-1.085 2.172-1.861.569-1.086.724-2.378.93-3.619.259-1.499.362-2.792-1.344-3.826-1.809-1.086-1.499-3.877.207-5.17.982-.724 1.861-1.706 2.999-2.74 3.722.62 5.015-.776 4.084-5.015-.103-.569-.362-1.086-.517-1.706-.31-1.189-.724-2.43-.775-3.671-.104-3.93-1.138-7.497-3.775-10.496-.413-.465-.827-1.137-.879-1.757-.103-.569.259-1.19.414-1.81.621.155 1.396.155 1.81.517.62.569.93 1.603 1.602 2.12.621.517 1.603.672 2.379.93.31-.879 1.085-1.964.827-2.636-.569-1.5-1.603-2.792-2.534-4.137-.62-.93-1.551-1.706-1.964-2.688-.207-.517.155-1.655.62-1.965 2.482-1.706 2.74-2.481 2.327-5.428-.466-3.258-.621-6.515-.724-9.824 0-.775.569-1.602.879-2.378h.879c1.086 1.861 2.12 3.774 3.309 5.636.362.568 1.241 1.189 1.861 1.189.517 0 1.292-.776 1.499-1.345.621-1.654 1.345-3.412 1.396-5.17.155-4.084 1.913-7.445 4.136-10.65.414-.62 1.19-.931 1.81-1.396l.724.569c-.517 1.344-1.189 2.636-1.551 3.98-1.448 5.533-2.74 11.065-4.188 16.597-.31 1.137-1.034 2.223-1.137 3.36-.104 2.068 4.653 8.014 6.773 8.531 1.809.414 2.636 1.551 3.463 3.154a23.964 23.964 0 0 0 3.568 5.222c2.068 2.223 4.446 4.136 6.566 6.256 2.482 2.481 3.878 2.171 5.17-1.086.672-1.655 1.603-3.154 2.585-4.602.311-.465 1.241-.465 1.913-.672.207.673.517 1.345.569 2.017 0 .568-.31 1.137-.569 1.654-1.085 2.017-2.171 4.033-3.36 6.049-1.448 2.482-.311 6.36 2.274 6.773 2.224.31 1.81 1.241 1.655 2.896-.31 3.308-.207 6.669-.104 9.978 0 .569 1.034 1.551 1.551 1.499.621-.051 1.293-.879 1.758-1.499.259-.362.104-1.034.259-1.499.569-2.017.413-4.447 3.154-6.153.103 1.551.517 2.74.207 3.774-.931 3.413-2.275 6.722-3.206 10.186-.879 3.257-2.12 6.721-1.81 9.926.259 2.689 1.655 5.377 1.552 8.324 0 .621 1.034 1.862 1.447 1.81.776-.104 1.81-.827 2.017-1.5.827-2.378 1.396-4.808 1.913-7.29 1.189-5.738 2.429-11.426 3.412-17.216.568-3.516 1.189-7.135.827-10.599-.982-8.531-5.015-16.338-6.308-24.868-.775-5.326-3.981-9.359-7.755-12.978-.827-.827-1.292-2.068-1.913-3.153-.62-1.19-1.034-2.482-1.809-3.516-2.017-2.895-4.188-5.739-6.308-8.583-.827-1.137-.62-2.12.62-2.481 2.275-.62 2.379-2.068 1.965-3.981-.207-.88.104-1.913.207-2.844.776.62 1.551 1.24 2.326 1.913.155.155.207.414.259.62 1.603 4.395 4.912 6.773 9.306 7.756 2.327.517 3.413-.362 3.309-2.792 0-.672-.103-1.344-.258-1.965-.931-3.102-1.965-6.204-2.844-9.358-.258-.879 0-1.913 0-2.843l.827-.156c.466.62 1.035 1.19 1.345 1.862 2.275 5.325 4.446 10.702 6.824 15.976.465 1.085 1.396 2.119 2.379 2.74 1.344.879 2.946 1.344 4.498 1.913 2.533.879 4.084-.155 3.929-2.792-.155-2.999-.569-6.05-.879-9.048-.103-1.19-.362-2.689 1.293-2.74.62 0 1.757 1.292 1.861 2.12.62 4.136.982 8.324 1.344 12.46.207 2.119.362 4.188 2.688 5.273 1.965.879 3.878 2.017 5.894 2.74.879.311 2.43.311 2.947-.258.621-.672.828-2.12.673-3.154-.311-2.275-.983-4.498-1.345-6.773-.103-.465.517-1.086.776-1.654.465.31 1.189.517 1.344.93.724 1.862 1.861 3.775 1.758 5.688-.155 3.722 1.448 6.359 4.033 8.582.827.724 2.068 1.344 3.102 1.293 1.603 0 2.326.413 2.585 1.964.414 2.534 2.016 4.085 4.394 4.86 2.43.776 2.637 2.482 2.689 4.705.155 5.067.465 10.134.982 15.149.155 1.499 1.189 3.05 3.206 3.205 3.309.207 3.619.672 3.102 3.929-.155 1.035-.31 2.12-.103 3.154.103.672.723 1.396 1.292 1.862 1.189.827 2.585 1.395 3.774 2.223 2.172 1.499 3.775 1.189 4.24-1.396.31-1.706-.259-3.568-.362-5.377-.465-7.497-1.086-14.942-3.878-22.077-2.119-5.429-3.567-11.116-5.377-16.648-1.551-4.86-4.394-8.634-9.306-10.702-2.843-1.189-5.687-2.585-8.272-4.24-3.051-1.913-5.739-4.394-8.79-6.307-3.826-2.482-8.117-4.24-11.115-7.962-.672-.828-2.068-1.086-3.154-1.396-2.378-.62-4.808-1.034-7.135-1.655-4.136-1.085-8.014-3.102-12.512-3.05-.775 0-1.551-.776-2.378-1.19.776-.62 1.499-1.24 2.275-1.809.207-.155.569 0 .879 0 2.378 0 4.601-.258 6.359-2.223.31-.362 1.241-.465 1.81-.362 3.929.983 3.929 1.034 5.377-2.481.672-1.655 1.395-1.81 2.533-.517.413.465.672.982.982 1.499.776 1.137 1.603 2.275 3.257 1.55 1.758-.775 2.586-2.17 1.913-3.98-.775-1.965-2.016-3.826-2.791-5.79-.311-.776-.207-1.862 0-2.69.051-.31 1.292-.775 1.447-.62.621.672 1.034 1.5 1.448 2.275.103.155 0 .466 0 .672.362 1.965.568 4.033 1.137 5.946.931 3.154 7.652 4.55 9.979 2.068.414-.413.517-1.396.413-2.016-1.085-4.602-2.275-9.203-3.309-13.805-.103-.517.362-1.189.621-1.81.569.208 1.396.311 1.654.725.672 1.034 1.344 2.171 1.655 3.412.879 3.206 1.602 6.463 2.275 9.72.361 1.913 1.344 2.688 3.257 2.637 2.843-.104 5.894.672 8.272-2.43.672 2.998 1.654 5.17 4.601 5.635.621.104 1.19.724 1.81.776 1.138 0 2.533.155 3.412-.414 1.241-.775 2.223-1.965 1.551-3.826-.31-.827-.155-1.861-.206-2.792l1.189-.103c.155 1.034.517 2.068.413 3.05-.517 3.36 1.5 7.497 4.55 8.531.931.31 2.585.259 3.154-.362.672-.775.724-2.223.776-3.412 0-.672-.363-1.396-.518-2.12l.621-.207c.259.517.724 1.086.775 1.603.414 4.343 2.741 7.6 5.791 10.495 2.482 2.379 5.998 2.948 8.583 5.48 1.706 1.655 5.015 1.604 7.651 2.327.517-.775.931-1.706 1.603-2.378 1.81-1.758 1.241-3.102-.155-4.963-2.534-3.413-6.721-5.326-8.117-9.668-.155-.414-.827-.62-1.189-.983-1.086-1.137-2.482-2.171-3.206-3.515-2.378-4.188-6.101-6.722-10.288-8.583-4.292-1.913-8.79-3.412-13.133-5.118-1.292-.517-2.585-1.138-3.825-1.758-5.894-2.999-12.771-3.93-18.096-8.22-1.344-1.087-2.585-.828-3.981-.311-1.5.569-2.999 1.344-4.55 1.706-3.154.672-6.411 1.086-9.616 1.758-2.844.569-4.292 0-5.894-2.068-.517-.672-1.707-.879-2.534-1.344-.31.93-.724 1.81-.982 2.74-.207.672-.155 1.913-.517 2.016-4.188 1.396-8.479 2.585-12.719 3.826-1.292.362-2.637.724-3.981.93-.827.104-2.068.26-2.43-.154-1.292-1.707-2.998-3.516-3.309-5.48-.362-2.379-1.085-3.568-3.309-4.344-.775-.258-1.396-1.602-1.706-2.585-.155-.465.672-1.758.931-1.758.93.104 2.12.362 2.688 1.035 2.275 2.636 4.343 5.48 6.566 8.168.621.724 1.965 1.861 2.224 1.706.982-.672 1.809-1.706 2.326-2.791.414-.776.31-1.81.465-3.206 3.206 2.533 5.533.93 7.859-.827 2.068-1.603 2.12-3.257.414-5.274-1.861-2.223-3.464-4.653-5.015-7.083-.776-1.189-.776-2.792.62-3.516 1.499-.775 2.275.517 2.895 1.655 1.345 2.482 2.741 4.963 3.981 7.445 1.345 2.688 2.585 3.257 4.705 1.189 3.412-3.257 7.859-3.257 11.995-4.188.62-.155 1.448.207 2.12.466 3.154 1.344 3.774 1.137 5.17-1.913.155-.31.465-.517.931-1.035.362.828.517 1.5.879 1.965.723.93 1.396 2.172 2.378 2.637 1.344.62 2.481-.31 3.412-1.448.517-.672 1.499-1.034 2.275-1.499.465.827.879 1.706 1.448 2.482.569.827 1.292 2.171 1.964 2.171 3.361.104 6.773-.155 10.186-.258 2.843-.052 2.843-.104 2.792-2.896 0-.879.62-1.81.93-2.688.827.724 1.706 1.396 2.378 2.223.259.31 0 1.086.259 1.5.62 1.137 1.137 2.74 2.068 3.101 2.688 1.035 4.343 3 5.998 5.119.568.724 2.223 1.448 2.791 1.086 2.379-1.5 3.516-.31 4.705 1.55 1.293 1.965 2.895 3.465 5.584 2.379.517-.207 1.448-.052 1.913.31 3.309 2.637 5.894.465 8.841-1.24-.569-.31-.931-.57-1.293-.776-3.619-1.5-6.669-3.723-9.151-6.825-1.654-2.12-3.464-4.446-5.739-5.635-2.481-1.293-2.119-5.377-5.739-5.17-.258 0-.775-.931-.827-1.448-.103-2.792-2.12-3.206-4.24-3.774-2.636-.672-5.273-1.5-7.858-2.275-.827-.259-1.655-.672-2.482-.88-3.774-.775-7.548-1.498-11.271-2.274-4.291-.879-8.53-1.965-12.822-2.637-3.877-.568-7.91-.413-11.788-1.034-3.205-.517-6.618-1.189-9.254-2.843-2.172-1.345-3.981-3.154-6.721-3.464-.518-.052-1.241-.776-1.293-1.293-.052-.414.62-1.137 1.086-1.396.982-.517 2.016-1.034 3.102-1.24 10.857-2.224 21.818-3.516 32.934-2.793 4.291.259 8.634.724 12.873 1.448 2.947.517 5.739 2.016 8.738 2.533 6.256 1.086 12.305 2.637 17.889 5.74.775.413 1.189 1.499 1.809 2.274-.827.517-1.602 1.19-2.533 1.5-2.016.672-4.188.982-6.153 1.809-.775.31-1.085 1.603-1.654 2.43 1.034.31 2.171.982 3.102.827 2.12-.362 4.084-1.292 6.204-1.706 3.257-.724 6.877-2.378 9.772-.362 3.154 2.223 5.739 5.429 8.169 8.531 1.086 1.396.103 2.688-1.706 2.378-1.448-.207-2.896-.93-4.085-1.81-1.137-.826-1.861-2.274-3.05-.103-.104.207-1.448 0-1.448 0-.31-3.05-2.223-3.05-4.549-2.637-.673.104-1.448-.206-2.172-.31-1.81-.258-3.619-.62-5.429-.724-.672 0-1.809.466-1.964.983-.156.569.362 1.55.879 2.068 1.499 1.396 3.153 2.688 4.859 4.136 1.293-1.137 2.896-1.758 4.188.362 1.138 1.913 2.43 1.913 4.24.879 2.171-1.19 3.464-.672 4.705 1.55.775 1.397 1.913 1.81 3.412 1.449.517-.104 1.086-.414 1.499-.259.931.362 1.758.93 2.689 1.396-.621.724-1.189 1.5-1.913 2.068-.724.569-1.758.827-2.378 1.5-.414.465-.724 1.447-.517 1.964.206.517 1.137.776 1.809.982.724.207 1.551 0 2.172.207 2.74.983 4.394.207 5.066-2.533.569-2.43 1.551-2.895 3.878-1.965.827.31 1.655.569 2.482.827l.207-.672c-1.862-1.034-3.568-2.378-5.998-2.223-.982.052-2.688-.155-2.947-.724-.362-.879.31-2.12.517-3.205.104-.724.31-1.5.155-2.223-.207-1.086-.775-2.068-.93-3.154-.414-3.05-3.206-4.136-4.912-6.153-.62-.775-.827-1.913-1.241-2.843 1.034-.31 2.068-.88 3.102-.828 7.704.518 15.356 1.138 23.008 1.707 6.514.465 12.563 2.843 18.457 5.428 4.084 1.81 7.962 4.188 11.891 6.308.362.207.828.31 1.241.465 3.93 1.448 7.032 4.136 10.082 6.825.983.879 1.396 2.326 2.378 3.154 1.862 1.602 3.102 4.188 6.153 4.084.207 0 .465.362.672.569 7.445 6.928 13.029 15.252 17.061 24.558.362.776.001 1.861-.103 2.792-.879-.258-1.809-.414-2.585-.827-1.499-.776-2.844-1.81-4.291-2.637-1.5-.879-3.154-1.603-4.55-2.637-1.603-1.189-3.154-1.758-4.86-.413-.465.413-.724 1.137-1.034 1.706.62.155 1.189.258 1.81.465.827.259 2.223.31 2.43.827 1.344 3.516 4.239 5.067 7.393 6.308 6.101 2.378 8.738 10.857 8.531 15.976 0 .827-.983 1.86-.724 2.378.879 1.861-.207 2.999-1.189 4.24-.983 1.24-1.448 2.481-.155 3.722 1.861 1.758 3.412 1.913 4.963.62 3.412-2.843 11.168-2.585 14.27.621 1.241 1.292 2.223 2.792 3.36 4.188 1.086 1.292 2.637 1.396 2.792.207.207-1.655.466-3.258-1.241-4.654-2.068-1.706-3.774-3.826-5.377-5.945-1.241-1.603-.672-3.154 1.034-3.36 3.051-.415 6.101-.931 9.152-.88 3.309.104 6.669.569 9.926 1.344 6.36 1.5 11.737 4.86 16.286 9.565 4.343 4.498 3.981 11.013 6.825 16.183v.207c.827 4.136 1.241 8.22.414 12.408-1.241 6.101-2.017 12.305-3.309 18.406-.879 4.136-2.844 4.601-5.843 1.861-.672-.62-1.809-.672-2.792-.931.259.983.518 2.017.828 2.947.103.311.62.517.775.828 1.396 2.843 2.947 5.635 3.93 8.582.31 1.034-.983 2.585-1.551 3.878-.931-.569-1.81-1.138-2.741-1.655-2.378-1.189-4.705-2.481-7.135-3.309-.62-.206-1.706.983-2.585 1.551.517.828.931 1.81 1.655 2.379.775.569 1.913.724 2.895.93 3.05.724 5.325 2.172 6.101 5.429.258.982.931 1.913 1.137 2.895.156.983-.051 2.017-.155 2.999-1.034-.052-2.068-.052-3.102-.207-.517-.051-.931-.568-1.396-.62-1.551-.155-3.671-1.138-4.239 1.086-.517 2.016 1.396 2.688 3.102 2.843 3.412.414 5.118 2.689 6.256 5.636.31.775.413 1.602.879 2.275.31.465 1.034.672 1.551 1.034.31-.517.827-1.086.879-1.603 0-.879-.259-1.758-.414-2.585-.31-1.655-.776-3.309-.931-5.015-.051-.569.621-1.241.983-1.862.465.362.982.724 1.447 1.086.621.465 1.241 1.396 1.862 1.396 2.585.103 3.257 1.81 3.929 3.826 2.12 5.997 1.603 12.202.672 18.199-1.137 7.238-3.929 14.011-8.376 19.957-2.171 2.843-4.239 6.256-8.892 4.55-.207-.052-.517-.104-.673 0-.723.413-1.809.775-2.016 1.396-.206.62.259 1.861.827 2.274 1.293.931 2.896 1.396 4.292 2.224.93.517 2.016 1.189 2.43 2.068 1.447 3.05 1.137 6.256.362 9.409-.362 1.5-1.448 1.5-2.327.517-.827-.93-1.292-2.223-2.12-3.102-.568-.62-1.551-.827-2.378-1.189 0 .879-.362 2.016.052 2.533 3.257 4.033 2.636 8.48 1.602 12.978-.258 1.034-.258 2.171-.362 3.205l.724.414c.672-.724 1.5-1.344 2.069-2.172.517-.775.568-1.861 1.137-2.636.517-.724 1.396-1.603 2.12-1.655.724 0 1.757.827 2.119 1.551a9.746 9.746 0 0 1 .983 3.826c.258 5.791-2.224 10.754-5.326 15.304-1.292 1.913-3.36 3.36-5.221 4.86-.466.413-1.396.258-2.12.362-.104-.724-.31-1.448-.207-2.12.052-.724.672-1.448.569-2.12-.155-1.034-.569-2.068-1.086-2.999-.155-.31-1.396-.465-1.448-.362-.413.776-.93 1.707-.878 2.534.31 3.981-1.035 7.29-3.516 10.288-1.086 1.293-1.758 2.947-2.844 4.757 1.137 0 1.655.103 2.172 0 2.43-.517 3.464.207 3.722 2.689.103 1.344 0 2.688.104 4.032.206 1.81.516 3.568.827 5.739 2.947-1.913 3.67-4.394 3.205-6.876-.517-2.689-1.964-5.222-2.74-7.859-.31-1.086-.258-2.585.31-3.412.362-.517 2.275-.362 3.154.103 2.637 1.396 4.55 3.516 5.118 6.618.156.776 1.19 1.396 1.81 2.12.362-.931 1.189-2.017.982-2.74-.724-2.224-1.603-4.447-2.895-6.36-1.448-2.171-1.654-2.895.569-4.291 2.947-1.809 4.756-4.55 6.152-7.548 3.258-6.928 3.981-13.805-.879-20.474-.827-1.138-.568-3.206-.465-4.808.104-1.603 1.034-3.206.879-4.757-.259-2.689-.879-5.377-1.655-8.014-.982-3.205-.827-3.877 1.81-5.894l-.052-.155ZM43.894 273.052c.517-.775 1.499-1.654 2.275-1.706.62 0 1.499 1.086 1.86 1.861.983 1.965 1.759 4.033 2.637 6.153-.413.879-.775 1.706-1.137 2.482-.775 1.551-1.654 3.102-2.43 4.704-.724 1.5-2.171 1.707-3.154.311-.724-.983-1.447-2.224-1.602-3.361-.362-3.567-.569-7.186 1.447-10.392l.104-.052Zm20.215-84.377c1.086-2.895 2.327-5.739 3.878-8.376.982-1.654 2.585-1.447 3.567.207 1.138 1.81 2.172 3.671 3.257 5.532.62 1.086.931 2.12-.724 2.585-2.481.724-4.911 1.5-7.393 2.224-.258.103-.569.103-1.448.31-.361-.776-1.395-1.861-1.189-2.482h.052Zm337.043 175.424 2.068 2.482c-2.171.362-2.895-.207-2.947-1.551 0-.311.569-.621.879-.931Zm-231.985-48.703c.052-.465.982-.776 1.964-1.499 1.913 1.551 3.723 2.998 5.429 4.549.207.207.104 1.189-.155 1.396-.362.311-1.189.466-1.603.259-1.654-.776-3.36-1.551-4.86-2.585-.517-.362-.827-1.396-.775-2.068v-.052Zm-.414 7.445c1.81.465 3.361.62 4.653 1.293 2.637 1.344 5.171 2.895 7.652 4.549.672.466.982 1.551 1.448 2.327-.879 0-1.81.258-2.637 0-1.189-.362-2.275-1.034-3.412-1.551-2.585-1.086-5.222-2.068-7.755-3.309-.776-.362-1.241-1.293-1.81-1.965l1.81-1.344h.051Zm-1.809 5.532c3.05 1.499 6.049 2.895 8.996 4.395 2.12 1.085 4.136 2.275 6.152 3.515 1.655.983 3.309 2.017 4.809 3.206.362.258.413 1.499.103 1.861-.31.362-1.499.569-1.861.31-1.707-1.344-3.361-2.688-4.757-4.342-2.637-3.154-6.411-3.826-10.03-4.757-1.344-.362-2.792-.517-4.084-.982-.621-.259-1.035-1.138-1.552-1.707l2.224-1.447v-.052Zm-.931 9.048c3.722 1.965 7.342 4.188 11.064 6.152 3.516 1.862 7.187 3.413 10.754 5.222 1.5.776 3.154 1.655 4.24 2.896 1.086 1.24.31 2.43-1.81 2.481-.362-.155-1.189-.31-1.861-.724-3.206-1.861-6.308-3.877-9.513-5.687-3.516-1.913-7.135-3.619-10.651-5.48a21.893 21.893 0 0 1-3.722-2.43c-.569-.465-.724-1.448-1.034-2.223.879-.104 1.964-.517 2.585-.207h-.052Zm-6.98 7.238c.362-.465 1.913-.465 2.637-.103 4.291 2.171 8.479 4.601 12.77 6.773 5.688 2.895 11.478 5.635 17.217 8.427.517.259 1.189.414 1.551.827.517.517 1.189 1.344 1.086 1.913-.103.569-1.086.983-1.861 1.655-3.257-1.189-6.721-1.706-9.41-3.516-6.618-4.498-13.701-7.91-21.146-10.702-1.189-.414-2.326-1.345-3.05-2.379-.466-.672-.311-2.171.155-2.791l.051-.104Zm7.807 28.074c-.517-1.809-2.326-3.826.104-5.584.413-.31 1.137-.362 1.706-.362 2.688 0 5.377-.051 8.065 0 2.482.104 5.067 2.792 5.015 5.739-.413.311-1.034 1.241-1.809 1.396-3.257.724-6.514 1.189-9.823 1.758-2.275.362-2.844-1.447-3.258-2.947Zm.673 9.979c-3.258 1.085-6.515 1.189-9.824-.259 3.257-1.603 6.515-.103 9.824.259Zm-8.48-29.781c.828 0 1.655.621 2.43 1.034 2.43 1.293 4.86 2.534 7.135 3.982.776.465 1.189 1.551 1.758 2.326l-2.327 1.499c-1.602-.723-3.05-1.24-4.342-2.016-1.965-1.137-3.93-2.378-5.739-3.723-.776-.568-1.241-1.55-1.81-2.378.982-.258 1.965-.775 2.947-.724h-.052Zm-3.774 6.98c1.344.104 2.74.724 2.43 2.482-.103.62-.931 1.137-1.913 2.275l-2.533-3.309c.672-.517 1.344-1.5 2.016-1.448Zm-6.359 12.874c1.706-2.172 6.101-4.188 8.789-4.188 2.637 0 4.343 1.603 4.55 4.136.155 1.965-1.551 3.154-4.24 3.102-2.481-.051-5.015 0-7.497 0-.723 0-1.809-.31-2.067-.827-.259-.517-.001-1.654.465-2.171v-.052Zm-60.44 8.531c2.482-2.844 5.016-5.739 7.756-8.324 1.913-1.81 2.481-2.844 1.602-5.481-1.085-3.309.207-4.756 3.723-4.291 1.758.207 3.567.414 5.325.414 10.599.155 21.146.31 31.745.362 2.017 0 4.033-.311 6.049-.311 2.327 0 2.947.931 2.068 3.102-.206.569-.62 1.034-.775 1.603-1.034 4.757-3.619 7.032-8.738 6.153-2.171-.362-2.843 1.034-2.223 3.102.31 1.086.569 2.947 0 3.412-.931.776-2.585.879-3.929.931-2.637 0-5.326-.414-7.962-.259-2.999.207-3.413 1.189-2.482 3.93.207.62 0 1.551-.31 2.223-.931 2.016-.621 2.74 1.499 3.05.931.155 1.965.155 2.895.155 1.862-.103 3.258.466 4.447 2.068.413.569 1.913.931 2.482.621 2.895-1.706 5.79-3.516 8.427-5.636 1.344-1.085-.207-1.809-1.086-2.481-.517-.414-.879-1.034-1.344-1.551.672-.207 1.292-.517 2.016-.621 1.034-.207 2.068-.258 3.102-.362 1.448-.155 2.637 0 3.723 1.396.724.879 2.171 1.396 3.36 1.655 1.396.258 2.844-.052 4.24.103 1.086.155 2.12.62 3.205.982v.828c-1.499.62-3.05 1.137-4.549 1.809-.983.414-2.534 1.034-2.585 1.603-.052 1.086.465 2.637 1.344 3.309 1.447 1.241 2.275 2.43 2.172 4.343 0 .568.827 1.706 1.292 1.758 1.189.051 2.482-.156 3.567-.673 1.241-.568 2.172-1.706 3.361-2.378 1.344-.775 1.654-1.654.724-2.895-1.241-1.603-.724-2.43 1.034-3.102.827-.31 1.809-1.086 2.016-1.861.672-2.844 2.896-3.206 5.119-3.413 2.068-.155 3.722-.413 3.619-3.102 0-.465 1.241-1.396 1.861-1.344 4.033.155 8.014.414 12.046.775 2.017.156 3.982.569 5.946.879.983.155 1.965.466 2.947.672v.569c-.517.207-1.086.569-1.654.621-2.585.206-5.222.62-7.756.413-3.774-.31-6.617 1.344-9.668 3.826l4.964 4.395c-.621.258-1.19.672-1.758.724-3.413.413-6.773.672-10.186 1.034-1.085.103-2.274.206-3.257.568-.568.207-1.344.983-1.344 1.5s.776 1.447 1.344 1.499c1.965.259 3.93.31 5.894.31 3.154 0 6.308-.155 9.462-.258 1.344 0 2.843.155 4.084-.31 3.102-1.086 6.153-1.293 9.41-.724 2.792.517 5.739.517 8.582.465.931 0 1.862-1.034 2.74-1.551-.672-.827-1.137-2.016-1.964-2.378a14.824 14.824 0 0 0-5.015-.879c-4.55 0-9.151.207-13.701.31-.931 0-1.913-.31-3.05-.517.62-1.448 1.034-2.895 1.861-4.084.413-.621 1.447-1.086 2.223-1.138 3.154-.103 6.308 0 9.461-.052 1.086 0 2.224-.517 3.309-.775l-1.241-3.464c.466-.259 1.345-.621 2.017-1.189.465-.362.931-1.138.827-1.603-.103-.465-.931-1.034-1.448-1.086-1.499-.155-2.998 0-4.498 0-2.895-.051-3.774-1.086-3.619-3.981.104-2.068-1.034-3.154-2.895-3.671-.983-.258-2.12-.258-3.102-.568-1.551-.466-2.741-1.655-2.43-3.309.31-1.603 1.861-1.603 3.309-1.241 2.792.724 5.583 1.499 8.375 1.965.776.155 2.069-.414 2.43-1.034.517-.879.517-2.12.569-3.258.155-2.068 1.138-2.895 3.206-2.688 3.102.31 6.255.827 9.358.93 4.291.052 8.53-.31 12.822-.31 5.532-.051 11.064.052 16.596 0 2.068 0 4.136-.465 6.204-.413 7.497.206 14.993.672 22.439.723 6.617.104 13.183-.258 19.801-.31 7.652-.051 15.304-.051 22.904 0 5.636 0 11.219.362 16.855.362 6.98 0 13.908-.362 20.887-.31 11.633 0 23.214.31 34.847.362 2.534 0 5.067-.465 7.601-.31.878 0 2.067 1.085 2.429 1.964.621 1.396.776 2.999.983 4.55.207 1.396.362 2.844-1.396 3.619-1.654.672-1.293 2.172-1.241 3.516 0 .672.362 1.292.414 1.965.155 1.913-.466 2.326-2.172 1.551-.465-.207-.931-.466-1.396-.724-1.137-.672-2.585-1.344-3.36 0-.569.982-.776 2.74-.207 3.671.982 1.654 2.637 2.947 3.981 4.446.724.775 1.603 1.499 1.965 2.43.103.31-1.19 1.241-1.913 1.758-1.138.827-2.172 1.964-3.464 2.275-4.653 1.034-4.654.93-2.947 5.428.103.311.051.672.103 1.758-1.706-.879-3.05-1.551-4.343-2.275-1.344-.775-2.585-1.809-3.981-2.43-.776-.31-2.12-.362-2.689.104-.517.413-.361 1.706-.517 2.585-.051.569.104 1.292-.206 1.603-.259.258-1.035 0-1.552 0-1.034 0-2.378-.414-3.05.051-1.189.828-.62 2.172-.052 3.413.311.723.155 1.602.207 2.43-.827 0-1.758.155-2.481-.156-1.396-.517-2.586-1.551-3.982-1.964-.93-.31-2.068.103-3.153.155.258.931.517 1.81.724 2.74.206.931.413 1.913.568 2.844-1.034-.104-2.119 0-3.05-.414-.931-.362-1.655-1.241-2.534-1.809-1.861-1.19-3.205-.518-3.36 1.602-.207 2.637-.569 2.792-3.205 1.965-.828-.259-1.81 0-2.689 0 .103.982.103 1.913.31 2.844.207.879.569 1.757 1.086 3.308-1.758-.465-2.844-.672-3.929-.982-1.19-.362-2.327-.93-3.568-1.137-.569-.104-1.551.258-1.706.672-.259.569-.052 1.447.207 2.068.362.775 1.189 1.396 1.499 2.223.259.62.31 1.706 0 2.016-.465.414-1.551.621-2.171.414-1.396-.465-2.637-1.293-4.033-1.913-1.189-.517-2.171-.414-3.05.879-.621.879-1.603 1.654-2.585 2.12-1.862.879-2.12 1.654-1.293 3.515.414.931.414 2.017.62 3.051-1.137 0-2.275 0-3.412-.155-.465-.052-.879-.569-1.396-.672-.724-.207-1.81-.621-2.12-.311-.568.517-.93 1.603-.827 2.379.465 3.619.207 3.929-3.361 3.257-2.895-.569-5.842-.724-8.375-2.637-.672-.517-2.223.104-3.93.259 0-1.241-.155-2.689 0-4.085.311-2.12-.413-3.257-2.481-3.619-.879-.155-1.758-.672-2.585-.62-.983 0-2.223.207-2.896.827-1.137 1.137-1.861 1.396-3.05.052-1.706-1.913-2.895-1.551-3.619 1.034-.259.93-.672 1.861-.982 2.792l-.776.103c-.724-1.293-1.551-2.585-2.223-3.929-1.551-3.102-1.965-3.154-4.602-1.086-.413.31-1.499-.207-2.275-.414-.93-.258-1.809-.568-2.688-.879-.155.983-.517 2.017-.413 2.999.206 1.448.826 2.844 1.033 4.291.104.672-.413 1.396-.672 2.068-.568-.362-1.396-.62-1.706-1.137-.827-1.448-1.292-3.154-2.275-4.55-.568-.827-1.654-1.447-2.585-1.706-.31-.103-.982 1.448-1.551 2.12-.413.465-1.086 1.189-1.551 1.137-2.378-.258-2.688 1.034-2.482 2.896.104.827.362 1.602.414 2.43 0 1.085-.31 1.654-1.654 1.395-2.741-.517-3.568 0-4.292 2.792-.413 1.603-1.034 2.223-2.792 1.603-3.05-.982-6.255-1.551-9.306-2.533-1.654-.517-3.102-1.655-4.808-2.172-.931-.258-2.068.155-3.102.31-1.034.104-2.223.569-3.154.311-3.102-.931-6.152-2.172-9.254-3.102-.828-.259-2.12.103-2.844.62-1.345 1.034-2.43 1.086-3.878.31-2.844-1.603-4.395-1.344-6.411 1.086-1.137 1.396-1.809 1.189-2.688-.207-1.5-2.533-1.707-2.533-4.033-.827-.569.413-1.344.465-2.017.672-1.034.31-2.068.62-3.153.827-.672.155-1.5.362-2.017.104-1.706-.879-2.947-.259-4.549.517-2.586 1.189-5.429 1.913-8.221 2.533-1.809.414-3.154-.982-3.516-2.895-.31-1.965-.362-4.033-2.792-4.912-.362-.155-.672-1.706-.413-2.223.724-1.344.982-2.533.207-3.981-.207-.414 0-1.138.155-1.706.413-1.862-.465-2.999-2.378-3.102-.466 0-.983-.156-1.345 0-3.567 1.654-7.135.413-10.702 0-2.327-.259-3.567-2.017-4.808-3.671-.569-.724-.982-1.5-1.551-2.172-1.396-1.602-2.947-1.706-4.757-.62-1.344.827-2.895 1.654-4.446 1.861-.879.155-2.378-.672-2.792-1.499-.414-.879 0-2.223.31-3.309.207-.672 1.034-1.138 1.241-1.81.155-.517-.362-1.758-.517-1.706-3.154.259-3.05-1.861-2.637-4.291-2.637.569-4.084-.414-5.118-2.637-.724-1.447-5.015-2.12-6.566-1.344-1.603.827-3.051.827-4.654 0-.775-.362-1.706-.414-2.585-.465-.827-.052-1.757.31-2.43 0-2.43-.879-4.291-.621-5.583 1.913-.259.465-1.5.723-2.172.62-.465-.103-.931-1.034-1.137-1.654-.362-1.034-.259-2.275-.776-3.258-.93-1.964-.62-3.774.31-5.532 1.034-1.913 1.293-3.567-.827-5.015-1.293-.879-.362-1.809.311-2.637.723-.879 2.171-1.861.775-2.895-.724-.517-2.327-.155-3.412.207-1.138.413-2.068 1.396-3.206 1.965-.569.31-1.603.465-2.016.155-.466-.311-.724-1.345-.569-1.965.517-1.965 1.034-4.136-1.189-5.118-2.017-.931-3.309 1.085-4.757 2.171-1.55 1.189-3.102 2.223-4.704 3.309-1.241.827-2.482 1.603-3.723 2.43-.776.517-1.551.982-2.379 1.499l-.62-.413c.259-.828.207-1.913.724-2.482l.258.052Zm170.564-269.211.311 3.981c-2.43-1.706-2.431-1.913-.311-3.981Zm3.154-50.46c0-.466.828-.88 1.293-1.293.362.465.982.93 1.034 1.447.362 2.017.362 4.033-2.378 5.687 0-2.275-.104-4.084.051-5.894v.052Zm-45.084 1.24c2.275 1.137 4.137 5.48 3.465 7.962-2.12-.827-4.344-5.842-3.465-7.962Zm20.371-36.76c.465 1.137 1.034 2.223 1.396 3.412.465 1.396 1.034 3.413-1.034 3.62-2.172.206-1.603-1.965-2.172-3.62l1.81-3.412ZM87.323 74.415c-.362 2.223-.982 4.446-1.5 6.72-.413-2.067-.826-3.877-1.137-5.738-.103-.466-.052-1.138.207-1.5.414-.517 1.086-.879 1.654-1.292.259.62.88 1.292.776 1.81Zm49.789-8.273c-.465-.982-1.034-1.913-1.448-2.947-.207-.62-.31-1.344-.207-1.965.156-.723.569-1.344.879-2.068.466.62 1.086 1.138 1.345 1.81.258.672.103 1.448.155 2.223l.31.104-1.086 2.843h.052Zm23.162-18.51c-.362 2.12-3.05 4.034-5.274 4.137-3.205.207-6.41 1.086-9.616 0a2.123 2.123 0 0 0-1.137 0c-6.773 1.81-13.65 0-20.474.879-1.81.258-3.412-.155-3.774-2.482-.104-.568-1.086-1.034-1.655-1.55-.258.62-.775 1.292-.724 1.86.31 2.172-1.344 2.327-2.585 2.534-1.447.258-2.998 0-4.498.103-1.706.104-3.36.362-5.067.517-1.085.104-2.326.466-3.308.155-3.878-1.24-6.411.466-8.635 3.413-2.895 3.877-5.842 7.703-8.996 11.426-.879 1.034-2.999 2.327-3.774 1.913-1.138-.569-2.068-2.43-2.378-3.878-1.344-6.463-.259-12.874 1.5-19.026 1.085-3.774 3.463-7.445 7.961-8.738 2.223-.62 2.74-2.275 3.206-5.118.516-3.309 1.706-6.463 2.585-9.668l1.396.258c-.207 2.172-.31 4.343-.62 6.463-.311 1.913-.828 3.774-1.345 5.635-.517 1.862 0 2.947 1.965 3.154 2.171.207 4.343.414 6.514.362 1.965 0 3.774-2.12 3.516-4.188-.362-3.102 2.068-4.808 3.257-7.135.155-.258 1.654-.258 2.068.155 1.241 1.086 1.189 3.775.103 5.119-.775.982-1.654 1.965-2.274 3.05-1.396 2.379-.569 3.981 2.068 4.602 2.068.465 4.136 1.086 6.204 1.55 1.396.311 1.964 0 1.758-1.757-.466-4.033.827-7.755 2.481-11.374.207-.414.724-.672 1.655-1.5 0 2.172.155 3.723 0 5.222-.155 1.448-.827 2.844-1.034 4.291-.259 1.81-.207 3.62-.31 5.688 4.55 0 8.737.206 12.873-.104 2.586-.207 3.309-1.447 3.361-4.136 0-2.275.413-4.395 2.275-6.566.258 1.24.568 2.016.62 2.843.104 1.5 0 3 0 4.499 0 2.585 1.034 4.084 2.947 4.343 2.378.31 4.343-1.086 5.17-3.31.776-2.17 1.706-4.29 2.896-6.204.465-.723 1.964-.827 2.998-1.189 0 .983.207 2.068-.155 2.947-.672 1.81-1.861 3.413-2.43 5.222-.362 1.138-.258 2.637.155 3.774.879 2.379 2.586 2.637 4.499.828.31-.31.568-.776.982-.931.724-.258 1.809-.724 2.171-.414.569.466.983 1.551.827 2.327h.052Zm10.961 47.825c-.931-1.913-.104-3.102 1.241-3.981.206-.155 1.189.31 1.189.517 0 1.603-.672 2.844-2.43 3.412v.052Zm26.213 23.266.982.413c-.724 2.999-1.758 5.894-3.516 8.531l-.724-.207 3.309-8.686-.051-.051Zm21.456-103.869c.724.104 1.396.62 2.12.93-.466.673-.827 1.552-1.5 2.017-2.791 1.81-5.79 3.309-8.479 5.222-4.963 3.464-9.823 6.98-14.58 10.65-5.222 3.981-10.288 8.118-15.407 12.254-3.05 2.481-4.653 2.533-7.548-.31-2.585-2.534-5.067-5.274-7.497-7.962-2.74-3-5.118-6.515-9.048-8.221-.31-.155-.465-.672-.827-1.24 2.378-.311 4.446-.518 6.463-.88.982-.155 2.12-.775 1.344-1.965-.414-.672-1.654-1.292-2.378-1.137-2.534.465-4.964 1.293-7.497 1.861-.517.104-1.086-.31-1.655-.465-2.481-.879-4.911-1.344-7.341 0-1.551.879-2.947.569-4.653.103-5.119-1.447-10.392-2.43-15.562-3.722-1.241-.31-2.379-1.137-3.568-1.758 1.086-.776 2.068-1.861 3.257-2.171 2.327-.62 4.809-.828 7.238-1.034 3.361-.259 6.722-.517 10.082-.362 4.809.258 9.772.362 13.132 4.756 1.448 1.913 2.947 1.344 4.188-.207 5.17-6.566 12.564-8.996 20.112-11.115 5.894-1.655 11.892-2.069 17.941-1.552 1.344.104 2.637.931 3.981 1.448v.982c-1.655.673-3.361 1.293-4.963 2.068-2.534 1.138-5.067 2.327-7.549 3.62-.465.258-.982 1.344-.827 1.55.362.518 1.137.983 1.809 1.035.828.051 1.862 0 2.534-.466 6.876-4.29 14.321-5.428 22.231-4.343 1.5.207 2.999.156 4.447.414ZM416.353 97.99c-1.965.104-4.498.156-5.481-2.171-.827-1.965-1.292-4.188-1.602-6.36-.207-1.447 1.292-2.533 2.274-1.912 2.223 1.344 4.085 3.257 6.05 4.963.206.207.155.672.206.93-.155.466-.258.828-.413 1.19-.414 1.137.827 3.205-1.138 3.36h.104Zm47.824 81.017c-.776.31-2.172.155-2.792-.414-.569-.517-.879-1.861-.672-2.688.413-1.758 1.137-3.516 1.861-5.17.207-.517.827-.879 1.241-1.345.465.517 1.241 1.034 1.344 1.603.31 1.81.31 3.671.517 6.256-.207.31-.672 1.448-1.448 1.758h-.051Z" fill="#000"/><path d="M382.178 59.059c-.517-1.603-1.654-.982-2.74-.672-2.275.724-4.602 1.81-6.928 1.965-1.965.103-3.412.568-4.705 1.913-.155.155-1.241-.104-1.396-.414-.258-.62-.517-1.758-.207-2.068.569-.465 1.603-.776 2.327-.62 1.654.361 2.998.258 3.929-1.241.931-1.603-.362-2.74-1.344-3.361-1.551-.982-3.929-2.585-5.015-2.017-2.534 1.293-5.119 1.397-7.704 2.017-1.809.413-2.636-.103-2.326-1.965.31-2.016-.879-2.12-2.327-1.758-1.396.31-2.223 3.102-1.344 4.447 1.758 2.74 2.947 3.102 6.204 2.43 1.138-.207 2.533 0 3.619.465.672.258 1.448 1.551 1.293 2.068-.362 1.19-1.448 1.81-2.896 1.19-2.016-.88-2.998.361-4.084 2.274 1.293.259 2.171.414 2.999.569 3.102.62 6.152 1.24 7.135 5.015.155.569 1.344.827 2.068 1.24.362-.878 1.085-1.809.93-2.584-.62-3.775 1.034-5.946 4.86-5.946 1.81 0 3.619.103 5.429 0 1.603-.103 2.688-1.603 2.223-2.999v.052ZM162.601 229.209c-2.689 0-4.964 2.327-4.964 5.17 0 3.258 1.344 4.86 4.136 4.912 3.051 0 5.533-2.482 5.429-5.532 0-2.223-2.378-4.55-4.653-4.55h.052ZM378.508 75.81c.465-2.482.878-5.015.93-7.548 0-.672-1.344-1.396-2.068-2.068-.465.672-1.344 1.395-1.293 2.016.259 3.774.362 3.723-2.947 5.222-.051 0-.103.103-.103.155.879 1.034 1.706 2.171 2.688 3.154 1.138 1.189 2.586.775 2.896-.93h-.103ZM388.744 35.277c-.465-.724-.62-1.396-1.034-1.603-2.533-1.293-5.119-2.533-7.755-3.62-.621-.258-1.448 0-2.172.053.311.775.466 1.757 1.034 2.223 2.741 2.223 5.791 3.67 9.979 2.947h-.052ZM337.973 47.581c1.758.155 3.671-1.965 3.62-4.601-.414-.31-1.086-1.241-2.017-1.551-.931-.31-3.516 3.205-3.309 4.756.052.569 1.034 1.344 1.706 1.396ZM354.88 43.032c.259-.052.621-.466.724-.724.414-1.706.776-3.413 1.241-5.532l-5.481.31c1.086 2.275 1.81 3.93 2.637 5.532.155.258.621.517.931.465l-.052-.051ZM377.214 96.956c.414.258 1.396.413 1.551.155.827-1.241 1.499-2.585 2.12-3.93 0-.103-.776-.827-1.241-.93-1.706-.362-2.895 1.085-2.844 3.722 0 .104.104.776.414.983ZM361.911 46.961c-1.292-1.034-2.119-1.965-3.05-2.326-.31-.104-1.758 1.344-1.603 1.757.31 1.086 1.19 1.965 1.862 2.947l2.791-2.378ZM331.769 34.604s-.517.62-.466.879c.104.361.517.827.827.827 2.275 0 4.447-.259 6.618-2.068-2.791-1.5-4.86-.259-6.979.362ZM300.179 38.585c-.517.31-.827.931-1.241 1.396.517.466 1.034 1.19 1.655 1.241 1.292.207 2.637.052 3.929.052-.103-2.482-2.43-3.826-4.291-2.74l-.052.051ZM349.348 38.378l-2.947-2.223-2.017 2.171c.983.672 1.862 1.654 2.896 1.861.568.104 1.396-1.189 2.068-1.81ZM386.418 95.043s0 1.137.104 1.189c1.034.103 2.068.103 3.102.052.207 0 .517 0 .62-.207.517-.517.931-1.138 1.396-1.706l-1.964-1.448c-1.241.724-2.275 1.344-3.309 2.068l.051.052ZM296.611 134.698c0 .31.258.827.414.879.361.052.982 0 1.189-.259 1.137-1.396 2.223-2.895 3.309-4.394-2.12-.466-5.016 1.861-4.912 3.826v-.052ZM138.354 7.358c1.809.672 2.895-.31 3.619-1.913-1.81-.983-4.085-.828-4.343.31-.103.465.362 1.448.776 1.603h-.052ZM345.107 31.398c-1.034-.62-1.965-1.292-3.05-1.757-.362-.155-.983.465-1.5.724l2.792 2.481 1.758-1.5v.052ZM449.236 110.967c.31-.103.62-.879.569-1.292-.052-.31-.724-.724-1.086-.724-1.138.052-2.275.31-3.981.569 1.551 2.119 3.102 1.809 4.55 1.447h-.052ZM217.403 463.056l-1.24 4.911c.982-.724 2.171-1.292 2.74-2.275.31-.62-.517-1.809-.828-2.74l-.672.155v-.051ZM172.011 1.205c-3.051-1.758-3.516-1.655-4.809.724l.311.775 4.498-1.5ZM370.598 80.257c.517.827 1.189 1.55 1.758 2.275l1.706-1.758c-.828-.672-1.344-1.396-2.068-1.603-.31-.103-1.448 1.034-1.396 1.137v-.051ZM369.511 46.134c-.879-.465-1.809-1.293-2.688-1.293-.673 0-1.345 1.138-1.965 1.81l.414.62 4.136-.465.155-.672h-.052ZM355.913 75.241c.983 1.19 2.12 1.086 3.723-.465l-3.878-1.241c0 .569-.155 1.344.155 1.706ZM424.367 44.013c.362-.465 1.086-.982 1.034-1.396-.104-.672-.724-1.292-1.396-2.378-.569.983-1.189 1.655-1.034 2.068.207.672.93 1.138 1.396 1.706ZM398.413 44.168V42.67a63.321 63.321 0 0 0-3.102.362v1.034c1.034.052 2.016 0 3.05 0l.052.103ZM305.711 102.695l.931.155c1.655-1.292.672-2.792.414-4.24h-.672l-.621 4.033-.052.052ZM163.842 407.27c1.292.414 2.688.775 4.033.724 1.964 0 3.98-.724 5.945-.569 2.223.207 4.395 1.137 6.618 1.655 1.655.361 3.206.155 3.826-1.758.414-1.241-1.396-3.051-3.154-3.102-3.412-.104-6.825 0-10.237 0v-.362c-2.275.258-4.55.517-6.773.879-.362.051-.879.672-.879 1.034 0 .517.311 1.344.672 1.499h-.051ZM223.661 417.248c.31-.413.827-.879 1.292-.879 2.172-.155 3.93-1.654 3.93-3.722 0-1.138-.207-2.999-1.707-2.379-1.396.569-2.688 1.345-4.136 1.913-1.964.724-2.481 5.067-.93 7.445.62-.93 1.034-1.706 1.551-2.378ZM348.313 372.061c.724 0 1.396-.724 2.533-1.396-1.034-.775-1.654-1.551-2.171-1.551-.569.052-1.396.827-1.551 1.448-.104.413.827 1.499 1.241 1.499h-.052ZM184.781 29.383c.62.517 1.189 1.396 1.861 1.447.517.052 1.137-.827 2.068-1.55-1.034-.673-1.706-1.397-2.275-1.345-.569.052-1.086.93-1.654 1.448Z" fill="#000"/></svg>